<svg xmlns="http://www.w3.org/2000/svg" viewBox="0 0 457.9 380.3" fill="#ffffff">
  <path class="st0" d="M12.2 359.7c0-.6.4-.1.1 0 .1 0-.1.6-.1 0zm146.7 4.5h-.2v-.2l.2.2zm-.3 0h.2c.9 1 2.6 1.5 3.9 2.1 1.5.7 2.8 1.2 4.4 1.9 1.5.6 2.7 1.1 4.3 1.7 4.6 1.8 14.5 4.9 18.9 5.8l4.8.9s.1 0 .2-.1c2.5 1.3 14.9 2.8 18.3 3.1 5.2.4 9.9.7 15.1.7l5.3-.2c2.6.2 7.5-.2 10.1-.5 1.8-.2 3.4-.3 5-.5l14.2-2.3c1.7-.3 7.3-1.5 8.8-2.2 0 0 .1-.1.2-.1 2.9-.1 18.9-6 23.2-8l4.3-2c.9-.4 7.7-3.7 8.3-4.4-1.6 0-2.2.3-3.8.3-4.4 0-6.9.2-11.3-1.2-2.2-.7-3.9-1.4-5.9-2.5-7.3-4.1-.7-5-11.3-1.4-1.4.5-5.8 2-7.1 2.1.2 2 6.8 6.5 8.5 7.4 2.8 1.5 8.3 3.4 12.4 3.4v.2c-3 0-5-.1-7.5-.6-2.3-.5-4.5-1.2-6.4-2-2.6-1.2-8.7-4.9-9.4-7.4-1.2 0-5.5 1.1-7.2 1.4-2 .4-5.2 1.2-7.4 1.2.4 1.5 2.5 3.5 3.5 4.7.5.7 1.4 1.4 2.1 2 3.4 3.2 8.5 5.1 13 6.4.1 0 .3.1.4.1.5.2.2 0 .5.2-4.1 0-9.8-2.3-13.3-4.3-4.2-2.4-6.3-5-8.8-8.7-4.5.4-9.5 1.2-14.4 1.2.2 2.3 4.9 7.8 7.1 9.5 2.5 1.9 4.8 3.5 7.7 4.8l2.2.9c.5.2.4.1.7.5-1.9-.2-5.1-1.5-6.7-2.2-2-.8-4.1-2.1-5.8-3.3-1.4-1-3.7-3.1-4.7-4.4-2-2.6-2-2.9-3.5-5.7h-7.2c-2.7 0-4.5-.2-7.2-.2.2 2.4 3.9 8.1 5.9 10.1 1.3 1.4 2.7 2.6 4.2 3.7 2 1.5 2.6 1.7 4.4 2.8l.6.4c-2.5-.2-8.8-4.4-11-6.5-2.5-2.5-6.5-7.2-6.8-11-3.2 0-7.6-.8-10.9-1.4-1.4-.2-2.3-.5-3.8-.5.3.7.6 2.1.9 3 1.3 4.6 5.2 10.1 8.9 13 .5.4.7.6 1.2 1 .7.5 1.9 1.2 2.3 1.8-2.5-.6-8.3-5.4-10-7.5-1.5-1.9-2.4-3-3.5-5.2-.7-1.5-2.1-4.6-2.2-6.7-2-.2-12.5-3-14.2-3.8 0 2.9 1.1 6.7 2.3 9.2.9 2 1.5 3.2 2.9 5l3.5 4.2c.9.8 1.4.9 2.1 2-1-.3-3.9-2.8-4.7-3.7l-3.1-3.4c-2.7-3.2-5.4-8.7-5.4-14.1l-10.3-4.1c-.8-.4-2.6-1.2-3.4-1.4 0 6.3 1.2 11.7 4.8 16.8l3.1 4.3c-1.3-.7-3.1-2.9-4.1-4.1-2.5-3.2-4.6-6.5-5.6-10.7-.6-2.6-.7-4.2-.7-7.5l-11.8-6.7c-1.1-.7-1.4-.5-1.4 3.8 0 11.3 5.8 16.8 6.2 18.5-1.9-1.3-5.6-7.5-6.6-10.2-1.5-3.7-2.8-10.9-1.3-14.1l-10.5-7.7c-.5-.4-1-.9-1.5-1.2-1.4 3-1.4 9.2-.8 12.6.5 2.8 1.4 5.8 2.6 8.2.4.9.9 1.6 1.1 2.5-2.3-1.6-5.4-10.4-6-14.2-.4-2.8-.4-4.7.1-7.5.9-4.8 2.3-1.6-4.6-8.5l-2.6-2.6-1.3-1.3c-1.1-1.1-.7-1.1-1.5-1.4-2.5 5.2-2.6 12.2-1.5 17.8.4 2.1 1.4 4.5 1.5 5.5l-.4-.6c-1.5-2.6-3.2-8.5-3.4-11.5-.4-5.4.2-9.7 2.2-13.4-.9-1.4-5.8-6.9-8.3-10.7-.4-.5-.9-1.3-1.3-1.6-1.6 3-3.3 6.8-3.6 11-.2 2.3-.4 4.4-.1 6.8.2 1.2.2 2 .4 3.2.2 1.1.6 2.2.6 3.2 0-.1-.1-.2-.1-.1s-.1-.1-.1-.1c-2.7-5.7-3.1-14.8-1.3-20.6.7-2.1 1.6-4.1 2.7-5.7-.7-1-1.3-2.1-2-3.3-2.8-4.7-3.4-6-5.9-10.7-.9.7-2.3 3.4-2.9 4.6-2.8 5.6-3.1 9.8-3.1 15.8 0 1.5.3 2 .3 3.6l-.2-.3c-.4-1.3.2 1-.1-.4-3.9-16 4.6-25.7 4.6-26.2l-3.9-9.3c-.8-2-1.6-3.9-2.1-6.1-.9.2-1.5 1.3-2.1 2l-2.4 3.7c-3.4 5.6-4.2 12.2-4.2 18.8h-.2c0-5-.7-6.7.3-12.4.2-1.3.5-2.7.8-3.7 1-3.3 2.2-6.4 4.4-9 2.6-3.1 2.7-1.9.3-7.7-.3-.6-.6-.9-.9-1.5 1.4-.8 2.2-2.2 3.6-3.1 0 7.7 1.1 14.2 5.6 20.1 2.3 3 4.9 5.8 8.2 7.6 7 3.8 17.6 7.3 25.1 10.4l18.4 7.3c21.4 8.4 42.7 17.2 64.2 25.5 5.6 2.2 13 3.2 19.1 1.3 4-1.2 7.8-3.1 11.6-4.7l17.9-7.7c1.5-.7 2.8-1.3 4.3-1.9l42.6-18.3c.8-.3 1.5-.7 2.3-1l13.4-5.8c4.3-1.7 14.7-6 17.8-7.9 2-1.2 3.8-2.6 5.4-4.2 1.8-1.9 4.4-5 5.6-7.4 2-4.3 3-7.8 3-13.3l3.7 3.5c-1.3 2.4-2.3 5.2-3 7.9l-1.7 4.8c-.3.9-.5 1.2-.8 2.1-.3.7-.5 1.5-.8 2.1 3.2 0 5.6-.6 8.2-1.8l4.6-2.4c2-1.3 4.1-2.9 5.7-4.6 3.4-3.5 1.2-2.9 6-4.1 1.1-.3 1.7-.5 2.7-.9 1.6-.7 3.2-1.6 4.5-2.5 2-1.5 21.9-21.5 25.9-25.7 1.2-1.2.9-4.3 4.1-6.4-.3.9-.5.7-1.7 2.4-.5.8-1.2 1.8-1.4 2.9 1.3-.9 5.7-5.4 7.1-7.3 3.7-4.9 3.8-10.7 1.2-15.9-1.5-3.1-2.1-3.2-3.5-5.1-.9-1.2-3.6-3.2-4.9-4-8.5-5.2-17.4-5.4-26.1-.3-.3.2-.6.3-1 .5-.8.5-3 1.7-3.4 2.6.7-.4 1.3-.7 2.4-.7-.2.1-.1.1-.5.3l-2 .9c-1.9 1-1.1.5-2.8.1-.3.5-.4.7-.7 1.2.6.8 1.2 1 1.4 1.9l-2.2-1.9c-1.3.9-2.1 2.2-3.2 3.3l-3.1 3.6c-.7.9-1.8 1.3-2.1 2.5l2.2 2.4c-.9-.2-.8-.3-1.3-.9-.5-.5-.6-.7-1.1-1-.3.9-.7.9-1.2 1.7l.8.9-8.8 10c-.8 1.1-2.4 2.2-2.7 3.5-.6-2.3-.2-34.8-.2-40.1v-80.2c0-3.6.1-6.2-.5-9.3-.5-2.4-1.3-5.3-2.6-7.5-4.5-7.7-8.3-9.2-9.4-10.8.7-.2 3.4-2.8 4.1-3.5 2.7-2.6 6.7-5.4 9.8-7.5l5.7-3.7c5.9-3.6 12.1-6.8 18.3-10 1.1-.6 2.8-1.7 3.7-2.6 2.2-2.2 3.9-4.4 7.2-5.2 2.7-.7 8-.6 10.5 1.3 1.6 1.2.3 3-.1 4.6 1.8-.1 2.7-2.2 4.5-.7 2 1.7-.3 2.7-.4 4.5 2-.1 3.6-.9 4.8 1.4-1 2-1.8 1.5-2.2 3.1 3.7 0 5.6 2.3 3.3 3.8-.5.3-.8.6-1.4.8v.5c1.7.1 2.8.8 3.6 1.9V74c-.7.5-1.9 1.2-2.4 1.9 1.1.3 3.6 1.3 3.6 2.6 0 .9-1.8 2.2-2.6 2.4v.5c1.3.3 2.8 1.2 3.8 1.9-1.9 3.6-2.2 1.4 1 7.4l-.3.4c-1.9 1.8-1.7 1.4-.1 3.9.5.9 1.2 1.7 1.4 2.7-.4.5-.7.6-1.2 1 0 1.3-.1.7.4 1.6.5.7 2.1 3 2 3.7-.2 1.6-2.1.5-.1 3.9.5.9.8 1.4 1.3 2.3l-1.2 1.4c.1 1.3.6 1.5 1.3 2.4 2.7 3.5.8 2 .3 3.7-.5 1.5 2.5 3.1 2.8 4.7-1.4 2-1.3 1.5.1 3.5 1.4 2 1.1 2.1.8 3-.6 1.4.3 1.7 1 2.9.9 1.4.1 1 .2 2.2.1 1.6 1.8 1.2 1.5 3.9-.1 1.1.3 1.2.8 2 .3.5.3.5.4 1.1.1.3.1.4.1.7l.1.6c.2 1.3 0 4.2 0 5.7 1.5-.8 2.5-4.8 2.9-6.5.7-3.2.9-12.2.4-15.3l-2.1-19.7c-.1-.7-.4-2.1-.4-2.9-.2-5.7-.8-11.7-1.2-17.5-.1-1 .1-2.1 0-3.1-.1-1.1-.3-1.6-.3-3.1 0-6.6.4-8.9-1.6-14.2l-2-4.3c-2.1-4.2-4.2-8.4-6.6-12.4-.4-.7-.8-1.2-1.2-1.9l-12.5-19.2c-.5-.7-.9-1.1-1.3-1.8-.5-.6-.9-1.1-1.4-1.7-.5-.7-.9-1-1.4-1.8l-2-2.5c-1.8-1.9-3.4-4.2-5-6.2L391 3.3c-1.8-2.3-2.8-4.6-4.6-2.1-.5.6-.8.9-1.3 1.6-2.4 3.2-6.3 4.9-8.7 8.1-.3.4-.3.2-.5.8-.9 2.6 2.3 4.3 4.3 4.8 1.6.4 3 .6 5 .6 2.1 0 3.2.4 4.6 1.1 4.9 2.5 11.2 12.1 4.1 17.3-2.2 1.6-5.1 2.8-7.9 3.2-2.2.3-2.6-1.1-5.6.2l-4.7 2.5c-.7.4-1.1.7-1.8 1-.7.4-.9.6-1.7 1L343 63.7l-9.1 7.7c-.7.6-.9.7-1.5 1.3l-3.1 2.7c-2.8-1.3-7.6-3.1-10.6-4.2-6.7-2.4-13.5-5.4-20.1-8l-18.5-7.4c-4.1-1.6-8.1-3.3-12.2-4.9l-22.1-8.8c-.1 0-.1-.1-.2-.1-7.9-3.2-14.7-5.9-23.9-3.6-2.2.6-4.3 1.4-6.3 2.3l-25.8 11.2c-.1 0-.1.1-.2.1s-.1.1-.2.1L173.1 59c-1 .5-1.9.9-3 1.3l-6 2.6c-1 .5-2 .8-3 1.3-7 3-14.2 5.9-21.1 9.1-2.9 1.4-6.2 2.4-9 3.9l-7.7-6.9c-4.5-4.3-15-12.3-19.5-15.3l-3.5-2.5c-2.6-2-5.6-3.6-8.3-5.4-3.7-2.5-11.7-7.4-15.7-9-1.8-.7-3.3.6-6.4-.1-3.8-.9-9.2-3.7-9.5-8.1-.4-4.5 3.7-10 7.5-11.9 3.3-1.6 9.1-.3 12.1-2.8.3-.2 1-.9 1.2-1.2 1.7-2.1-.3-4-1.8-5.3-2.2-1.9-4.8-3.3-6.6-5.6l-1.4-1.7c-1.3-1.8-2-1.7-3.3 0L50.3 23.5c0 .1-.2.2-.2.3 0 .1-.1.1-.1.1l-6.8 9.3c-4.1 6.2-7.9 12.6-11.7 19L30 54.8c-2.1 3.3-3.4 7.2-5.2 10.7-2.2 4.3-1.8 8.7-1.8 14.1l-1.4 23.8c0 1.8-.5 3.9-.7 5.6-.6 4.7-1.3 9.5-1.4 14.1l-.2 3.1c0 1.1-.3 1.5-.3 2.9 0 4.8-.4 10.2 1.1 14.7.5 1.4 1.3 3.5 2.2 4.2 0-1.2.3-1.3.3-2.6 0-1.5-.5-3.7.2-5 .3-.7 1-1.1 1-2.1-.1-1.2-.6-.9.3-2.2.4-.6 1-.9 1.2-1.7.3-1.7-.9-.9.7-3.1 2-2.7-.9-1.8.8-4.3 1.8-2.6 2.1-2 .7-4.6 1-2 2.9-2.3 2.9-4.8-1.3-.7-1.6-1-.7-2.1 2.5-3.3 2.8-2.9.9-5 .6-1 2.1-3 2.2-4.1.3-2.7-2.5-.1 1-5.7.5-.8.4-.6.4-1.7L33 98c.1-.6.2-.8.6-1.3.3-.5.4-.7.7-1.2.8-1.3 2.5-3.3-.1-3.9 0-2.8 3.4-4.3 1.5-6.8-.5-.6-.4-.5-.8-1.2 1-.7 2.6-1.6 3.8-1.9-.3-1-1.8-1.4-2.6-2.9.7-1.4 2-2.3 3.6-2.6-.2-.3-.1-.3-.4-.5l-2-1.4c0-2.8 1.4-2.8 3.6-3.4v-.5c-1.3-.3-2.7-1.3-2.1-2.8.6-1.5 2-1.8 4-1.8-.6-2.4-1.9-1-1.9-3.8 2.8-1.5 1.9-.7 4.8-.7L44.5 59c-.4-.8-.1-1.8.5-2.4.7-.6 1.3-.8 2.2-.4 1.1.5 1 .8 2.3 1-.1-1.8-2-3.4 0-4.6 4.8-2.9 11.1-2.1 15.2 1.2 2.8 2.2 1.9 3.2 7.1 5.8l20.9 11.7c.8.5 1.2.9 2 1.4l5.7 4.1c2.1 1.6 9.3 7.6 10.5 9.4l-1.5.9-3.8 3.2c-2.7 2.5-4.8 5.8-6.3 9.1-.5 1.1-1 2.3-1.3 3.7-.1.2-.2.8-.2 1v.6l-.1.4c-.5 2.5-.6 4.4-.6 7.1v79.9c0 13.5-.2 26.4-.2 39.8-1.1-.8-1.9-2.3-2.9-3.3l-5.3-6c-.4-.5-.3-.5-.7-1-.9-1.1-2.3-2.2-3.1-3.4.5-.8.5-.2.7-1.2-.4-.2-.5-.6-1.4-1.4-.4.6-.4.7-1.2 1l1.2-1.4-4.2-4.8c-.9-.9-1.2-1.5-2-2.3-.5-.5-.7-.6-1-1.1-.4-.6-.6-.8-1.2-1.2l-1.4 1.2c-.6.6-.7.9-1.5 1.1l2.2-2.4-1.2-1.3-1 .8-.7-.5c-1.1-.6-1.8-.7-2.4-1.2l1.4.2v.2l.3-.2h-.3c-.9-1.3-5.4-3.7-7.1-4.4-5.9-2.5-13.6-3-19.3-.2-5.3 2.7-9.3 5-12.2 11-4.2 8.4-.9 14.4 5.1 20.4 1 1 2 2.2 3.1 2.9-.1-1.4-1.7-3.7-2.6-4.6-.6-.7-.8-.5-1-1.4 3.3 2.2 4.2 6.6 4.7 7.3l13.2 13.2 9.6 9.6c2.9 2.9 2 2.1 5.4 4.2.7.4.8.5 1.6.8 1.7.7 3.4 1.6 5.8 1.6.1 1.1.5.7.7 3.1-.6-.4-.7-.6-1.4-1l-2.1 4.4c-.5 1-2 3.3-2.2 4.3 1.5.8 1.8 1.2 2.9 2.4 3.4 3.4 4 7.3 4 11.8h-.2c0-5-2.4-9.6-6-12.2-.8-.6-.6-.9-1.7-1-.3 1.2-3.2 4.5-4.1 5.8-1 1.4-1.1.8-1.4 1.9 1.4.3 3 2.2 3.9 3.3 1.4 1.9 2.7 5.2 2.6 7.5 0 .8-.2.2-.2 2.4h-.2c0-5.6-2.4-9.6-6.7-12.5-.9.6-1 .9-1.6 1.7l-5.1 5c.8 1.2 1.4.7 3.5 3.4 3.3 4.3 2 7.1 2 9.5H64c0-3.6-.3-5.2-1.7-7.4-1.1-1.7-2.8-3.5-4.5-4.6l-5.9 4.9c-.1 0-.1.1-.1.1-1 .8-.5.7-1.4 1 .3 1.2.8.7 2.4 2.2 1.6 1.5 2.9 4 3.1 6.2l-.5 4.3c0-4.7-.8-6.7-3.7-9.6-.7-.7-1.6-1.7-2.6-2l-6.8 5.2c-.6.4-.7.3-.9 1 2.1.6 5.2 4.8 5.5 7.7l-.1 3.2c-.2.8-.1.5-.4.9 0-4-.7-5.6-2.7-8.1-1.9-2.4-2.6-2.1-3.3-3.2-.7.5-1.3.9-2 1.4-1 .8-5.3 3.9-6 4.8 4 2.7 5.8 5.5 5.5 10.5-.1 1.1-.3 1.2-.3 2.2h-.2c0-4.9-.5-6.9-3.7-10l-1.1-1.1-1.5-.9-5.6 4.5c-.8.6-.9 1.2-1.9 1.5v.5c1.8.5 3.9 3.2 4.7 4.9.7 1.4.8 1.8 1.1 3.7.4 2-.1 2.8-.1 4.4h-.2c0-5.2-1.7-9-5.7-11.8-.6-.5 0-.2-.8-.4-1.2.9-6.2 5.6-7 6.7 7.6 4 6.1 12.3 6.7 13.9-.7-.6-.4.3-.5-.9v-1.2c-.1-.5-.3-1.6-.5-2.2-.5-1.8-1.4-3.8-2.6-5.1-1-1.2-1.1-1.6-2.6-2.7-.8-.6-.6-.6-1.5-1.1-.2.6-2.3 2.9-3 3.7-.7 1-2.5 2.9-2.8 3.9l4.1 3.7c1.8 2.3 3.1 5.9 3.1 9.3h-.2c0-4.1-3.5-9.2-6.9-11.6-.8-.6.2-.3-1-.4-.2.8-.7 1.3-1.1 2-.9 1.6-2.9 4.7-3.2 6.2.7.9 2.2 1 5.2 5.6 1 1.5 2.9 5.8 2.9 8.1l-.2-.3-.2-.5c-.2-.5-.2-.7-.3-1.1-1.2-3.7-4.1-7.8-7.2-10.1-.6-.5-.2-.3-.9-.5-.1.8-1.1 3.1-1.6 4.6-.5 1.7-.9 3.2-1.3 4.9 4.1 2.2 8.8 10 9.1 13.2l-1-1.7c-.3-.6-.5-1.1-.9-1.8-.7-1.3-1.3-2.1-2-3.2-1.4-2-3.5-4-5.5-5.3 0 4.8 1.5 9.3 5 11.8 1.4 1 2.2 1.4 4.4.9v-.7l.3.5c2.8-1.5 2.8-6.1 4.3-10.3.9-2.8 1.5-4.4 2.8-7 1.9-3.8 5.9-10.5 8.9-13.4.5-.5.9-.9 1.2-1.4.8-1.2 3.7-3.8 4.9-5 .9-.9 1.5-1.6 2.4-2.4.6-.5.8-.5 1.3-1.1l24.9-19.8c.7-.5.8-.7 1.5-1.2L74 295.8c.3-.4.4-.5.7-.8 2.7-2.7 4.6-4.8 6.9-8l2.2-2.9 4.1 9.3.3.6 10.3 18 10.9 14.3c.9 1.1 1.4 2.2 2.2 1.9.1 1.4.9 1.7 2.1 2.9.5.5.4.6.9 1.1l5.2 5.2c1.6 1.2 4.5 4.3 5.8 5 2.5 2.4 4.6 4 7.4 6.1l12.2 8.2c1.5.9 2.8 1.7 4.2 2.5 1.5.9 2.9 1.5 4.4 2.3 1.1.6 3.4 2.1 4.7 2.2l.1.5zm206.4-60v.2h-.2l.2-.2zm0 .2v-.2c1.4-1.2 6.3-11.3 7.3-13.6.4-1 .8-1.7 1.1-2.5.4-.9.8-1.6 1-2.6.6.4 1.5 1.9 2.1 2.7.7.9 1.4 1.9 2.1 2.7l4.7 5.2c.9.9 1.6 1.5 2.4 2.4.9.9 1.7 1.4 2.6 2.4.5.6.7.6 1.3 1.1l15.1 12.1c5.7 4.3 15 11.5 20.3 16.4l3.7 3.7c.4.4.8.7 1.2 1.2.5.6.6.9 1.2 1.4 4.5 4.5 9 12 11.5 18 2.5 5.9 2.8 13.2 5.7 14 .6.5 1.2.6 2.1.5 4.1-.5 7.5-7.3 7.5-12.7-1.2.1-2.1 1.3-2.9 2.1-2.8 2.8-3.7 4.2-5.5 7.7l-1 1.7c.2-2.6 3.6-8.1 5.8-10.5.9-1 2-1.7 3.1-2.5 0-1.8-2.2-8.2-2.9-9.6-3.8 2.6-6.2 5.9-7.9 10.1l-.8 1.8c.1-3.5 4.3-11.9 8.2-13-.4-1.8-3.5-6.9-4.6-8.4-1.8.4-4.3 3.5-5.3 5-1.1 1.8-2.7 5.1-2.7 7.9h-.2c0-5 1.8-9.9 5.6-12.9.6-.5 1.2-.8 1.6-1.3-1.2-2.4-3.2-4.5-5-6.5-.4-.5-.5-.4-.8-.9-2.9 2-5.3 4.8-6.4 8.2-.4 1.3-.3 3-1 4 0-3.4.5-5.8 1.8-8.1.3-.6.6-1 1-1.4 1.5-1.8 3.5-3.3 3.8-3.7-.7-1-2.2-2.3-3.2-3.3l-3.5-3.2c-1.4.4-3.9 3.1-4.7 4.4-1.2 2-2 4.2-2 7.3h-.2c0-4.7.2-7.5 3.2-10.5.8-.8 2-1.4 2.6-2.2-1-1.4-6.1-5.3-7.4-6.2-.5.3-.8.5-1.2.9-.5.4-.8.6-1.2 1-.5.4-.6.7-1 1.2-2 2.5-2.8 4.6-2.8 8.5h-.4c0-2.8-.7-4.8 1-7.7 1.1-1.9 2.6-3.5 4.6-4.6-.8-1.1-2.7-2.3-3.8-3.1l-4.1-3.1-.5.5c-4 3.2-5.5 5.4-5.5 11.3l-.3-.7c-2.1-7 4.5-11 5.1-11.8-.4-.7-6.5-5.4-7.7-6-.8.4-.6.3-1.3.9-3.6 3.3-4.7 5.1-4.7 10.9l-.3-.7c-.7-2.1-.4-4.9.6-6.9s2.8-3.9 4.7-4.9l-7.4-6.5c-3.6 1.9-6.2 6.1-6.5 10.1-.1 1 .2 1.2.2 2.1-.7-1-.9-2.7-.6-4 .3-1.6.5-2.8 1.1-3.9 1.1-2.2 2.7-3.9 4.8-5l-6.9-7c-.5.5-.9.7-1.4 1.2-3.8 2.9-5.2 6.4-5.2 11.6l-.3-.9c-.1-.6-.1-.5-.1-1.1 0-.9 0-1.8.1-2.6.6-3.8 2.9-7.2 6.2-9l-5.5-7.7c-3.2.9-7.4 7.5-7.4 12-.8-.6-.4-.4-.3-1.7.2-2.2.7-4.2 1.8-6.1.7-1.2 1.2-1.9 2.1-2.9.6-.7 2.2-2 3.1-2.2-1.4-2.7-4.6-7.1-4.6-10.3-.5.3-1.5 1.9-2 2.6-.7 1-1.4 1.7-2.2 2.6-4.1 4.9-11.7 9.7-18.9 9.7-.5 2-2.4 5.6-3.4 7.4-.7 1.4-3.5 6.3-3.6 7.4 9.3 0 14.6-2.4 21.1-7.4.8-.6 1.4-1.4 2.2-1.9-.3 1.2-3.4 3.9-4.5 4.7-4.6 3.6-9.9 7-16.2 7.1h-4.3l-6.4 9.7c-.7 1-1.9 2.1-2.3 3.3 2.9 1.4 10.2.7 13.3-.1 4.8-1.3 9.5-4.5 10.2-4.6-1.4 2.1-8 5.2-10.7 6.3-2.3.9-4.3 1-7.2 1.5-2.5.4-5.6-.4-7.5-.8-1.4 2.1-3.6 4.2-5 5.8-1.6 1.9-4.9 4.8-5.1 5.7 1.8.4 3.5 1.1 5.5 1.4 2.9.4 3.7.3 6.2.3 2.3 0 4.3-.5 6.1-.9 1.8-.5 4.5-1.7 5.2-1.7-1.2 1.7-9.1 3.9-11.6 4.3-2.1.3-5.4.5-7.5.1-4.1-.7-4.3-1.3-6.2-1.8l-6.9 6.2c-.9.7-3.9 2.9-4.3 3.6 2.2.5 3.5 2.4 10.6 3.3 1.5.2 5.3.2 6.8 0l5.9-1.1c-.3.2 0 .1-.6.4-4.7 2.3-14.1 3-19.4 1.3-2.4-.7-3.5-1.4-5.5-2.4-1 .7-1.9 1.3-3 2.1l-6.3 4c-.9.6-2.7 1.4-3.2 2.1 2.7.7 3.4 4 16.4 5.5 2.4.3 4.8-.5 6.9-.5-.1 0-.1 0-.2.1 0 .1-.1.1-.2.1-1.2.5.9-.3-.3.1l-2.6.6c-7.1 1.2-13.9.5-20.1-3.2-.9-.6-1.5-1.1-2.4-1.7l-13 6.2c.3 1 .5.9 1.8 1.8.7.6 1.4 1 2.1 1.5 5 3.3 10.3 4.8 17 4.8 3.8 0 3.1-.1 5.6-1.6.9-.5 1.4-.9 2.2-1.4l8.7-5.7c.6-.4 1.8-1.1 2.2-1.7 4-2.7 6.8-5.2 10.3-8.2.6-.6.9-.7 1.6-1.3 1.3-1.3 2.7-2.3 3.3-3.2.5-.7.5-.3 1.2-1.1 2.9-2.7 4.9-5.3 7.2-7.7l5.4-6.6c2.7-3.1 11.1-14.3 11.6-17zM312 261c0 3.7 5 3.1 5 .2 0-3.5-5-3.5-5-.2zm-170.7 0c0 3.7 5 3.1 5 .2.1-3.5-5-3.5-5-.2zm150.3 5.1c4.9 0 5.8.5 5.8-1 0-1.1-1.2-.7-3.8-.7v-6.5c0-.9-.6-.7-1.9-.7v8.9zm-130.1-7.2h2.4v7.2h1.9v-7.2h2.6c0-2.2.8-1.7-7-1.7v1.7zm80.4 7.2h2.4c.3-1.5 1-3.1 1.5-4.7 1.4-4.3 1.9-4.2-.1-4.2-1 0-1.2 1.9-1.5 2.9-.3.9-.9 2.6-.9 3.6-1.2-.9-1.2-6.5-2.9-6.5-2 0-1.5-.1-.1 4.2.6 1.5 1.2 3.2 1.6 4.7zm-24.5-6.8c.1.8.7 2.5 1 3.1h-2.2c.4-.8.7-2.3 1.2-3.1zm-4.1 6.8h1.9c.1-1 .4-1.1.5-2.2h3.1c.1 1 .4 1.1.5 2.2h2.2c-.6-1.3-1-3.1-1.6-4.6-1.6-4.2-.7-4.3-2.9-4.3-.9 0-1 1-1.3 1.8-.7 1.8-2.3 5.5-2.4 7.1zm52.8-8.2v8.2c5.1 0 6 .5 6-1 0-1.1-1.4-.7-4.1-.7v-1.9c3.5 0 3.8.3 3.8-1 0-1.1-1.2-.7-3.8-.7v-1.9h4.1c0-2.2.6-1.7-5.3-1.7-.5 0-.7.2-.7.7zm-75.4 3.6h-1.2v-2.6h1.7c1.4 0 1.9 2.6-.5 2.6zm-3.1 4.6h1.9V263c2 0 1.1-.3 2.9 3.1h2.2l-1.8-3.6c2.1-.6 2.9-5.3-2.8-5.3h-2.4v8.9zM448.5 368c0 1.1 0 .5-.2.7 0-1.1 0-.4.2-.7zm-272.2 3.2zm0 0l-.2-.2.2.2zm-.2-.3l-.2-.2.2.2zm-.2-.2l-.2-.2.2.2zm-.2-.2l-.2-.2.2.2zm-34.1-16.1zm-.2-.5l.2.5-.2-.5zm0 0l-.2-.2.2.2zm-15.6-11.5c.3.4.3.1 0 .5v-.5zm48.7-106.3c1.5 0 16.8-2.9 16.8-2.9 0-17.9.2-35.1.2-52.8H175c0 4.8-.2 8.8-.2 13.7l-.3 42zm150.2 113.5c-1.2 0-.4 0-.7-.2 1.3 0 .4 0 .7.2zm14.4-12.7c-.3.3.4.2-.7.2.3-.2-.4-.2.7-.2zm0 0l.5-.3-.5.3zm13-14.6l-.5.2.5-.2zm.5-.3l-.5.2.5-.2zm.5-.2l-.5.2.5-.2zm0 0zm-71.6-136.1v5.8l4.8.2c1.2 0 1.9.3 4.8.3 0 1.7.3 2.3.3 3.8v33.1c0 1.4.3 2.2.3 3.8 0 5.3-1 4.5 3.1 5.3 4 .8 9.2 2.4 13.2 3.3v-48.5c3.3 0 6.2.5 9.6.5v-12.7l-35.5-.2c-1.4 0-.6 2.6-.6 5.3zm-138.7-4.3v62.2c0 1.3 1.3.3 3.5-.3 1.3-.4 2.7-.8 4.3-1.2 1.8-.5 7.2-2.2 8.7-2.3v-25c2.8 0 7.3-1.2 10.1-1.2 0-1.2.2-1.3.2-2.6v-8.4c-1 0-1.2.2-2.4.3-2.2.1-5.8.7-7.9.7l.2-11c3.9 0 7.4-.5 11.3-.5l.1-7.3c.1-1 .5-3.8-.4-4.2l-26.1.2c-.9-.1-1.6-.3-1.6.6zm53.8 12.3c0 12.6 7.6 12.2 17.6 18.1 3.1 1.8 4.5 2 4.5 7.5 0 3.6-1.6 4.1-4.1 4.1-2.3 0-2.2-3.3-2.2-5.8 0-1.9.2-2.7.2-4.6-2.9 0-5.2.2-7.9.2-1.4 0-2.2.2-3.8.3-1.3 0-2.2.3-3.8.3 0 6-.9 12.7 4.6 15.8 7.1 4.1 18.8 3 26 .1 7.3-2.9 6.9-7.5 6.9-14 0-10.5-8.8-13-17.1-17.2-3-1.5-5.2-2.3-5.2-6.3 0-3.6 1.4-4.1 3.6-4.1 2.6 0 1.9 4.5 1.9 7.7h14.9c.7 0 .7-.3.7-1 0-8.4-1.2-12.9-10.7-14.7-6.9-1.4-15.4-1.3-21 2.2-4 2.5-5.1 6.7-5.1 11.4zM234 380.1zm-.9-.4l.5.1-.5-.1zm0 0l-.5-.2.5.2zm-18.7-.5c0 .1 0 0 0 0zm-.5-.2zm0 0l-.5-.2.5.2zm38.9-.8c.3-.3.9.4.3.1-.1.1-.8.3-.3-.1zm19.6-3.6c-1.2 0-.4 0-.7-.2 1.3 0 .4 0 .7.2zm-32.6-149.7v6c1 0 .9.2 1.9.3 3.4.2 11.9.3 14.9 1v-16.3c0-2.1-.2-3.2-.2-5.3l5 .2v21.8c4.2 0 14.7 2.2 16.8 2.2 0-17.8-.5-36.5-.5-54.2h-16.6V199c-2.1 0-3 .2-4.8-.2v-18.2h-16.8c.1 15 .3 29.3.3 44.3zm205.7 134.4c-.1-.5.3-.9.1-.1 0 0 0 .9-.1.1zm.5-1.7v1c-.3-.5-.3.5-.2-.5 0-.5 0-.2.2-.5zm-17.5-25c0-.6.4 0 .1 0 0 0-.1.7-.1 0zm-8.2-7.6c0-.6.4 0 .1 0 0 0-.1.6-.1 0zm-8.7-6.8c0-.6.4 0 .1 0 .1 0-.1.7-.1 0zm-8.8-6.7c0-.6.4 0 .1 0 0 0-.1.7-.1 0zm-211-175.9c.8-.5 7.1-7.9 8.7-9.5 3.2-3.3 9.1-10.5 12.2-13.7l5.2-5.9c.6-.7 1.2-1.4 2-1.9.4.6.8.9 1.3 1.6l7.4 7.7 1.4 1.4 13.1 14c1-.7 2-1.7 2.9-2.6 1.3-1.3 7.4-7.7 8.6-8 .2.9 2.3 4.1 2.9 5l8.6 14.2.1.1.1.1c.3.4.1.2.3.4.3-1.4 1.6-3.9 2.4-7.3 4.8-23-9.4-43.5-30.1-48.3-1.5-.3-2.7-.5-4.3-.7-5-.8-10.5-.2-15.2 1.1-14.8 3.9-25.8 15.7-29.1 31.1-1.3 6.4-.6 16.5 1.5 21.2zm103.5 34.8l-2.7.1c-1.4.3-2.5.1-4 .1.7-.9 2.8-1.8 3.9-2.5l3.2-1.9c.9-.4 1.4-.9 2-1.6.5-.7 1.2-2.3 2.5-4 .1-.1.2-.3.3-.4l1.1 1.4.1.1.5.9c.5 1 .9 2 1.4 2.9l-1.6-.6c-.7-.3-.8-.5-1.5-.7l-.1.1-.2.3c-1.4 1.9-1.2 2.7-3.7 4.6l-1.2 1.2zM223 160.1v.2l-.3-.2h.3zm0 0l6.5-13.6c.3-.8 1.7-3.9 2.4-4.4l5 3.8 2.9-7.9c.8.2 2.2 2 3.6 2.9l9.6-10.6c0 4.7.2 8.8.2 13.7-.6-.4-1.8-2.5-2.4-3.3-.6-.9-.5-.4-.8-1.2-.6.4-.3.3-.5.9l-2 9.3c0 .1-.1.3-.1.4l-1.2 4.6c-.4-.9-1.6-1.6-2.4-2.2-.5-.4-.7-.5-1.2-.9l-1.3-.9-1.5 5c-.4 1.2-1.4 5.4-2.3 6.1-.3-1.2-1.9-4.1-2.6-5.4-.3-.5-.4-.8-.6-1.3l-1.8-4.2-9.5 9.2zm-11-20.4l-3.8-3.7-1.4 4.4c0 .1-.1.1-.1.2l-.5 1.2c-.5 1.1-1.2 4.8-2.2 5.5-.5-1.9-1.5-3.6-2.4-5.3l-.2-.3c-.4-.6 0-.1-.3-.4l-2.5 8.8c-.3 1.2-.6 1.8-.9 3-1.1-.8-2.1-2.5-3.1-3.4-.4-.4-.7-.5-.8-1.1l-4.6 7.2-6-3.3c-.3-.2-.6-.3-1-.5l-2.2 9.8-.5-.3c-1.2-.8-2.5-2.9-3.8-3.3-.2.6-.5.9-.9 1.5-.4.5-.7.9-1 1.4l-.1.1-4.4 5.7c-.2.3-.1.1-.3.4l-1.6 2.2c-1-.7-2-1.9-2.9-2.8l-.7-.7-.3-.3c-.6-.5.5.4-.3-.3-.3-.3-.5-.3-.9-.7-.4-.4-.3-.3-.8-.7l-5.5 5.3c-.1-1.4-.3-2-.3-3.7-1 .2-1.5.8-2.2 1.4-.1 0-.1.1-.1.1l-3.5 2.5-.1.1c-.4.3-.4.3-1 .7.5-1.1 1.7-2.1 2.6-2.9l2.1-2c.3-.4 0-.3.5-.9.7-.8 1.9-1.8 2.6-2.6.5-.6.8-.7 1.4-1.3.7-.7.1-.7 1.3-1.6.7.3 1.2.8 1.9 1.2 1.9 1.3 3.8 2.9 5.8 4 .7-.4 1.2-1.2 1.6-1.9l2.5-3.3c.5-.6.4-.5.9-1l1.2-1.6c2.2-3.2 4.9-6.2 7-9.4 1.5.8 7.1 3.3 8.4 3.6.6-.4.6-.4 1-1 .4-.5.5-.7 1-1.1.8-.8 1.1-1.4 1.9-2.2.8-.8 1.1-1.4 1.9-2.2.8-.7 1.2-1.5 1.9-2.2 2.9-2.8 8.7-10.3 11.7-13.1l6.7-7.7c.4-.5.7-.7 1.1-1.1.7-.7.2-.4.8-1.1.9-1.1 2.1-2.6 3.2-3.3V141l-4.1-7.2c-.2-.4-1.1-2-1.2-2.4-.8.8-1 2.4-1.5 4.1-.1.4-.1.4-.3.9l-.7 3.3zm-24.5 6.5c-.7-.8-.9-.6-1.7-1.1l-.1-.1-5.4-2.9-7.7 9.8c-.3.4-.5.7-.8 1.1 0 .1-.2.2-.2.3l-4.1 5.1c-.2.3-.2.3-.4.5l-.5.8-.8-.6-.8-.7c-.6-.5-.9-.9-1.5-1.4l-3.2-2.8c-1.3.9-2.6 2.3-3.7 3.5l-5.4 5.9c-1.1 1.4-2.7 2.6-3.9 4l-.3.4-.1.1c0 .1-.1.1-.1.1l-5.2 5.6h176.2c-.3-1.2-5.7-6.1-6.8-7.1l-10.5-10.1c-1.1.7-2.2 2-3 3-1 1.3-2.4 2.1-3.3 3.5-1-.6-1.6-1.7-2.5-2.6-.6-.6-.6-.9-1.2-1.4l-6.1-7.1-.6-.6-3.6-4.3c-.3-.3-.5-.4-.7-.7-.5-.5-4.5-5.6-5-5.6-.6 0-.6.3-.9.5-.3.2-.5.3-.9.6l-5.2 3.7c-1-.7-4.3-6.6-5-7.9-1.3-2.2-7.8-12.2-7.9-13.5-1.1.5-2.1 1.7-2.9 2.6l-2 2-.3.3-1.1.9c-1.8 1.3-3 3.5-4.9 4.7-1.3-.9-3.5-3.1-4.5-4.4l-9.5-9.9c-1.9-2.4-4.3-4.4-5-5.4-.7-1.1-3.8-4.1-4.8-4.7-.4.3-.7.5-1 .9l-.1.1-2.9 3.3-1 1c-1.4 1.6-3.2 3.4-4.4 5l-.5.7c-.4.4-.7.7-1.1 1l-4.8 5.5c0 .1-.1.1-.1.1l-4 4.4c0 .1-.1.1-.1.1-1.2 1.4-2.7 2.6-3.8 4.1l-.2.3c0 .1-.1.1-.1.1-1.1 1.3-2.6 2.6-3.7 4-1 1.3-3.5 3.5-4.2 4.7l-.1.6zM12.1 358.1c.3.3.2-.5.2.7h-.2v-.7zm4.3-9.4h.2v1.2h-.2v-1.2zm95-20.6l.3.5-.3-.5zm-65-10.8v1c-.3-.4-.3.5-.2-.5 0-.5 0-.2.2-.5zm52.6-5.8zm-43.7-.7l-.1.5.1-.5zm8.4-6.2c.1.1 0 0 0 0zm6.7-45.6l5.7 2.9c1 .4 1.4.4 2 1.1-1 .4-4.9-2-6-2.7-.7-.4-1.3-.7-1.7-1.3zm318.2-.2c-.7 1.1-5.6 3.9-7.4 4.3v-.7c2.3-.2 6.4-3.4 7.4-3.6zm.3-.3l-.2.2.2-.2zm-318.5.5c-.9-.2-.5-.1-1-.7.9.2.6.1 1 .7zm318.5-.5c.4-.5 0-.3.7-.5-.4.6-.1.4-.7.5zm-319.5-.2l-.2-.2.2.2zm320.4-.5l-.2.2.2-.2zm-320.6.3l-.2-.2.2.2zm320.9-.5l-.2.2.2-.2zm-321.1.2h-.2l.2-.3v.3zm321.3-.5l-.2.2.2-.2zm-322 0h.2l-.2.3v-.3zm322 0v-.2l.3.2h-.3zm-322 0l-.2-.2.2.2zm-.3-.2l-.2-.2.2.2zm-.2-.2l-.2-.2.2.2zm-.2-.3h-.2l.2-.3v.3zm285.6-5c-.3 1.3.2 6-.1 8-.7 3.9-1.9 6.5-4 9.4-2.2 2.9-5.4 5-8.7 6.4-.1 0-.1.1-.2.1s-.1.1-.2.1l-2.5 1.1c-1 .5-1.8.8-2.9 1.2-1 .4-1.8.9-2.8 1.2-1.1.4-1.8.7-2.9 1.2l-51.3 22.1c-.6.3-.7.3-1.3.6-3.3 1.6-6.8 2.8-10.1 4.3l-14.2 6.2c-.5.2-.8.3-1.4.6-.6.3-.8.4-1.5.7-7.1 2.8-13.8 7.3-21.8 6.2-4.4-.7-23.6-8.8-29.6-11.2-2-.8-3.8-1.5-5.8-2.3-4.1-1.6-7.9-3.1-11.9-4.7-3.9-1.5-7.7-3.1-11.7-4.7l-5.9-2.3c-5.5-2.2-44.1-17.2-46.5-18.7l-1.5-1-.1-.1c-.3-.2-.5-.3-.7-.5-9.5-7.3-7.8-18-7.8-29.1 0-43.7.2-86.8.2-130.6 0-6.9-.1-9.3 2.2-14.1 3.7-7.3 9.6-9.2 16.4-12.2 1-.5 1.9-.7 2.9-1.2l8.6-3.7c1-.4 1.9-.9 2.8-1.2 7.7-3 15.1-6.8 22.8-9.8 4.8-1.9 9.5-4.2 14.3-6.1 8.6-3.5 17-7.6 25.6-11.1l18.5-7.9c9-3.8 14-1.8 22.4 1.7l54.3 21.6c1.9.7 3.9 1.5 5.9 2.3.6.2 37.7 14.6 40.7 16.4 1.5.9 3.5 2.2 4.6 3.6.3.3.1.2.4.6 1.5 1.8 2.6 3.5 3.5 5.5 2.8 5.9 1.5 14.2 1.5 21l-.1 130.4c0-.2-.1-.1-.1 0zm10.1-16.8c0-.5.1-.3.2-1 1.2 0 1.7-.2 1.7 1 0 1.5-2 1-1.9 0zm-269.3-1c1.3 0 1.4-.1 1.4 1 0 .3-.4 1.5-1.6.6l-.1-.1-.2-.3c.2-.6.2-.7.5-1.2zm327.1-5.7l-.2.2.2-.2zm.2-.3l-.2.2.2-.2zm.2-.2l-.2.2.2-.2zm-384.2 0l-.2-.2.2.2zm384.2 0c.2-.7 0-.4.5-.7-.1.7.1.4-.5.7zM37 227.4l-.2-.2.2.2zm-.2-.2l-.2-.2.2.2zm385.4-.5l-.2.2.2-.2zm-385.9-.2l.2.5-.2-.5zm386.2 0l-.2.2.2-.2zm0 0v-.2l.3.2h-.3zm-386.2 0l-.2-.2.2.2zm-.2-.3l-.2-.2.2.2zm-.2-.2h-.2l.2-.3v.3zm387.1-.5c.1.1 0 0 0 0zm-387.6-.2c.1.1 0 0 0 0zm345.4-.7l-.2-.2.2.2zm-302.4-.2l-.2.2.2-.2zm302.2 0l-.2-.2.2.2zm-302-.3l-.2.2.2-.2zm301.7 0l-.2-.2.2.2zm-301.4-.2l-.2.2.2-.2zm301.2 0l-.2-.2.2.2zm-301-.2l-.2.2.2-.2zm300.8 0l-.2-.2.2.2zm-300.5-.3l-.2.2.2-.2zm300.2 0h-.2l.2-.3v.3zm-300.2 0v-.2l.3.2h-.3zm2.4-5.2v.2l-.3-.2h.3zm.2-.3l-.2.2.2-.2zm.3-.2l-.2.2.2-.2zm.2-.2l-.2.2.2-.2zm.2-.2l-.2.2.2-.2zm.2-.3l-.2.2.2-.2zm.3-.2l-.2.2.2-.2zm308.9-5l-.2-.2.2.2zm-.3-.3l-.2-.2.2.2zm-.2-.2h-.2l.2-.3v.3zm-5.5-2.4h.2l-.2.3v-.3zm0 0l-.2-.2.2.2zm-.2-.2l-.2-.2.2.2zm-312.8-.2v.2l-.3-.2h.3zm312.5 0l-.2-.2.2.2zm-.2-.3l-.2-.2.2.2zm-4.6 16.6l.7.5 11.8-12-1.2-1.5c.8-.2.8-.5 1.4-1 .5-.5.9-.8 1.2-1.4-.2-.9-.8-1.2-1.2-1.9 7.6-4 15.7-2.8 22.6 2.6 2 1.6 4 5.1 3.5 7.9l-.9 2.8c-1.9 4.4-10.5 11.9-14.4 15.8l-15 15.3-1.8 1.8-3.3 2.5c-1.2.7-2.5 1.5-4.3 1.5-1.3-2.5-4.4-6.9-7.9-5.2-1.8.9-1.6 1.5-2.9 1.8-1-.7-2-1.9-2.8-2.9-.4-.4-.3-.5-.5-.9-.7-1.1-.9-1.3-1.3-3-1-4.1.2-6.9 1.6-9.5h1.7l13-13.2zm-302.6 0l13 13.2 1.6.1c.4 1.5 2.8 4.2 1.4 9.6-.7 2.6-3.1 5.7-5 6.9-1.7-.5-5.6-5.6-8.5.4-.5 1.1-1.2 1.6-1.6 3-4.8-1.1-6.3-2.9-9.3-5.8l-8.4-8.4c-2.9-3.4-4.2-4.5-7.6-7.6l-5.8-5.8c-2.1-1.7-6.8-6.9-7.9-9.2-4.2-9 6.3-14.8 12.5-15.8 4.2-.7 9.1.2 12.7 2.1l-1.1 1.3-.1.1 2.4 2.9-1.2 1.3 12.1 12 .8-.3zm315.4-17.3l-.2-.2.2.2zm-327.9-.2l-.2.2.2-.2zm327.6 0l-.2-.2.2.2zM66 207l-.2.2.2-.2zm327.1 0h-.2l.2-.3v.3zM66 207v-.2l.3.2H66zm4-3.1h-.7v-.2c1.3 0 .4 0 .7.2zm319.7-.2zm-321.3-.2h.7v.2h-.7v-.2zM395.3 43.6c0-2.3.8-2.9 2.5-4.2 3.5-2.6 3.6-3.2 4.8-6.7.8-2.2 3.1-4 5-1.7l5.3 7.4c.9 1.4 3.2 5 3.2 6.4 0 3.2-2.7 3.2-4.8 2.4-2.7-1.1-7.4-1.4-10.3-1.2-1.2.1-5.7 1.3-5.7-2.4zM54.9 46c-6.9 0-9.8 3.1-11.4.9-1.6-2.2-.5-3.5 1-6.3l1.1-2c1.4-2.2 5.4-8.7 7.6-8.7 2.7 0 2.9 4.1 4.9 6.8l2.2 2.1c1.6 1.3 4.9 3.4 2.6 6.4-1.2 1.6-3.2 1-5 .8-.7-.1-2.1 0-3 0zm16.8 12c-4.6-1.1-3-3.8-1.7-6.7L73.9 41c1-3.1 4.4-.2 4.4.3 0 .6-2.9 4.3-4.3 7.5-.5 1.3-1.9 5.5-2 6.9-.1 1.6.7.6-.3 2.3zm308.9-16.8c0-.4 3.2-3.1 4.3-.7.7 1.7 1.2 3.6 1.7 5.2l3.1 7.5c.3.7.9 1.8.4 2.9-.3.6-1.2 1.2-1.9 1.5-2.2 1-.3-.1-2.7-7.2-1.3-3.8-1.6-4.1-3.5-7-.3-.4-1.4-1.7-1.4-2.2zM396 17.5h.2l-.2.3v-.3zm-333.1 0v.2l-.3-.2h.3zm333.1 0c-.8-.2-1-.4-1.6-.8l-4.8-2.6c-1-.5-2.3-.9-3.6-1.2-1.5-.4-2.8-.5-3.9-1.1l.5-1.9c1.4-1.9 4-4.8 6.2-6l.2.1c1.7 1.1 4.8 5.5 6.2 7.3.4.5.7.9 1 1.3.4.5.7.8.9 1.5l-5.8-6.4c-1.3-1.3-1.8-2.3-3-1.9l-.8.5c-.8.7-3.2 3.2-2.9 4.3.3 1 4.3 2.2 6 3.1 1.7.7 4.5 2.5 5.4 3.8zm-333.1 0c1.2-1.8 6.2-4.5 8.4-5.2 2.8-1 4-1.6 1.5-4.4-2.8-3.1-2.9-2.5-5.3-.1L63.6 12c-.8.9-.9 1.4-2 2.1.2-.7.3-.7.8-1.3l7.6-9c1.3.7 2.1 1.1 3.1 2.2.9 1 3.6 4.1 3.9 5.2-.5.7-.4.8-1.4 1-.7.1-1.5.3-2.2.5-6.4 1.5-8.8 4.3-10.5 4.8z" id="РЎР»РѕР№_x0020_1_1_"/>
</svg>
