<svg xmlns="http://www.w3.org/2000/svg" viewBox="0 0 176.1 86.9" fill="#ffffff">
  <path d="M98.4 45.5v6c1 0 .9.2 1.9.3 3.4.2 11.9.3 14.9 1V36.4c0-2.1-.2-3.2-.2-5.3l5 .2v21.8c4.2 0 14.7 2.2 16.8 2.2 0-17.8-.5-36.5-.5-54.2h-16.6v18.5c-2.1 0-3 .2-4.8-.2V1.2H98.2c0 15 .2 29.3.2 44.3zM55.2 14.3c0 12.6 7.6 12.2 17.6 18.1 3.1 1.8 4.5 2 4.5 7.5 0 3.6-1.6 4.1-4.1 4.1-2.3 0-2.2-3.3-2.2-5.8 0-1.9.2-2.7.2-4.6-2.9 0-5.2.2-7.9.2-1.4 0-2.2.2-3.8.3-1.3 0-2.2.3-3.8.3 0 6-.9 12.7 4.6 15.8 7.1 4.1 18.8 3 26 .1 7.3-2.9 6.9-7.5 6.9-14 0-10.5-8.8-13-17.1-17.2-3-1.5-5.2-2.3-5.2-6.3 0-3.6 1.4-4.1 3.6-4.1 2.6 0 1.9 4.5 1.9 7.7h14.9c.7 0 .7-.3.7-1C92 7 90.8 2.5 81.3.7c-6.9-1.4-15.4-1.3-21 2.2-4 2.6-5.1 6.8-5.1 11.4zM1.4 2.1v62.2c0 1.3 1.3.3 3.5-.3 1.3-.4 2.7-.8 4.3-1.2 1.8-.5 7.2-2.2 8.7-2.3v-25c2.8 0 7.3-1.2 10.1-1.2 0-1.2.2-1.3.2-2.6v-8.4c-1 0-1.2.2-2.4.3-2.2.1-5.8.7-7.9.7l.2-11c3.9 0 7.4-.5 11.3-.5l.1-7.3c.1-1 .5-3.8-.4-4.2l-26 .1c-.9 0-1.7-.2-1.7.7zm138.7 4.3v5.8l4.8.2c1.2 0 1.9.3 4.8.3 0 1.7.3 2.3.3 3.8v33.1c0 1.4.3 2.2.3 3.8 0 5.3-1 4.5 3.1 5.3 4 .8 9.2 2.4 13.2 3.3V13.6c3.3 0 6.2.5 9.6.5V1.4l-35.5-.2c-1.4 0-.6 2.5-.6 5.2zm-107 50.4c1.5 0 16.8-2.9 16.8-2.9 0-17.9.2-35.1.2-52.8H33.6c0 4.8-.2 8.8-.2 13.7l-.3 42zm16.3 25.5h-1.2v-2.6h1.7c1.4-.1 1.9 2.6-.5 2.6zm-3.1 4.5h1.9v-3.1c2 0 1.1-.3 2.9 3.1h2.2l-1.8-3.6c2.1-.6 2.9-5.3-2.8-5.3h-2.4v8.9zm78.5-8.1v8.2c5.1 0 6 .5 6-1 0-1.1-1.4-.7-4.1-.7v-1.9c3.5 0 3.8.3 3.8-1 0-1.1-1.2-.7-3.8-.7v-1.9h4.1c0-2.2.6-1.7-5.3-1.7-.5-.1-.7.1-.7.7zm-48.7 1.4c.1.8.7 2.5 1 3.1h-2.2c.4-.8.7-2.3 1.2-3.1zM72 86.8h1.9c.1-1 .4-1.1.5-2.2h3.1c.1 1 .4 1.1.5 2.2h2.2c-.6-1.3-1-3.1-1.6-4.6-1.6-4.2-.7-4.3-2.9-4.3-.9 0-1 1-1.3 1.8-.7 1.8-2.3 5.6-2.4 7.1zm28.5 0h2.4c.3-1.5 1-3.1 1.5-4.7 1.4-4.3 1.9-4.2-.1-4.2-1 0-1.2 1.9-1.5 2.9-.3.9-.9 2.6-.9 3.6-1.2-.9-1.2-6.5-2.9-6.5-2 0-1.5-.1-.1 4.2.6 1.6 1.3 3.2 1.6 4.7zm-80.3-7.2h2.4v7.2h1.9v-7.2h2.6c0-2.2.8-1.7-7-1.7v1.7zm130 7.2c4.9 0 5.8.5 5.8-1 0-1.1-1.2-.7-3.8-.7v-6.5c0-.9-.6-.7-1.9-.7v8.9zM0 81.8c0 3.7 5 3.1 5 .2 0-3.5-5-3.5-5-.2zm170.6 0c0 3.7 5 3.1 5 .2.1-3.5-5-3.5-5-.2z" class="st0"/>
</svg>
