<!-- Generator: Adobe Illustrator 21.1.0, SVG Export Plug-In  -->
<svg version="1.1"
	 xmlns="http://www.w3.org/2000/svg" xmlns:xlink="http://www.w3.org/1999/xlink" xmlns:a="http://ns.adobe.com/AdobeSVGViewerExtensions/3.0/"
	 x="0px" y="0px" width="176.2px" height="91.6px" viewBox="0 0 176.2 91.6"
	 style="overflow:scroll;enable-background:new 0 0 176.2 91.6;" xml:space="preserve">
<style type="text/css">
	.st0{fill:#FEFEFE;}
</style>
<defs>
</defs>
<g id="_2050110861712_1_">
	<path class="st0" d="M153.6,88.3l-2.7,0.1c-1.4,0.3-2.5,0.1-4,0.1c0.7-0.9,2.8-1.8,3.9-2.5l3.2-1.9c0.9-0.4,1.4-0.9,2-1.6
		c0.5-0.7,1.2-2.3,2.5-4c0.1-0.1,0.2-0.3,0.3-0.4l1.1,1.4c0,0,0.1,0.1,0.1,0.1l0.5,0.9c0.5,1,0.9,2,1.4,2.9l-1.6-0.6
		c-0.7-0.3-0.8-0.5-1.5-0.7c0,0-0.1,0.1-0.1,0.1l-0.2,0.3c-1.4,1.9-1.2,2.7-3.7,4.6L153.6,88.3L153.6,88.3z M81.4,78v0.2L81.1,78
		L81.4,78z M81.4,78l6.5-13.6c0.3-0.8,1.7-3.9,2.4-4.4l5,3.8l2.9-7.9c0.8,0.2,2.2,2,3.6,2.9l9.6-10.6c0,4.7,0.2,8.8,0.2,13.7
		c-0.6-0.4-1.8-2.5-2.4-3.3c-0.6-0.9-0.5-0.4-0.8-1.2c-0.6,0.4-0.3,0.3-0.5,0.9l-2,9.3c0,0.1-0.1,0.3-0.1,0.4l-1.2,4.6
		c-0.4-0.9-1.6-1.6-2.4-2.2c-0.5-0.4-0.7-0.5-1.2-0.9l-1.3-0.9l-1.5,5c-0.4,1.2-1.4,5.4-2.3,6.1c-0.3-1.2-1.9-4.1-2.6-5.4
		c-0.3-0.5-0.4-0.8-0.6-1.3L91,68.7L81.4,78L81.4,78z M70.4,57.6l-3.8-3.7l-1.4,4.4c0,0.1-0.1,0.1-0.1,0.2l-0.5,1.2
		c-0.5,1.1-1.2,4.8-2.2,5.5c-0.5-1.9-1.5-3.6-2.4-5.3l-0.2-0.3c-0.4-0.6,0-0.1-0.3-0.4L57.1,68c-0.3,1.2-0.6,1.8-0.9,3
		c-1.1-0.8-2.1-2.5-3.1-3.4c-0.4-0.4-0.7-0.5-0.8-1.1l-4.6,7.2l-6-3.3c-0.3-0.2-0.6-0.3-1-0.5l-2.2,9.8l-0.5-0.3
		c-1.2-0.8-2.5-2.9-3.8-3.3c-0.2,0.6-0.5,0.9-0.9,1.5c-0.4,0.5-0.7,0.9-1,1.4c0,0-0.1,0.1-0.1,0.1l-4.4,5.7
		c-0.2,0.3-0.1,0.1-0.3,0.4L26,87.3c-1-0.7-2-1.9-2.9-2.8c-0.3-0.3-0.4-0.4-0.7-0.7c-0.1-0.1-0.2-0.2-0.3-0.3
		c-0.6-0.5,0.5,0.4-0.3-0.3c-0.3-0.3-0.5-0.3-0.9-0.7c-0.4-0.4-0.3-0.3-0.8-0.7l-5.5,5.3c-0.1-1.4-0.3-2-0.3-3.7
		c-1,0.2-1.5,0.8-2.2,1.4c-0.1,0-0.1,0.1-0.1,0.1l-3.5,2.5c0,0-0.1,0.1-0.1,0.1c-0.4,0.3-0.4,0.3-1,0.7c0.5-1.1,1.7-2.1,2.6-2.9
		l2.1-2c0.3-0.4,0-0.3,0.5-0.9c0.7-0.8,1.9-1.8,2.6-2.6c0.5-0.6,0.8-0.7,1.4-1.3c0.7-0.7,0.1-0.7,1.3-1.6c0.7,0.3,1.2,0.8,1.9,1.2
		c1.9,1.3,3.8,2.9,5.8,4c0.7-0.4,1.2-1.2,1.6-1.9l2.5-3.3c0.5-0.6,0.4-0.5,0.9-1l1.2-1.6c2.2-3.2,4.9-6.2,7-9.4
		c1.5,0.8,7.1,3.3,8.4,3.6c0.6-0.4,0.6-0.4,1-1c0.4-0.5,0.5-0.7,1-1.1c0.8-0.8,1.1-1.4,1.9-2.2c0.8-0.8,1.1-1.4,1.9-2.2
		c0.8-0.7,1.2-1.5,1.9-2.2c2.9-2.8,8.7-10.3,11.7-13.1l6.7-7.7c0.4-0.5,0.7-0.7,1.1-1.1c0.7-0.7,0.2-0.4,0.8-1.1
		c0.9-1.1,2.1-2.6,3.2-3.3v25.2l-4.1-7.2c-0.2-0.4-1.1-2-1.2-2.4c-0.8,0.8-1,2.4-1.5,4.1c-0.1,0.4-0.1,0.4-0.3,0.9L70.4,57.6
		L70.4,57.6z M45.9,64.1c-0.7-0.8-0.9-0.6-1.7-1.1c0,0-0.1-0.1-0.1-0.1L38.7,60l-7.7,9.8c-0.3,0.4-0.5,0.7-0.8,1.1
		c0,0.1-0.2,0.2-0.2,0.3l-4.1,5.1c-0.2,0.3-0.2,0.3-0.4,0.5L25,77.5c-0.4-0.3-0.4-0.3-0.8-0.6l-0.8-0.7c-0.6-0.5-0.9-0.9-1.5-1.4
		l-3.2-2.8c-1.3,0.9-2.6,2.3-3.7,3.5l-5.4,5.9c-1.1,1.4-2.7,2.6-3.9,4l-0.3,0.4c0,0-0.1,0.1-0.1,0.1c0,0.1-0.1,0.1-0.1,0.1L0,91.6
		h176.2c-0.3-1.2-5.7-6.1-6.8-7.1l-10.5-10.1c-1.1,0.7-2.2,2-3,3c-1,1.3-2.4,2.1-3.3,3.5c-1-0.6-1.6-1.7-2.5-2.6
		c-0.6-0.6-0.6-0.9-1.2-1.4l-6.1-7.1c-0.2-0.2-0.4-0.4-0.6-0.6l-3.6-4.3c-0.3-0.3-0.5-0.4-0.7-0.7c-0.5-0.5-4.5-5.6-5-5.6
		c-0.6,0-0.6,0.3-0.9,0.5c-0.3,0.2-0.5,0.3-0.9,0.6l-5.2,3.7c-1-0.7-4.3-6.6-5-7.9c-1.3-2.2-7.8-12.2-7.9-13.5
		c-1.1,0.5-2.1,1.7-2.9,2.6l-2,2c-0.1,0.1-0.2,0.2-0.3,0.3l-1.1,0.9c-1.8,1.3-3,3.5-4.9,4.7c-1.3-0.9-3.5-3.1-4.5-4.4l-9.5-9.9
		c-1.9-2.4-4.3-4.4-5-5.4c-0.7-1.1-3.8-4.1-4.8-4.7c-0.4,0.3-0.7,0.5-1,0.9c0,0-0.1,0.1-0.1,0.1l-2.9,3.3c-0.4,0.4-0.6,0.6-1,1
		c-1.4,1.6-3.2,3.4-4.4,5L68,39.1c-0.4,0.4-0.7,0.7-1.1,1l-4.8,5.5c0,0.1-0.1,0.1-0.1,0.1l-4,4.4c0,0.1-0.1,0.1-0.1,0.1
		c-1.2,1.4-2.7,2.6-3.8,4.1L54,54.8c0,0.1-0.1,0.1-0.1,0.1c-1.1,1.3-2.6,2.6-3.7,4c-1,1.3-3.5,3.5-4.2,4.7L45.9,64.1L45.9,64.1z"/>
	<path class="st0" d="M50.2,53.5c0.8-0.5,7.1-7.9,8.7-9.5c3.2-3.3,9.1-10.5,12.2-13.7l5.2-5.9c0.6-0.7,1.2-1.4,2-1.9
		c0.4,0.6,0.8,0.9,1.3,1.6l7.4,7.7c0.5,0.5,0.9,0.9,1.4,1.4l13.1,14c1-0.7,2-1.7,2.9-2.6c1.3-1.3,7.4-7.7,8.6-8
		c0.2,0.9,2.3,4.1,2.9,5l8.6,14.2c0,0,0.1,0.1,0.1,0.1c0,0,0.1,0.1,0.1,0.1c0.3,0.4,0.1,0.2,0.3,0.4c0.3-1.4,1.6-3.9,2.4-7.3
		c4.8-23-9.4-43.5-30.1-48.3c-1.5-0.3-2.7-0.5-4.3-0.7c-5-0.8-10.5-0.2-15.2,1.1C63,5.4,52.1,17.1,48.7,32.5
		C47.4,38.7,48,48.8,50.2,53.5L50.2,53.5z"/>
</g>
</svg>
