<!-- Generator: Adobe Illustrator 21.1.0, SVG Export Plug-In  -->
<svg version="1.1"
	 xmlns="http://www.w3.org/2000/svg" xmlns:xlink="http://www.w3.org/1999/xlink" xmlns:a="http://ns.adobe.com/AdobeSVGViewerExtensions/3.0/"
	 x="0px" y="0px" width="457.9px" height="380.1px" viewBox="0 0 457.9 380.1" style="enable-background:new 0 0 457.9 380.1;"
	 xml:space="preserve">
<style type="text/css">
	.st0{fill:#FEFEFE;}
</style>
<defs>
</defs>
<g id="Слой_x0020_1_1_">
	<g id="_2050110861712_1_">
		<path class="st0" d="M12.2,359.4c0-0.6,0.4-0.1,0.1,0C12.4,359.4,12.2,360.1,12.2,359.4z M12,357.7c0.3,0.3,0.2-0.5,0.2,0.7H12
			V357.7z M16.3,348.4h0.2v1.2h-0.2V348.4z M111.4,327.7l0.3,0.5L111.4,327.7z M46.3,316.9v1c-0.3-0.4-0.3,0.5-0.2-0.5
			C46.2,316.9,46.2,317.2,46.3,316.9z M98.9,311.2L98.9,311.2z M55.2,310.5l-0.1,0.5L55.2,310.5z M63.6,304.2L63.6,304.2
			C63.7,304.3,63.6,304.3,63.6,304.2z M70.3,258.6l5.7,2.9c1,0.4,1.4,0.4,2,1.1c-1,0.4-4.9-2-6-2.7
			C71.3,259.6,70.7,259.3,70.3,258.6L70.3,258.6z M388.6,258.4c-0.7,1.1-5.6,3.9-7.4,4.3V262C383.5,261.8,387.6,258.7,388.6,258.4z
			 M388.8,258.2l-0.2,0.2L388.8,258.2z M70.3,258.7c-0.9-0.2-0.5-0.1-1-0.7C70.2,258.2,69.9,258,70.3,258.7z M388.8,258.2
			c0.4-0.5,0-0.3,0.7-0.5C389.1,258.2,389.5,258,388.8,258.2z M69.4,257.9l-0.2-0.2L69.4,257.9z M389.8,257.5l-0.2,0.2L389.8,257.5z
			 M69.1,257.7l-0.2-0.2L69.1,257.7z M390,257.2l-0.2,0.2L390,257.2z M68.9,257.4h-0.2l0.2-0.3L68.9,257.4z M390.3,257l-0.2,0.2
			L390.3,257z M68.2,257h0.2l-0.2,0.3L68.2,257z M390.3,257v-0.2l0.3,0.2L390.3,257z M68.2,257l-0.2-0.2L68.2,257z M68,256.7
			l-0.2-0.2L68,256.7z M67.7,256.5l-0.2-0.2L67.7,256.5z M67.5,256.3h-0.2l0.2-0.3L67.5,256.3z M353.1,251.2c-0.3,1.3,0.2,6-0.1,8
			c-0.7,3.9-1.9,6.5-4,9.4c-2.2,2.9-5.4,5-8.7,6.4c-0.1,0-0.1,0.1-0.2,0.1c-0.1,0-0.1,0.1-0.2,0.1l-2.5,1.1c-1,0.5-1.8,0.8-2.9,1.2
			c-1,0.4-1.8,0.9-2.8,1.2c-1.1,0.4-1.8,0.7-2.9,1.2l-51.3,22.1c-0.6,0.3-0.7,0.3-1.3,0.6c-3.3,1.6-6.8,2.8-10.1,4.3l-14.2,6.2
			c-0.5,0.2-0.8,0.3-1.4,0.6c-0.6,0.3-0.8,0.4-1.5,0.7c-7.1,2.8-13.8,7.3-21.8,6.2c-4.4-0.7-23.6-8.8-29.6-11.2
			c-2-0.8-3.8-1.5-5.8-2.3c-4.1-1.6-7.9-3.1-11.9-4.7c-3.9-1.5-7.7-3.1-11.7-4.7l-5.9-2.3c-5.5-2.2-44.1-17.2-46.5-18.7l-1.5-1
			c0,0-0.1-0.1-0.1-0.1c-0.3-0.2-0.5-0.3-0.7-0.5c-9.5-7.3-7.8-18-7.8-29.1c0-43.7,0.2-86.8,0.2-130.6c0-6.9-0.1-9.3,2.2-14.1
			c3.7-7.3,9.6-9.2,16.4-12.2c1-0.5,1.9-0.7,2.9-1.2l8.6-3.7c1-0.4,1.9-0.9,2.8-1.2c7.7-3,15.1-6.8,22.8-9.8
			c4.8-1.9,9.5-4.2,14.3-6.1c8.6-3.5,17-7.6,25.6-11.1L220,48c9-3.8,14-1.8,22.4,1.7l54.3,21.6c1.9,0.7,3.9,1.5,5.9,2.3
			c0.6,0.2,37.7,14.6,40.7,16.4c1.5,0.9,3.5,2.2,4.6,3.6c0.3,0.3,0.1,0.2,0.4,0.6c1.5,1.8,2.6,3.5,3.5,5.5c2.8,5.9,1.5,14.2,1.5,21
			L353.3,251C353.2,251.1,353.2,251.1,353.1,251.2L353.1,251.2z M363.2,234.4c0-0.5,0.1-0.3,0.2-1c1.2,0,1.7-0.2,1.7,1
			C365.1,235.9,363.2,235.4,363.2,234.4L363.2,234.4z M93.9,233.5c1.3,0,1.4-0.1,1.4,1c0,0.3-0.4,1.5-1.6,0.6c0,0-0.1-0.1-0.1-0.1
			l-0.2-0.3C93.6,234,93.7,233.9,93.9,233.5L93.9,233.5z M421,227.7l-0.2,0.2L421,227.7z M421.3,227.5l-0.2,0.2L421.3,227.5z
			 M421.5,227.2l-0.2,0.2L421.5,227.2z M37.2,227.2L37,227L37.2,227.2z M421.5,227.2c0.2-0.7,0-0.4,0.5-0.7
			C421.8,227.2,422,226.9,421.5,227.2z M37,227l-0.2-0.2L37,227z M36.8,226.8l-0.2-0.2L36.8,226.8z M422.2,226.3l-0.2,0.2
			L422.2,226.3z M36.3,226.1l0.2,0.5L36.3,226.1z M422.4,226.1l-0.2,0.2L422.4,226.1z M422.4,226.1v-0.2l0.3,0.2L422.4,226.1z
			 M36.3,226.1l-0.2-0.2L36.3,226.1z M36.1,225.9l-0.2-0.2L36.1,225.9z M35.8,225.6h-0.2l0.2-0.3L35.8,225.6z M423,225.1L423,225.1
			C423,225.2,423,225.2,423,225.1z M35.3,224.9L35.3,224.9C35.4,225,35.3,225,35.3,224.9z M380.7,224.2l-0.2-0.2L380.7,224.2z
			 M78.3,224l-0.2,0.2L78.3,224z M380.5,224l-0.2-0.2L380.5,224z M78.6,223.8l-0.2,0.2L78.6,223.8z M380.3,223.8l-0.2-0.2
			L380.3,223.8z M78.8,223.5l-0.2,0.2L78.8,223.5z M380,223.5l-0.2-0.2L380,223.5z M79.1,223.3l-0.2,0.2L79.1,223.3z M379.8,223.3
			l-0.2-0.2L379.8,223.3z M79.3,223.1l-0.2,0.2L79.3,223.1z M379.6,223.1h-0.2l0.2-0.3L379.6,223.1z M79.3,223.1v-0.2l0.3,0.2
			L79.3,223.1z M81.8,217.8v0.2l-0.3-0.2L81.8,217.8z M82,217.6l-0.2,0.2L82,217.6z M82.2,217.4l-0.2,0.2L82.2,217.4z M82.4,217.1
			l-0.2,0.2L82.4,217.1z M82.7,216.9l-0.2,0.2L82.7,216.9z M82.9,216.7l-0.2,0.2L82.9,216.7z M83.1,216.4l-0.2,0.2L83.1,216.4z
			 M392,211.4l-0.2-0.2L392,211.4z M391.8,211.2l-0.2-0.2L391.8,211.2z M391.5,210.9h-0.2l0.2-0.3L391.5,210.9z M386,208.5h0.2
			l-0.2,0.3L386,208.5z M386,208.5l-0.2-0.2L386,208.5z M385.8,208.3l-0.2-0.2L385.8,208.3z M73.1,208.1v0.2l-0.3-0.2L73.1,208.1z
			 M385.6,208.1l-0.2-0.2L385.6,208.1z M385.3,207.9l-0.2-0.2L385.3,207.9z M380.8,224.4l0.7,0.5l11.8-12l-1.2-1.5
			c0.8-0.2,0.8-0.5,1.4-1c0.5-0.5,0.9-0.8,1.2-1.4c-0.2-0.9-0.8-1.2-1.2-1.9c7.6-4,15.7-2.8,22.6,2.6c2,1.6,4,5.1,3.5,7.9l-0.9,2.8
			c-1.9,4.4-10.5,11.9-14.4,15.8l-15,15.3c-0.7,0.7-1.1,1.1-1.8,1.8l-3.3,2.5c-1.2,0.7-2.5,1.5-4.3,1.5c-1.3-2.5-4.4-6.9-7.9-5.2
			c-1.8,0.9-1.6,1.5-2.9,1.8c-1-0.7-2-1.9-2.8-2.9c-0.4-0.4-0.3-0.5-0.5-0.9c-0.7-1.1-0.9-1.3-1.3-3c-1-4.1,0.2-6.9,1.6-9.5h1.7
			L380.8,224.4L380.8,224.4z M78.2,224.4l13,13.2l1.6,0.1c0.4,1.5,2.8,4.2,1.4,9.6c-0.7,2.6-3.1,5.7-5,6.9c-1.7-0.5-5.6-5.6-8.5,0.4
			c-0.5,1.1-1.2,1.6-1.6,3c-4.8-1.1-6.3-2.9-9.3-5.8l-8.4-8.4c-2.9-3.4-4.2-4.5-7.6-7.6l-5.8-5.8c-2.1-1.7-6.8-6.9-7.9-9.2
			c-4.2-9,6.3-14.8,12.5-15.8c4.2-0.7,9.1,0.2,12.7,2.1l-1.1,1.3c0,0-0.1,0.1-0.1,0.1l2.4,2.9l-1.2,1.3l12.1,12L78.2,224.4
			L78.2,224.4z M393.5,207.1l-0.2-0.2L393.5,207.1z M65.7,206.9l-0.2,0.2L65.7,206.9z M393.3,206.9l-0.2-0.2L393.3,206.9z
			 M65.9,206.7l-0.2,0.2L65.9,206.7z M393,206.7h-0.2l0.2-0.3L393,206.7z M65.9,206.7v-0.2l0.3,0.2L65.9,206.7z M70,203.5h-0.7v-0.2
			C70.6,203.3,69.6,203.3,70,203.5z M389.7,203.3L389.7,203.3z M68.3,203.1H69v0.2h-0.7V203.1z M395.2,43.3c0-2.3,0.8-2.9,2.5-4.2
			c3.5-2.6,3.6-3.2,4.8-6.7c0.8-2.2,3.1-4,5-1.7l5.3,7.4c0.9,1.4,3.2,5,3.2,6.4c0,3.2-2.7,3.2-4.8,2.4c-2.7-1.1-7.4-1.4-10.3-1.2
			C399.8,45.8,395.2,46.9,395.2,43.3L395.2,43.3z M54.9,45.7c-6.9,0-9.8,3.1-11.4,0.9c-1.6-2.2-0.5-3.5,1-6.3l1.1-2
			c1.4-2.2,5.4-8.7,7.6-8.7c2.7,0,2.9,4.1,4.9,6.8l2.2,2.1c1.6,1.3,4.9,3.4,2.6,6.4c-1.2,1.6-3.2,1-5,0.8
			C57.1,45.6,55.8,45.6,54.9,45.7L54.9,45.7z M71.7,57.7c-4.6-1.1-3-3.8-1.7-6.7l3.8-10.3c1-3.1,4.4-0.2,4.4,0.3
			c0,0.6-2.9,4.3-4.3,7.5c-0.5,1.3-1.9,5.5-2,6.9C71.8,56.9,72.6,55.9,71.7,57.7L71.7,57.7z M380.6,40.8c0-0.4,3.2-3.1,4.3-0.7
			c0.7,1.7,1.2,3.6,1.7,5.2l3.1,7.5c0.3,0.7,0.9,1.8,0.4,2.9c-0.3,0.6-1.2,1.2-1.9,1.5c-2.2,1-0.3-0.1-2.7-7.2
			c-1.3-3.8-1.6-4.1-3.5-7C381.7,42.7,380.6,41.3,380.6,40.8L380.6,40.8z M395.9,17.1h0.2l-0.2,0.3L395.9,17.1z M62.8,17.1v0.2
			l-0.3-0.2L62.8,17.1z M395.9,17.1c-0.8-0.2-1-0.4-1.6-0.8l-4.8-2.6c-1-0.5-2.3-0.9-3.6-1.2c-1.5-0.4-2.8-0.5-3.9-1.1l0.5-1.9
			c1.4-1.9,4-4.8,6.2-6l0.3,0.2c1.7,1.1,4.8,5.5,6.2,7.3c0.4,0.5,0.7,0.9,1,1.3c0.4,0.5,0.7,0.8,0.9,1.5l-5.8-6.4
			c-1.3-1.3-1.8-2.3-3-1.9l-0.8,0.5c-0.8,0.7-3.2,3.2-2.9,4.3c0.3,1,4.3,2.2,6,3.1C392.2,14,395.1,15.8,395.9,17.1L395.9,17.1z
			 M62.8,17.1c1.2-1.8,6.2-4.5,8.4-5.2c2.8-1,4-1.6,1.5-4.4c-2.8-3.1-2.9-2.5-5.3-0.1l-3.9,4.3c-0.8,0.9-0.9,1.4-2,2.1
			c0.2-0.7,0.3-0.7,0.8-1.3l7.6-9c1.3,0.7,2.1,1.1,3.1,2.2c0.9,1,3.6,4.1,3.9,5.2c-0.5,0.7-0.4,0.8-1.4,1c-0.7,0.1-1.5,0.3-2.2,0.5
			C67,13.9,64.5,16.7,62.8,17.1L62.8,17.1z M83.2,216.5l1.2-1.4l-4.2-4.8c-0.9-0.9-1.2-1.5-2-2.3c-0.5-0.5-0.7-0.6-1-1.1
			c-0.4-0.6-0.6-0.8-1.2-1.2l-1.4,1.2c-0.6,0.6-0.7,0.9-1.5,1.1l2.2-2.4l-1.2-1.3l-1,0.8l-0.7-0.5c-1.1-0.6-1.8-0.7-2.4-1.2l1.4,0.2
			c-0.9-1.3-5.4-3.7-7.1-4.4c-5.9-2.5-13.6-3-19.3-0.2c-5.3,2.7-9.3,5-12.2,11c-4.2,8.4-0.9,14.4,5.1,20.4c1,1,2,2.2,3.1,2.9
			c-0.1-1.4-1.7-3.7-2.6-4.6c-0.6-0.7-0.8-0.5-1-1.4c3.3,2.2,4.2,6.6,4.7,7.3L55.4,248c3.3,3.3,6.3,6.3,9.6,9.6
			c2.9,2.9,2,2.1,5.4,4.2c0.7,0.4,0.8,0.5,1.6,0.8c1.7,0.7,3.4,1.6,5.8,1.6c0.1,1.1,0.5,0.7,0.7,3.1c-0.6-0.4-0.7-0.6-1.4-1
			l-2.1,4.4c-0.5,1-2,3.3-2.2,4.3c1.5,0.8,1.8,1.2,2.9,2.4c3.4,3.4,4,7.3,4,11.8h-0.2c0-5-2.4-9.6-6-12.2c-0.8-0.6-0.6-0.9-1.7-1
			c-0.3,1.2-3.2,4.5-4.1,5.8c-1,1.4-1.1,0.8-1.4,1.9c1.4,0.3,3,2.2,3.9,3.3c1.4,1.9,2.7,5.2,2.6,7.5c0,0.8-0.2,0.2-0.2,2.4h-0.2
			c0-5.6-2.4-9.6-6.7-12.5c-0.9,0.6-1,0.9-1.6,1.7l-5.1,5c0.8,1.2,1.4,0.7,3.5,3.4c3.3,4.3,2,7.1,2,9.5h-0.2c0-3.6-0.3-5.2-1.7-7.4
			c-1.1-1.7-2.8-3.5-4.5-4.6L52,297c-0.1,0-0.1,0.1-0.1,0.1c-1,0.8-0.5,0.7-1.4,1c0.3,1.2,0.8,0.7,2.4,2.2c1.6,1.5,2.9,4,3.1,6.2
			l-0.5,4.3c0-4.7-0.8-6.7-3.7-9.6c-0.7-0.7-1.6-1.7-2.6-2l-6.8,5.2c-0.6,0.4-0.7,0.3-0.9,1c2.1,0.6,5.2,4.8,5.5,7.7l-0.1,3.2
			c-0.2,0.8-0.1,0.5-0.4,0.9c0-4-0.7-5.6-2.7-8.1c-1.9-2.4-2.6-2.1-3.3-3.2c-0.7,0.5-1.3,0.9-2,1.4c-1,0.8-5.3,3.9-6,4.8
			c4,2.7,5.8,5.5,5.5,10.5c-0.1,1.1-0.3,1.2-0.3,2.2h-0.2c0-4.9-0.5-6.9-3.7-10c-0.4-0.4-0.7-0.7-1.1-1.1l-1.5-0.9l-5.6,4.5
			c-0.8,0.6-0.9,1.2-1.9,1.5v0.5c1.8,0.5,3.9,3.2,4.7,4.9c0.7,1.4,0.8,1.8,1.1,3.7c0.4,2-0.1,2.8-0.1,4.4h-0.2c0-5.2-1.7-9-5.7-11.8
			c-0.6-0.5,0-0.2-0.8-0.4c-1.2,0.9-6.2,5.6-7,6.7c7.6,4,6.1,12.3,6.7,13.9c-0.7-0.6-0.4,0.3-0.5-0.9c0-0.3,0-0.8,0-1.2
			c-0.1-0.5-0.3-1.6-0.5-2.2c-0.5-1.8-1.4-3.8-2.6-5.1c-1-1.2-1.1-1.6-2.6-2.7c-0.8-0.6-0.6-0.6-1.5-1.1c-0.2,0.6-2.3,2.9-3,3.7
			c-0.7,1-2.5,2.9-2.8,3.9l4.1,3.7c1.8,2.3,3.1,5.9,3.1,9.3h-0.2c0-4.1-3.5-9.2-6.9-11.6c-0.8-0.6,0.2-0.3-1-0.4
			c-0.2,0.8-0.7,1.3-1.1,2c-0.9,1.6-2.9,4.7-3.2,6.2c0.7,0.9,2.2,1,5.2,5.6c1,1.5,2.9,5.8,2.9,8.1l-0.2-0.3c0,0-0.2-0.5-0.2-0.5
			c-0.2-0.5-0.2-0.7-0.3-1.1c-1.2-3.7-4.1-7.8-7.2-10.1c-0.6-0.5-0.2-0.3-0.9-0.5c-0.1,0.8-1.1,3.1-1.6,4.6
			c-0.5,1.7-0.9,3.2-1.3,4.9c4.1,2.2,8.8,10,9.1,13.2l0.3,0.5c2.8-1.5,2.8-6.1,4.3-10.3c0.9-2.8,1.5-4.4,2.8-7
			c1.9-3.8,5.9-10.5,8.9-13.4c0.5-0.5,0.9-0.9,1.2-1.4c0.8-1.2,3.7-3.8,4.9-5c0.9-0.9,1.5-1.6,2.4-2.4c0.6-0.5,0.8-0.5,1.3-1.1
			l24.9-19.8c0.7-0.5,0.8-0.7,1.5-1.2l12.4-11.1c0.3-0.4,0.4-0.5,0.7-0.8c2.7-2.7,4.6-4.8,6.9-8l2.2-2.9l4.1,9.3
			c0.2,0.4,0.1,0.2,0.3,0.6l10.3,18l10.9,14.3c0.9,1.1,1.4,2.2,2.2,1.9c0.1,1.4,0.9,1.7,2.1,2.9c0.5,0.5,0.4,0.6,0.9,1.1l5.2,5.2
			c1.6,1.2,4.5,4.3,5.8,5v-0.5l-0.2-0.5l-0.2-0.5l-0.4-0.6c-1.5-2.6-3.2-8.5-3.4-11.5c-0.4-5.4,0.2-9.7,2.2-13.4
			c-0.9-1.4-5.8-6.9-8.3-10.7c-0.4-0.5-0.9-1.3-1.3-1.6c-1.6,3-3.3,6.8-3.6,11c-0.2,2.3-0.4,4.4-0.1,6.8c0.2,1.2,0.2,2,0.4,3.2
			c0.2,1.1,0.6,2.2,0.6,3.2c0-0.1-0.1-0.2-0.1-0.1s-0.1-0.1-0.1-0.1c-2.7-5.7-3.1-14.8-1.3-20.6c0.7-2.1,1.6-4.1,2.7-5.7
			c-0.7-1-1.3-2.1-2-3.3c-2.8-4.7-3.4-6-5.9-10.7c-0.9,0.7-2.3,3.4-2.9,4.6c-2.8,5.6-3.1,9.8-3.1,15.8c0,1.5,0.3,2,0.3,3.6l-0.2-0.3
			c-0.4-1.3,0.2,1-0.1-0.4c-3.9-16,4.6-25.7,4.6-26.2l-3.9-9.3c-0.8-2-1.6-3.9-2.1-6.1c-0.9,0.2-1.5,1.3-2.1,2l-2.4,3.7
			c-3.4,5.6-4.2,12.2-4.2,18.8h-0.2c0-5-0.7-6.7,0.3-12.4c0.2-1.3,0.5-2.7,0.8-3.7c1-3.3,2.2-6.4,4.4-9c2.6-3.1,2.7-1.9,0.3-7.7
			c-0.3-0.6-0.6-0.9-0.9-1.5c1.4-0.8,2.2-2.2,3.6-3.1c0,7.7,1.1,14.2,5.6,20.1c2.3,3,4.9,5.8,8.2,7.6c7,3.8,17.6,7.3,25.1,10.4
			l18.4,7.3c21.4,8.4,42.7,17.2,64.2,25.5c5.6,2.2,13,3.2,19.1,1.3c4-1.2,7.8-3.1,11.6-4.7l17.9-7.7c1.5-0.7,2.8-1.3,4.3-1.9
			l42.6-18.3c0.8-0.3,1.5-0.7,2.3-1l13.4-5.8c4.3-1.7,14.7-6,17.8-7.9c2-1.2,3.8-2.6,5.4-4.2c1.8-1.9,4.4-5,5.6-7.4
			c2-4.3,3-7.8,3-13.3l3.7,3.5c-1.3,2.4-2.3,5.2-3,7.9l-1.7,4.8c-0.3,0.9-0.5,1.2-0.8,2.1c-0.3,0.7-0.5,1.5-0.8,2.1
			c3.2,0,5.6-0.6,8.2-1.8l4.6-2.4c2-1.3,4.1-2.9,5.7-4.6c3.4-3.5,1.2-2.9,6-4.1c1.1-0.3,1.7-0.5,2.7-0.9c1.6-0.7,3.2-1.6,4.5-2.5
			c2-1.5,21.9-21.5,25.9-25.7c1.2-1.2,0.9-4.3,4.1-6.4c-0.3,0.9-0.5,0.7-1.7,2.4c-0.5,0.8-1.2,1.8-1.4,2.9c1.3-0.9,5.7-5.4,7.1-7.3
			c3.7-4.9,3.8-10.7,1.2-15.9c-1.5-3.1-2.1-3.2-3.5-5.1c-0.9-1.2-3.6-3.2-4.9-4c-8.5-5.2-17.4-5.4-26.1-0.3c-0.3,0.2-0.6,0.3-1,0.5
			c-0.8,0.5-3,1.7-3.4,2.6c0.7-0.4,1.3-0.7,2.4-0.7c-0.2,0.1-0.1,0.1-0.5,0.3l-2,0.9c-1.9,1-1.1,0.5-2.8,0.1
			c-0.3,0.5-0.4,0.7-0.7,1.2c0.6,0.8,1.2,1,1.4,1.9l-2.2-1.9c-1.3,0.9-2.1,2.2-3.2,3.3l-3.1,3.6c-0.7,0.9-1.8,1.3-2.1,2.5l2.2,2.4
			c-0.9-0.2-0.8-0.3-1.3-0.9c-0.5-0.5-0.6-0.7-1.1-1c-0.3,0.9-0.7,0.9-1.2,1.7l0.8,0.9l-8.8,10c-0.8,1.1-2.4,2.2-2.7,3.5
			c-0.6-2.3-0.2-34.8-0.2-40.1v-80.2c0-3.6,0.1-6.2-0.5-9.3c-0.5-2.4-1.3-5.3-2.6-7.5c-4.5-7.7-8.3-9.2-9.4-10.8
			c0.7-0.2,3.4-2.8,4.1-3.5c2.7-2.6,6.7-5.4,9.8-7.5l5.7-3.7c5.9-3.6,12.1-6.8,18.3-10c1.1-0.6,2.8-1.7,3.7-2.6
			c2.2-2.2,3.9-4.4,7.2-5.2c2.7-0.7,8-0.6,10.5,1.3c1.6,1.2,0.3,3-0.1,4.6c1.8-0.1,2.7-2.2,4.5-0.7c2,1.7-0.3,2.7-0.4,4.5
			c2-0.1,3.6-0.9,4.8,1.4c-1,2-1.8,1.5-2.2,3.1c3.7,0,5.6,2.3,3.3,3.8c-0.5,0.3-0.8,0.6-1.4,0.8v0.5c1.7,0.1,2.8,0.8,3.6,1.9V74
			c-0.7,0.5-1.9,1.2-2.4,1.9c1.1,0.3,3.6,1.3,3.6,2.6c0,0.9-1.8,2.2-2.6,2.4v0.5c1.3,0.3,2.8,1.2,3.8,1.9c-1.9,3.6-2.2,1.4,1,7.4
			l-0.3,0.4c-1.9,1.8-1.7,1.4-0.1,3.9c0.5,0.9,1.2,1.7,1.4,2.7c-0.4,0.5-0.7,0.6-1.2,1c0,1.3-0.1,0.7,0.4,1.6c0.5,0.7,2.1,3,2,3.7
			c-0.2,1.6-2.1,0.5-0.1,3.9c0.5,0.9,0.8,1.4,1.3,2.3l-1.2,1.4c0.1,1.3,0.6,1.5,1.3,2.4c2.7,3.5,0.8,2,0.3,3.7
			c-0.5,1.5,2.5,3.1,2.8,4.7c-1.4,2-1.3,1.5,0.1,3.5c1.4,2,1.1,2.1,0.8,3c-0.6,1.4,0.3,1.7,1,2.9c0.9,1.4,0.1,1,0.2,2.2
			c0.1,1.6,1.8,1.2,1.5,3.9c-0.1,1.1,0.3,1.2,0.8,2c0.3,0.5,0.3,0.5,0.4,1.1c0.1,0.3,0.1,0.4,0.1,0.7l0.1,0.6c0.2,1.3,0,4.2,0,5.7
			c1.5-0.8,2.5-4.8,2.9-6.5c0.7-3.2,0.9-12.2,0.4-15.3l-2.1-19.7c-0.1-0.7-0.4-2.1-0.4-2.9c-0.2-5.7-0.8-11.7-1.2-17.5
			c-0.1-1,0.1-2.1,0-3.1c-0.1-1.1-0.3-1.6-0.3-3.1c0-6.6,0.4-8.9-1.6-14.2l-2-4.3c-2.1-4.2-4.2-8.4-6.6-12.4
			c-0.4-0.7-0.8-1.2-1.2-1.9l-12.5-19.2c-0.5-0.7-0.9-1.1-1.3-1.8c-0.5-0.6-0.9-1.1-1.4-1.7c-0.5-0.7-0.9-1-1.4-1.8l-2-2.5
			c-1.8-1.9-3.4-4.2-5-6.2L392,3.2c-1.8-2.3-2.8-4.6-4.6-2.1c-0.5,0.6-0.8,0.9-1.3,1.6c-2.4,3.2-6.3,4.9-8.7,8.1
			c-0.3,0.4-0.3,0.2-0.5,0.8c-0.9,2.6,2.3,4.3,4.3,4.8c1.6,0.4,3,0.6,5,0.6c2.1,0,3.2,0.4,4.6,1.1c4.9,2.5,11.2,12.1,4.1,17.3
			c-2.2,1.6-5.1,2.8-7.9,3.2c-2.2,0.3-2.6-1.1-5.6,0.2l-4.7,2.5c-0.7,0.4-1.1,0.7-1.8,1c-0.7,0.4-0.9,0.6-1.7,1l-29.8,20.6l-9.1,7.7
			c-0.7,0.6-0.9,0.7-1.5,1.3l-3.1,2.7c-2.8-1.3-7.6-3.1-10.6-4.2c-6.7-2.4-13.5-5.4-20.1-8l-18.5-7.4c-4.1-1.6-8.1-3.3-12.2-4.9
			l-22.1-8.8c-0.1,0-0.1-0.1-0.2-0.1c-7.9-3.2-14.7-5.9-23.9-3.6c-2.2,0.6-4.3,1.4-6.3,2.3l-25.8,11.2c-0.1,0-0.1,0.1-0.2,0.1
			c-0.1,0-0.1,0.1-0.2,0.1l-16.1,6.9c-1,0.5-1.9,0.9-3,1.3l-6,2.6c-1,0.5-2,0.8-3,1.3c-7,3-14.2,5.9-21.1,9.1
			c-2.9,1.4-6.2,2.4-9,3.9l-7.7-6.9c-4.5-4.3-15-12.3-19.5-15.3l-3.5-2.5c-2.6-2-5.6-3.6-8.3-5.4c-3.7-2.5-11.7-7.4-15.7-9
			c-1.8-0.7-3.3,0.6-6.4-0.1c-3.8-0.9-9.2-3.7-9.5-8.1c-0.3-4.7,3.7-10.3,7.5-12.2c3.3-1.6,9.1-0.3,12.1-2.8c0.3-0.2,1-0.9,1.2-1.2
			c1.7-2.1-0.3-4-1.8-5.3c-2.2-1.9-4.8-3.3-6.6-5.6l-1.4-1.7c-1.3-1.8-2-1.7-3.3,0L50.8,23.5c0,0.1-0.2,0.2-0.2,0.3
			c0,0.1-0.1,0.1-0.1,0.1l-6.8,9.3c-4.1,6.2-7.9,12.6-11.7,19l-1.5,2.6c-2.1,3.3-3.4,7.2-5.2,10.7c-2.2,4.3-1.8,8.7-1.8,14.1
			l-1.4,23.8c0,1.8-0.5,3.9-0.7,5.6c-0.6,4.7-1.3,9.5-1.4,14.1l-0.2,3.1c0,1.1-0.3,1.5-0.3,2.9c0,4.8-0.4,10.2,1.1,14.7
			c0.5,1.4,1.3,3.5,2.2,4.2c0-1.2,0.3-1.3,0.3-2.6c0-1.5-0.5-3.7,0.2-5c0.3-0.7,1-1.1,1-2.1c-0.1-1.2-0.6-0.9,0.3-2.2
			c0.4-0.6,1-0.9,1.2-1.7c0.3-1.7-0.9-0.9,0.7-3.1c2-2.7-0.9-1.8,0.8-4.3c1.8-2.6,2.1-2,0.7-4.6c1-2,2.9-2.3,2.9-4.8
			c-1.3-0.7-1.6-1-0.7-2.1c2.5-3.3,2.8-2.9,0.9-5c0.6-1,2.1-3,2.2-4.1c0.3-2.7-2.5-0.1,1-5.7c0.5-0.8,0.4-0.6,0.4-1.7l-1.2-1
			c0.1-0.6,0.2-0.8,0.6-1.3c0.3-0.5,0.4-0.7,0.7-1.2c0.8-1.3,2.5-3.3-0.1-3.9c0-2.8,3.4-4.3,1.5-6.8c-0.5-0.6-0.4-0.5-0.8-1.2
			c1-0.7,2.6-1.6,3.8-1.9c-0.3-1-1.8-1.4-2.6-2.9c0.7-1.4,2-2.3,3.6-2.6c-0.2-0.3-0.1-0.3-0.4-0.5l-2-1.4c0-2.8,1.4-2.8,3.6-3.4
			v-0.5c-1.3-0.3-2.7-1.3-2.1-2.8c0.6-1.5,2-1.8,4-1.8c-0.6-2.4-1.9-1-1.9-3.8c2.8-1.5,1.9-0.7,4.8-0.7L45,59
			c-0.4-0.8-0.1-1.8,0.5-2.4c0.7-0.6,1.3-0.8,2.2-0.4c1.1,0.5,1,0.8,2.3,1c-0.1-1.8-2-3.4,0-4.6c4.8-2.9,11.1-2.1,15.2,1.2
			c2.8,2.2,1.9,3.2,7.1,5.8l20.9,11.7c0.8,0.5,1.2,0.9,2,1.4l5.7,4.1c2.1,1.6,9.3,7.6,10.5,9.4c-0.5,0.3-1,0.6-1.5,0.9l-3.8,3.2
			c-2.7,2.5-4.8,5.8-6.3,9.1c-0.5,1.1-1,2.3-1.3,3.7c-0.1,0.2-0.2,0.8-0.2,1c0,0.1,0,0.1,0,0.2s0,0.1,0,0.2c0,0.1,0,0.1,0,0.2
			l-0.1,0.4c-0.5,2.5-0.6,4.4-0.6,7.1v79.9c0,13.5-0.2,26.4-0.2,39.8c-1.1-0.8-1.9-2.3-2.9-3.3l-5.3-6c-0.4-0.5-0.3-0.5-0.7-1
			c-0.9-1.1-2.3-2.2-3.1-3.4c0.5-0.8,0.5-0.2,0.7-1.2c-0.4-0.2-0.5-0.6-1.4-1.4c-0.4,0.6-0.4,0.7-1.2,1L83.2,216.5z"/>
		<path class="st0" d="M295.2,170l-2.7,0.1c-1.4,0.3-2.5,0.1-4,0.1c0.7-0.9,2.8-1.8,3.9-2.5l3.2-1.9c0.9-0.4,1.4-0.9,2-1.6
			c0.5-0.7,1.2-2.3,2.5-4c0.1-0.1,0.2-0.3,0.3-0.4l1.1,1.4c0,0,0.1,0.1,0.1,0.1l0.5,0.9c0.5,1,0.9,2,1.4,2.9l-1.6-0.6
			c-0.7-0.3-0.8-0.5-1.5-0.7c0,0-0.1,0.1-0.1,0.1l-0.2,0.3c-1.4,1.9-1.2,2.7-3.7,4.6L295.2,170L295.2,170z M223,159.7v0.2l-0.3-0.2
			L223,159.7z M223,159.7l6.5-13.6c0.3-0.8,1.7-3.9,2.4-4.4l5,3.8l2.9-7.9c0.8,0.2,2.2,2,3.6,2.9L253,130c0,4.7,0.2,8.8,0.2,13.7
			c-0.6-0.4-1.8-2.5-2.4-3.3c-0.6-0.9-0.5-0.4-0.8-1.2c-0.6,0.4-0.3,0.3-0.5,0.9l-2,9.3c0,0.1-0.1,0.3-0.1,0.4l-1.2,4.6
			c-0.4-0.9-1.6-1.6-2.4-2.2c-0.5-0.4-0.7-0.5-1.2-0.9l-1.3-0.9l-1.5,5c-0.4,1.2-1.4,5.4-2.3,6.1c-0.3-1.2-1.9-4.1-2.6-5.4
			c-0.3-0.5-0.4-0.8-0.6-1.3l-1.8-4.2L223,159.7L223,159.7z M211.9,139.3l-3.8-3.7l-1.4,4.4c0,0.1-0.1,0.1-0.1,0.2l-0.5,1.2
			c-0.5,1.1-1.2,4.8-2.2,5.5c-0.5-1.9-1.5-3.6-2.4-5.3l-0.2-0.3c-0.4-0.6,0-0.1-0.3-0.4l-2.5,8.8c-0.3,1.2-0.6,1.8-0.9,3
			c-1.1-0.8-2.1-2.5-3.1-3.4c-0.4-0.4-0.7-0.5-0.8-1.1l-4.6,7.2l-6-3.3c-0.3-0.2-0.6-0.3-1-0.5l-2.2,9.8l-0.5-0.3
			c-1.2-0.8-2.5-2.9-3.8-3.3c-0.2,0.6-0.5,0.9-0.9,1.5c-0.4,0.5-0.7,0.9-1,1.4c0,0-0.1,0.1-0.1,0.1l-4.4,5.7
			c-0.2,0.3-0.1,0.1-0.3,0.4l-1.6,2.2c-1-0.7-2-1.9-2.9-2.8c-0.3-0.3-0.4-0.4-0.7-0.7c-0.1-0.1-0.2-0.2-0.3-0.3
			c-0.6-0.5,0.5,0.4-0.3-0.3c-0.3-0.3-0.5-0.3-0.9-0.7c-0.4-0.4-0.3-0.3-0.8-0.7l-5.5,5.3c-0.1-1.4-0.3-2-0.3-3.7
			c-1,0.2-1.5,0.8-2.2,1.4c-0.1,0-0.1,0.1-0.1,0.1l-3.5,2.5c0,0-0.1,0.1-0.1,0.1c-0.4,0.3-0.4,0.3-1,0.7c0.5-1.1,1.7-2.1,2.6-2.9
			l2.1-2c0.3-0.4,0-0.3,0.5-0.9c0.7-0.8,1.9-1.8,2.6-2.6c0.5-0.6,0.8-0.7,1.4-1.3c0.7-0.7,0.1-0.7,1.3-1.6c0.7,0.3,1.2,0.8,1.9,1.2
			c1.9,1.3,3.8,2.9,5.8,4c0.7-0.4,1.2-1.2,1.6-1.9l2.5-3.3c0.5-0.6,0.4-0.5,0.9-1l1.2-1.6c2.2-3.2,4.9-6.2,7-9.4
			c1.5,0.8,7.1,3.3,8.4,3.6c0.6-0.4,0.6-0.4,1-1c0.4-0.5,0.5-0.7,1-1.1c0.8-0.8,1.1-1.4,1.9-2.2c0.8-0.8,1.1-1.4,1.9-2.2
			c0.8-0.7,1.2-1.5,1.9-2.2c2.9-2.8,8.7-10.3,11.7-13.1l6.7-7.7c0.4-0.5,0.7-0.7,1.1-1.1c0.7-0.7,0.2-0.4,0.8-1.1
			c0.9-1.1,2.1-2.6,3.2-3.3v25.2l-4.1-7.2c-0.2-0.4-1.1-2-1.2-2.4c-0.8,0.8-1,2.4-1.5,4.1c-0.1,0.4-0.1,0.4-0.3,0.9L211.9,139.3
			L211.9,139.3z M187.5,145.8c-0.7-0.8-0.9-0.6-1.7-1.1c0,0-0.1-0.1-0.1-0.1l-5.4-2.9l-7.7,9.8c-0.3,0.4-0.5,0.7-0.8,1.1
			c0,0.1-0.2,0.2-0.2,0.3l-4.1,5.1c-0.2,0.3-0.2,0.3-0.4,0.5l-0.5,0.8c-0.4-0.3-0.4-0.3-0.8-0.6l-0.8-0.7c-0.6-0.5-0.9-0.9-1.5-1.4
			l-3.2-2.8c-1.3,0.9-2.6,2.3-3.7,3.5l-5.4,5.9c-1.1,1.4-2.7,2.6-3.9,4l-0.3,0.4c0,0-0.1,0.1-0.1,0.1c0,0.1-0.1,0.1-0.1,0.1
			l-5.2,5.6h176.2c-0.3-1.2-5.7-6.1-6.8-7.1l-10.5-10.1c-1.1,0.7-2.2,2-3,3c-1,1.3-2.4,2.1-3.3,3.5c-1-0.6-1.6-1.7-2.5-2.6
			c-0.6-0.6-0.6-0.9-1.2-1.4l-6.1-7.1c-0.2-0.2-0.4-0.4-0.6-0.6l-3.6-4.3c-0.3-0.3-0.5-0.4-0.7-0.7c-0.5-0.5-4.5-5.6-5-5.6
			c-0.6,0-0.6,0.3-0.9,0.5c-0.3,0.2-0.5,0.3-0.9,0.6l-5.2,3.7c-1-0.7-4.3-6.6-5-7.9c-1.3-2.2-7.8-12.2-7.9-13.5
			c-1.1,0.5-2.1,1.7-2.9,2.6l-2,2c-0.1,0.1-0.2,0.2-0.3,0.3l-1.1,0.9c-1.8,1.3-3,3.5-4.9,4.7c-1.3-0.9-3.5-3.1-4.5-4.4l-9.5-9.9
			c-1.9-2.4-4.3-4.4-5-5.4c-0.7-1.1-3.8-4.1-4.8-4.7c-0.4,0.3-0.7,0.5-1,0.9c0,0-0.1,0.1-0.1,0.1l-2.9,3.3c-0.4,0.4-0.6,0.6-1,1
			c-1.4,1.6-3.2,3.4-4.4,5l-0.5,0.7c-0.4,0.4-0.7,0.7-1.1,1l-4.8,5.5c0,0.1-0.1,0.1-0.1,0.1l-4,4.4c0,0.1-0.1,0.1-0.1,0.1
			c-1.2,1.4-2.7,2.6-3.8,4.1l-0.2,0.3c0,0.1-0.1,0.1-0.1,0.1c-1.1,1.3-2.6,2.6-3.7,4c-1,1.3-3.5,3.5-4.2,4.7L187.5,145.8
			L187.5,145.8z"/>
		<path class="st0" d="M191.8,135.2c0.8-0.5,7.1-7.9,8.7-9.5c3.2-3.3,9.1-10.5,12.2-13.7l5.2-5.9c0.6-0.7,1.2-1.4,2-1.9
			c0.4,0.6,0.8,0.9,1.3,1.6l7.4,7.7c0.5,0.5,0.9,0.9,1.4,1.4l13.1,14c1-0.7,2-1.7,2.9-2.6c1.3-1.3,7.4-7.7,8.6-8
			c0.2,0.9,2.3,4.1,2.9,5l8.6,14.2c0,0,0.1,0.1,0.1,0.1c0,0,0.1,0.1,0.1,0.1c0.3,0.4,0.1,0.2,0.3,0.4c0.3-1.4,1.6-3.9,2.4-7.3
			c4.8-23-9.4-43.5-30.1-48.3c-1.5-0.3-2.7-0.5-4.3-0.7c-5-0.8-10.5-0.2-15.2,1.1c-14.8,3.9-25.8,15.7-29.1,31.1
			C189,120.4,189.6,130.6,191.8,135.2L191.8,135.2z"/>
		<path class="st0" d="M445.4,358.9c-0.1-0.5,0.3-0.9,0.1-0.1C445.6,358.8,445.6,359.8,445.4,358.9z M445.9,357.2v1
			c-0.3-0.5-0.3,0.5-0.2-0.5C445.7,357.2,445.7,357.5,445.9,357.2z M428.4,332.3c0-0.6,0.4,0,0.1,0
			C428.5,332.3,428.4,333,428.4,332.3z M420.2,324.6c0-0.6,0.4,0,0.1,0C420.4,324.6,420.2,325.3,420.2,324.6z M411.6,317.9
			c0-0.6,0.4,0,0.1,0C411.7,317.9,411.6,318.6,411.6,317.9z M402.7,311.2c0-0.6,0.4,0,0.1,0C402.9,311.2,402.7,311.8,402.7,311.2z
			 M364.1,304.7l0.2-0.2l0.5-0.2l0.2-0.2c1.4-1.2,6.3-11.3,7.3-13.6c0.4-1,0.8-1.7,1.1-2.5c0.4-0.9,0.8-1.6,1-2.6
			c0.6,0.4,1.5,1.9,2.1,2.7c0.7,0.9,1.4,1.9,2.1,2.7l4.7,5.2c0.9,0.9,1.6,1.5,2.4,2.4c0.9,0.9,1.7,1.4,2.6,2.4
			c0.5,0.6,0.7,0.6,1.3,1.1l15.1,12.1c5.7,4.3,15,11.5,20.3,16.4l3.7,3.7c0.4,0.4,0.8,0.7,1.2,1.2c0.5,0.6,0.6,0.9,1.2,1.4
			c4.5,4.5,9,12,11.5,18c2.5,5.9,2.8,13.2,5.7,14c0-1.1,0-0.5,0.2-0.7c0.2-2.6,3.6-8.1,5.8-10.5c0.9-1,2-1.7,3.1-2.5
			c0-1.8-2.2-8.2-2.9-9.6c-3.8,2.6-6.2,5.9-7.9,10.1l-0.8,1.8c0.1-3.5,4.3-11.9,8.2-13c-0.4-1.8-3.5-6.9-4.6-8.4
			c-1.8,0.4-4.3,3.5-5.3,5c-1.1,1.8-2.7,5.1-2.7,7.9h-0.2c0-5,1.8-9.9,5.6-12.9c0.6-0.5,1.2-0.8,1.6-1.3c-1.2-2.4-3.2-4.5-5-6.5
			c-0.4-0.5-0.5-0.4-0.8-0.9c-2.9,2-5.3,4.8-6.4,8.2c-0.4,1.3-0.3,3-1,4c0-3.4,0.5-5.8,1.8-8.1c0.3-0.6,0.6-1,1-1.4
			c1.5-1.8,3.5-3.3,3.8-3.7c-0.7-1-2.2-2.3-3.2-3.3l-3.5-3.2c-1.4,0.4-3.9,3.1-4.7,4.4c-1.2,2-2,4.2-2,7.3h-0.2
			c0-4.7,0.2-7.5,3.2-10.5c0.8-0.8,2-1.4,2.6-2.2c-1-1.4-6.1-5.3-7.4-6.2c-0.5,0.3-0.8,0.5-1.2,0.9c-0.5,0.4-0.8,0.6-1.2,1
			c-0.5,0.4-0.6,0.7-1,1.2c-2,2.5-2.8,4.6-2.8,8.5H420c0-2.8-0.7-4.8,1-7.7c1.1-1.9,2.6-3.5,4.6-4.6c-0.8-1.1-2.7-2.3-3.8-3.1
			l-4.1-3.1c-0.1,0.1-0.3,0.3-0.5,0.5c-4,3.2-5.5,5.4-5.5,11.3l-0.3-0.7c-2.1-7,4.5-11,5.1-11.8c-0.4-0.7-6.5-5.4-7.7-6
			c-0.8,0.4-0.6,0.3-1.3,0.9c-3.6,3.3-4.7,5.1-4.7,10.9l-0.3-0.7c-0.7-2.1-0.4-4.9,0.6-6.9c1-2,2.8-3.9,4.7-4.9l-7.4-6.5
			c-3.6,1.9-6.2,6.1-6.5,10.1c-0.1,1,0.2,1.2,0.2,2.1c-0.7-1-0.9-2.7-0.6-4c0.3-1.6,0.5-2.8,1.1-3.9c1.1-2.2,2.7-3.9,4.8-5l-6.9-7
			c-0.5,0.5-0.9,0.7-1.4,1.2c-3.8,2.9-5.2,6.4-5.2,11.6l-0.3-0.9c-0.1-0.6-0.1-0.5-0.1-1.1c0-0.9,0-1.8,0.1-2.6
			c0.6-3.8,2.9-7.2,6.2-9l-5.5-7.7c-3.2,0.9-7.4,7.5-7.4,12c-0.8-0.6-0.4-0.4-0.3-1.7c0.2-2.2,0.7-4.2,1.8-6.1
			c0.7-1.2,1.2-1.9,2.1-2.9c0.6-0.7,2.2-2,3.1-2.2c-1.4-2.7-4.6-7.1-4.6-10.3c-0.5,0.3-1.5,1.9-2,2.6c-0.7,1-1.4,1.7-2.2,2.6
			c-4.1,4.9-11.7,9.7-18.9,9.7c-0.5,2-2.4,5.6-3.4,7.4c-0.7,1.4-3.5,6.3-3.6,7.4c9.3,0,14.6-2.4,21.1-7.4c0.8-0.6,1.4-1.4,2.2-1.9
			c-0.3,1.2-3.4,3.9-4.5,4.7c-4.6,3.6-9.9,7-16.2,7.1h-4.3l-6.4,9.7c-0.7,1-1.9,2.1-2.3,3.3c2.9,1.4,10.2,0.7,13.3-0.1
			C358.8,308,363.4,304.9,364.1,304.7L364.1,304.7z"/>
		<path class="st0" d="M239.8,224.5v6c1,0,0.9,0.2,1.9,0.3c3.4,0.2,11.9,0.3,14.9,1v-16.3c0-2.1-0.2-3.2-0.2-5.3l5,0.2v21.8
			c4.2,0,14.7,2.2,16.8,2.2c0-17.8-0.5-36.5-0.5-54.2h-16.6v18.5c-2.1,0-3,0.2-4.8-0.2v-18.2h-16.8
			C239.6,195.2,239.8,209.5,239.8,224.5L239.8,224.5z"/>
		<path class="st0" d="M234,379.8L234,379.8z M233,379.3l0.5,0.1L233,379.3z M233,379.3l-0.5-0.2L233,379.3z M214.3,378.8
			L214.3,378.8C214.4,378.9,214.3,378.9,214.3,378.8z M213.8,378.6L213.8,378.6z M213.8,378.6l-0.5-0.2L213.8,378.6z M252.7,377.9
			c0.3-0.3,0.9,0.4,0.3,0.1C253,378,252.3,378.3,252.7,377.9z M272.4,374.3c-1.2,0-0.4,0-0.7-0.2C273,374.1,272.1,374.1,272.4,374.3
			z M232.6,379.1c-2.5-0.2-8.8-4.4-11-6.5c-2.5-2.5-6.5-7.2-6.8-11c-3.2,0-7.6-0.8-10.9-1.4c-1.4-0.2-2.3-0.5-3.8-0.5
			c0.3,0.7,0.6,2.1,0.9,3c1.3,4.6,5.2,10.1,8.9,13c0.5,0.4,0.7,0.6,1.2,1c0.7,0.5,1.9,1.2,2.3,1.8c-2.5-0.6-8.3-5.4-10-7.5
			c-1.5-1.9-2.4-3-3.5-5.2c-0.7-1.5-2.1-4.6-2.2-6.7c-2-0.2-12.5-3-14.2-3.8c0,2.9,1.1,6.7,2.3,9.2c0.9,2,1.5,3.2,2.9,5l3.5,4.2
			c0.9,0.8,1.4,0.9,2.1,2l0.2,0.2l0.5,0.2l0.2,0.2c2.5,1.3,14.9,2.8,18.3,3.1c5.2,0.4,9.9,0.7,15.1,0.7l5.3-0.2
			c2.6,0.2,7.5-0.2,10.1-0.5c1.8-0.2,3.4-0.3,5-0.5l14.2-2.3c1.7-0.3,7.3-1.5,8.8-2.2c0,0,0.1-0.1,0.2-0.1c2.9-0.1,18.9-6,23.2-8
			l4.3-2c0.9-0.4,7.7-3.7,8.3-4.4c-1.6,0-2.2,0.3-3.8,0.3c-4.4,0-6.9,0.2-11.3-1.2c-2.2-0.7-3.9-1.4-5.9-2.5
			c-7.3-4.1-0.7-5-11.3-1.4c-1.4,0.5-5.8,2-7.1,2.1c0.2,2,6.8,6.5,8.5,7.4c2.8,1.5,8.3,3.4,12.4,3.4v0.2c-3,0-5-0.1-7.5-0.6
			c-2.3-0.5-4.5-1.2-6.4-2c-2.6-1.2-8.7-4.9-9.4-7.4c-1.2,0-5.5,1.1-7.2,1.4c-2,0.4-5.2,1.2-7.4,1.2c0.4,1.5,2.5,3.5,3.5,4.7
			c0.5,0.7,1.4,1.4,2.1,2c3.4,3.2,8.5,5.1,13,6.4c0.1,0,0.3,0.1,0.4,0.1c0.5,0.2,0.2,0,0.5,0.2c-4.1,0-9.8-2.3-13.3-4.3
			c-4.2-2.4-6.3-5-8.8-8.7c-4.5,0.4-9.5,1.2-14.4,1.2c0.2,2.3,4.9,7.8,7.1,9.5c2.5,1.9,4.8,3.5,7.7,4.8l2.2,0.9
			c0.5,0.2,0.4,0.1,0.7,0.5c-1.9-0.2-5.1-1.5-6.7-2.2c-2-0.8-4.1-2.1-5.8-3.3c-1.4-1-3.7-3.1-4.7-4.4c-2-2.6-2-2.9-3.5-5.7
			c-2.4,0-4.8,0-7.2,0c-2.7,0-4.5-0.2-7.2-0.2c0.2,2.4,3.9,8.1,5.9,10.1c1.3,1.4,2.7,2.6,4.2,3.7c2,1.5,2.6,1.7,4.4,2.8L232.6,379.1
			L232.6,379.1z"/>
		<path class="st0" d="M196.6,193.3c0,12.6,7.6,12.2,17.6,18.1c3.1,1.8,4.5,2,4.5,7.5c0,3.6-1.6,4.1-4.1,4.1c-2.3,0-2.2-3.3-2.2-5.8
			c0-1.9,0.2-2.7,0.2-4.6c-2.9,0-5.2,0.2-7.9,0.2c-1.4,0-2.2,0.2-3.8,0.3c-1.3,0-2.2,0.3-3.8,0.3c0,6-0.9,12.7,4.6,15.8
			c7.1,4.1,18.8,3,26,0.1c7.3-2.9,6.9-7.5,6.9-14c0-10.5-8.8-13-17.1-17.2c-3-1.5-5.2-2.3-5.2-6.3c0-3.6,1.4-4.1,3.6-4.1
			c2.6,0,1.9,4.5,1.9,7.7h14.9c0.7,0,0.7-0.3,0.7-1c0-8.4-1.2-12.9-10.7-14.7c-6.9-1.4-15.4-1.3-21,2.2
			C197.7,184.4,196.6,188.6,196.6,193.3L196.6,193.3z"/>
		<path class="st0" d="M142.8,181.1v62.2c0,1.3,1.3,0.3,3.5-0.3c1.3-0.4,2.7-0.8,4.3-1.2c1.8-0.5,7.2-2.2,8.7-2.3v-25
			c2.8,0,7.3-1.2,10.1-1.2c0-1.2,0.2-1.3,0.2-2.6v-8.4c-1,0-1.2,0.2-2.4,0.3c-2.2,0.1-5.8,0.7-7.9,0.7l0.2-11
			c3.9,0,7.4-0.5,11.3-0.5l0.1-7.3c0.1-1,0.5-3.8-0.4-4.2l-26.1,0.2C143.5,180.4,142.8,180.2,142.8,181.1L142.8,181.1z"/>
		<path class="st0" d="M281.5,185.4v5.8l4.8,0.2c1.2,0,1.9,0.3,4.8,0.3c0,1.7,0.3,2.3,0.3,3.8v33.1c0,1.4,0.3,2.2,0.3,3.8
			c0,5.3-1,4.5,3.1,5.3c4,0.8,9.2,2.4,13.2,3.3v-48.5c3.3,0,6.2,0.5,9.6,0.5v-12.7l-35.5-0.2C280.6,180.1,281.5,182.7,281.5,185.4z"
			/>
		<path class="st0" d="M324.7,349.3c-1.2,0-0.4,0-0.7-0.2C325.3,349.1,324.4,349.1,324.7,349.3z M339.1,336.6
			c-0.3,0.3,0.4,0.2-0.7,0.2C338.7,336.6,338,336.6,339.1,336.6z M339.1,336.6l0.5-0.3L339.1,336.6z M352.1,322l-0.5,0.2L352.1,322z
			 M352.5,321.7l-0.5,0.2L352.5,321.7z M353,321.5l-0.5,0.2L353,321.5z M353,321.5L353,321.5z M364.3,304.5l-0.2,0.2
			c-1.4,2.1-8,5.2-10.7,6.3c-2.3,0.9-4.3,1-7.2,1.5c-2.5,0.4-5.6-0.4-7.5-0.8c-1.4,2.1-3.6,4.2-5,5.8c-1.6,1.9-4.9,4.8-5.1,5.7
			c1.8,0.4,3.5,1.1,5.5,1.4c2.9,0.4,3.7,0.3,6.2,0.3c2.3,0,4.3-0.5,6.1-0.9c1.8-0.5,4.5-1.7,5.2-1.7c-1.2,1.7-9.1,3.9-11.6,4.3
			c-2.1,0.3-5.4,0.5-7.5,0.1c-4.1-0.7-4.3-1.3-6.2-1.8l-6.9,6.2c-0.9,0.7-3.9,2.9-4.3,3.6c2.2,0.5,3.5,2.4,10.6,3.3
			c1.5,0.2,5.3,0.2,6.8,0l5.9-1.1c-0.3,0.2,0,0.1-0.6,0.4c-4.7,2.3-14.1,3-19.4,1.3c-2.4-0.7-3.5-1.4-5.5-2.4c-1,0.7-1.9,1.3-3,2.1
			l-6.3,4c-0.9,0.6-2.7,1.4-3.2,2.1c2.7,0.7,3.4,4,16.4,5.5c2.4,0.3,4.8-0.5,6.9-0.5c-0.1,0-0.1,0-0.2,0.1c0,0.1-0.1,0.1-0.2,0.1
			c-1.2,0.5,0.9-0.3-0.3,0.1l-2.6,0.6c-7.1,1.2-13.9,0.5-20.1-3.2c-0.9-0.6-1.5-1.1-2.4-1.7l-13,6.2c0.3,1,0.5,0.9,1.8,1.8
			c0.7,0.6,1.4,1,2.1,1.5c5,3.3,10.3,4.8,17,4.8c3.8,0,3.1-0.1,5.6-1.6c0.9-0.5,1.4-0.9,2.2-1.4l8.7-5.7c0.6-0.4,1.8-1.1,2.2-1.7
			c4-2.7,6.8-5.2,10.3-8.2c0.6-0.6,0.9-0.7,1.6-1.3c1.3-1.3,2.7-2.3,3.3-3.2c0.5-0.7,0.5-0.3,1.2-1.1c2.9-2.7,4.9-5.3,7.2-7.7
			l5.4-6.6c2.4-3.1,10.7-14.3,11.3-17h-0.2L364.3,304.5L364.3,304.5z"/>
		<path class="st0" d="M174.5,235.8c1.5,0,16.8-2.9,16.8-2.9c0-17.9,0.2-35.1,0.2-52.8H175c0,4.8-0.2,8.8-0.2,13.7L174.5,235.8
			L174.5,235.8z"/>
		<path class="st0" d="M141.6,354.1L141.6,354.1z M141.4,353.6l0.2,0.5L141.4,353.6z M141.4,353.6l-0.2-0.2L141.4,353.6z
			 M125.3,341.2l0.2,0.5l0.2,0.5c0.3,0.4,0.3,0.1,0,0.5c2.5,2.4,4.6,4,7.4,6.1l12.2,8.2c1.5,0.9,2.8,1.7,4.2,2.5
			c1.5,0.9,2.9,1.5,4.4,2.3c1.1,0.6,3.4,2.1,4.7,2.2v-0.2l-0.2-0.2l-0.2-0.2c-1.9-1.3-5.6-7.5-6.6-10.2c-1.5-3.7-2.8-10.9-1.3-14.1
			l-10.5-7.7c-0.5-0.4-1-0.9-1.5-1.2c-1.4,3-1.4,9.2-0.8,12.6c0.5,2.8,1.4,5.8,2.6,8.2c0.4,0.9,0.9,1.6,1.1,2.5
			c-2.3-1.6-5.4-10.4-6-14.2c-0.4-2.8-0.4-4.7,0.1-7.5c0.9-4.8,2.3-1.6-4.6-8.5c-0.9-0.9-1.7-1.7-2.6-2.6c-0.5-0.5-0.8-0.8-1.3-1.3
			c-1.1-1.1-0.7-1.1-1.5-1.4c-2.5,5.2-2.6,12.2-1.5,17.8C124.2,337.9,125.2,340.2,125.3,341.2L125.3,341.2z"/>
		<path class="st0" d="M176.4,370.9L176.4,370.9z M176.4,370.9l-0.2-0.2L176.4,370.9z M176.2,370.7l-0.2-0.2L176.2,370.7z
			 M175.9,370.5l-0.2-0.2L175.9,370.5z M175.7,370.2l-0.2-0.2L175.7,370.2z M158.2,363.3l0.2,0.2l0.2,0.2l0.2,0.2
			c0.9,1,2.6,1.5,3.9,2.1c1.5,0.7,2.8,1.2,4.4,1.9c1.5,0.6,2.7,1.1,4.3,1.7c4.6,1.8,14.5,4.9,18.9,5.8l4.8,0.9c0,0,0.1,0,0.2-0.1
			l-0.2-0.2l-0.5-0.2l-0.2-0.2c-1-0.3-3.9-2.8-4.7-3.7l-3.1-3.4c-2.7-3.2-5.4-8.7-5.4-14.1l-10.3-4.1c-0.8-0.4-2.6-1.2-3.4-1.4
			c0,6.3,1.2,11.7,4.8,16.8l3.1,4.3c-1.3-0.7-3.1-2.9-4.1-4.1c-2.5-3.2-4.6-6.5-5.6-10.7c-0.6-2.6-0.7-4.2-0.7-7.5l-11.8-6.7
			c-1.1-0.7-1.4-0.5-1.4,3.8c0,11.3,5.8,16.8,6.2,18.5L158.2,363.3z"/>
		<path class="st0" d="M9.4,368l-1-1.7c-0.3-0.6-0.5-1.1-0.9-1.8c-0.7-1.3-1.3-2.1-2-3.2c-1.4-2-3.5-4-5.5-5.3c0,4.8,1.5,9.3,5,11.8
			c1.4,1,2.2,1.4,4.4,0.9V368L9.4,368z"/>
		<path class="st0" d="M448.6,367.8c0,1.1,0,0.5-0.2,0.7c0.6,0.5,1.2,0.6,2.1,0.5c4.1-0.5,7.5-7.3,7.5-12.7
			c-1.2,0.1-2.1,1.3-2.9,2.1c-2.8,2.8-3.7,4.2-5.5,7.7L448.6,367.8z"/>
		<path class="st0" d="M190.8,261.2h-1.2v-2.6h1.7C192.6,258.6,193.2,261.2,190.8,261.2z M187.7,265.8h1.9v-3.1c2,0,1.1-0.3,2.9,3.1
			h2.2l-1.8-3.6c2.1-0.6,2.9-5.3-2.8-5.3h-2.4V265.8L187.7,265.8z"/>
		<path class="st0" d="M266.1,257.6v8.2c5.1,0,6,0.5,6-1c0-1.1-1.4-0.7-4.1-0.7v-1.9c3.5,0,3.8,0.3,3.8-1c0-1.1-1.2-0.7-3.8-0.7
			v-1.9h4.1c0-2.2,0.6-1.7-5.3-1.7C266.3,256.9,266.2,257.1,266.1,257.6L266.1,257.6z"/>
		<path class="st0" d="M217.4,259.1c0.1,0.8,0.7,2.5,1,3.1h-2.2C216.7,261.4,216.9,259.8,217.4,259.1z M213.4,265.8h1.9
			c0.1-1,0.4-1.1,0.5-2.2h3.1c0.1,1,0.4,1.1,0.5,2.2h2.2c-0.6-1.3-1-3.1-1.6-4.6c-1.6-4.2-0.7-4.3-2.9-4.3c-0.9,0-1,1-1.3,1.8
			C215.1,260.5,213.5,264.3,213.4,265.8z"/>
		<path class="st0" d="M241.9,265.8h2.4c0.3-1.5,1-3.1,1.5-4.7c1.4-4.3,1.9-4.2-0.1-4.2c-1,0-1.2,1.9-1.5,2.9
			c-0.3,0.9-0.9,2.6-0.9,3.6c-1.2-0.9-1.2-6.5-2.9-6.5c-2,0-1.5-0.1-0.1,4.2C240.9,262.7,241.6,264.3,241.9,265.8z"/>
		<path class="st0" d="M161.5,258.6h2.4v7.2h1.9v-7.2h2.6c0-2.2,0.8-1.7-7-1.7V258.6z"/>
		<path class="st0" d="M291.6,265.8c4.9,0,5.8,0.5,5.8-1c0-1.1-1.2-0.7-3.8-0.7v-6.5c0-0.9-0.6-0.7-1.9-0.7V265.8z"/>
		<path class="st0" d="M141.4,260.8c0,3.7,5,3.1,5,0.2C146.4,257.5,141.4,257.5,141.4,260.8z"/>
		<path class="st0" d="M312,260.8c0,3.7,5,3.1,5,0.2C317,257.5,312,257.5,312,260.8z"/>
		<polygon class="st0" points="71.3,203.4 71.3,203.6 71.5,203.4 		"/>
		<path class="st0" d="M365,304v0.3V304z"/>
		<path class="st0" d="M158.9,364h-0.3H158.9z"/>
	</g>
</g>
</svg>
