<?xml version="1.0" encoding="UTF-8" standalone="no"?>
<!-- Creator: CorelDRAW 2017 -->

<svg
   xmlns:dc="http://purl.org/dc/elements/1.1/"
   xmlns:cc="http://creativecommons.org/ns#"
   xmlns:rdf="http://www.w3.org/1999/02/22-rdf-syntax-ns#"
   xmlns:svg="http://www.w3.org/2000/svg"
   xmlns="http://www.w3.org/2000/svg"
   xmlns:sodipodi="http://sodipodi.sourceforge.net/DTD/sodipodi-0.dtd"
   xmlns:inkscape="http://www.inkscape.org/namespaces/inkscape"
   xml:space="preserve"
   width="193"
   height="180"
   version="1.1"
   style="clip-rule:evenodd;fill-rule:evenodd;image-rendering:optimizeQuality;shape-rendering:geometricPrecision;text-rendering:geometricPrecision"
   viewBox="0 0 5106.4585 4762.4999"
   id="svg147"
   sodipodi:docname="icon-tour-price.svg"
   inkscape:version="0.92.1 r15371"><metadata
     id="metadata153"><rdf:RDF><cc:Work
         rdf:about=""><dc:format>image/svg+xml</dc:format><dc:type
           rdf:resource="http://purl.org/dc/dcmitype/StillImage" /><dc:title></dc:title></cc:Work></rdf:RDF></metadata><defs
     id="defs151" /><sodipodi:namedview
     pagecolor="#ffffff"
     bordercolor="#666666"
     borderopacity="1"
     objecttolerance="10"
     gridtolerance="10"
     guidetolerance="10"
     inkscape:pageopacity="0"
     inkscape:pageshadow="2"
     inkscape:window-width="1920"
     inkscape:window-height="1027"
     id="namedview149"
     showgrid="false"
     units="px"
     inkscape:zoom="0.29734127"
     inkscape:cx="561.25984"
     inkscape:cy="396.85039"
     inkscape:window-x="-8"
     inkscape:window-y="-8"
     inkscape:window-maximized="1"
     inkscape:current-layer="svg147" /><g
     id="g145"
     transform="matrix(0.99807572,0,0,0.99811673,-12268.19,-8098.9701)"><metadata
       id="CorelCorpID_0Corel-Layer" /><g
       id="_2894523837632" /><g
       id="_2894523836576" /><g
       id="_2894523836352" /><g
       id="_2894523837504" /><g
       id="_2894523837728" /><g
       id="_2894523834368" /><g
       id="_2894523835040" /><g
       id="_2894523834176" /><g
       id="_2894523834656" /><g
       id="_2894523835968" /><g
       id="_2894523835904" /><g
       id="_2894523898272" /><g
       id="_2894523897664" /><g
       id="_2894523899200" /><g
       id="_2894523898656" /><g
       id="_2894523897312"><g
         id="g142"><g
           id="g134"><path
             d="m 14856.62,8682.41 -1467.52,210.52 c -77.32,11.55 -147.76,49.99 -198.85,109.53 -51.08,59.54 -78.37,135 -78.04,213.19 l 5.53,526.09 c -78.66,-37.53 -154.11,-85.78 -224,-145.76 -169.13,-145.11 -282,-334.83 -317.29,-532.91 -33.7,-187.71 7.82,-361.82 115.92,-487.8 230.99,-269.22 696.89,-250 1039.46,43.93 56.95,48.86 143.53,42.25 192.39,-14.71 v 0 c 48.86,-56.95 42.25,-143.52 -14.7,-192.39 -456.47,-391.65 -1095.53,-397.64 -1424.25,-14.52 -162.88,189.84 -225.77,442.99 -177.69,713.46 46.49,260.11 191.02,505.47 408.47,692.04 122.53,105.13 259.99,184.13 405,235.13 l 6.82,659.04 c 2.14,165.13 74.57,321.66 199.69,429.01 L 15186.22,12721 c 286.48,245.81 719.36,212.72 965.16,-73.76 l 1092.03,-1272.76 c 245.81,-286.48 212.72,-719.35 -73.76,-965.15 L 15310.99,8814.59 c -125.11,-107.36 -290.83,-155.16 -454.37,-132.18 z m 2135.35,1934.01 c 172.58,148.07 192.42,407.8 44.35,580.38 l -1092.78,1273.62 c -148.07,172.58 -407.8,192.42 -580.37,44.35 l -1858.66,-1594.74 c -65.58,-56.27 -104.14,-138.79 -105.08,-224.99 l -6.12,-597.01 c 22.69,1.49 45.38,2.98 68.07,4.47 274.64,6.43 515.29,-94.2 678.17,-284.04 v 0 c 48.87,-56.95 42.25,-143.53 -14.7,-192.39 -56.95,-48.86 -143.53,-42.25 -192.39,14.7 -108.83,126.85 -273.87,193.48 -464.52,188.7 -25.9,-1.24 -51.8,-2.49 -77.82,-5.34 l -6.35,-610.69 c -0.37,-15.3 6.05,-26.27 11.97,-33.17 5.93,-6.91 15.8,-14.92 30.97,-16.88 l 1467.51,-210.52 c 85.35,-12.17 172.77,13.4 238.35,69.67 l 1858.66,1594.74 z"
             id="path130"
             inkscape:connector-curvature="0" /><path
             d="m 14856.62,8682.41 -1467.52,210.52 c -77.32,11.55 -147.76,49.99 -198.85,109.53 -51.08,59.54 -78.37,135 -78.04,213.19 l 5.53,526.09 c -78.66,-37.53 -154.11,-85.78 -224,-145.76 -169.13,-145.11 -282,-334.83 -317.29,-532.91 -33.7,-187.71 7.82,-361.82 115.92,-487.8 230.99,-269.22 696.89,-250 1039.46,43.93 56.95,48.86 143.53,42.25 192.39,-14.71 v 0 c 48.86,-56.95 42.25,-143.52 -14.7,-192.39 -456.47,-391.65 -1095.53,-397.64 -1424.25,-14.52 -162.88,189.84 -225.77,442.99 -177.69,713.46 46.49,260.11 191.02,505.47 408.47,692.04 122.53,105.13 259.99,184.13 405,235.13 l 6.82,659.04 c 2.14,165.13 74.57,321.66 199.69,429.01 L 15186.22,12721 c 286.48,245.81 719.36,212.72 965.16,-73.76 l 1092.03,-1272.76 c 245.81,-286.48 212.72,-719.35 -73.76,-965.15 L 15310.99,8814.59 c -125.11,-107.36 -290.83,-155.16 -454.37,-132.18 z m 2135.35,1934.01 c 172.58,148.07 192.42,407.8 44.35,580.38 l -1092.78,1273.62 c -148.07,172.58 -407.8,192.42 -580.37,44.35 l -1858.66,-1594.74 c -65.58,-56.27 -104.14,-138.79 -105.08,-224.99 l -6.12,-597.01 c 22.69,1.49 45.38,2.98 68.07,4.47 274.64,6.43 515.29,-94.2 678.17,-284.04 v 0 c 48.87,-56.95 42.25,-143.53 -14.7,-192.39 -56.95,-48.86 -143.53,-42.25 -192.39,14.7 -108.83,126.85 -273.87,193.48 -464.52,188.7 -25.9,-1.24 -51.8,-2.49 -77.82,-5.34 l -6.35,-610.69 c -0.37,-15.3 6.05,-26.27 11.97,-33.17 5.93,-6.91 15.8,-14.92 30.97,-16.88 l 1467.51,-210.52 c 85.35,-12.17 172.77,13.4 238.35,69.67 l 1858.66,1594.74 z"
             id="path132"
             inkscape:connector-curvature="0" /></g><g
           id="g140"><path
             d="m 15201.86,10530.68 -195.45,227.81 c -68.86,80.24 -190.7,89.56 -270.95,20.7 -80.25,-68.85 -89.57,-190.7 -20.71,-270.95 l 344.27,-401.24 c 48.86,-56.95 42.25,-143.53 -14.7,-192.39 -56.95,-48.87 -143.53,-42.25 -192.39,14.7 l -157.7,183.8 -134.61,-115.5 c -56.95,-48.86 -143.52,-42.25 -192.39,14.71 -48.86,56.95 -42.25,143.52 14.7,192.39 l 134.61,115.49 -8.88,10.36 c -167.32,195.01 -144.04,489.14 50.11,655.73 195.01,167.32 489.15,144.03 655.73,-50.12 l 195.46,-227.8 c 68.85,-80.25 190.7,-89.56 270.95,-20.71 80.25,68.86 89.56,190.7 20.71,270.95 l -350.94,409.01 c -48.86,56.95 -42.25,143.53 14.7,192.39 56.95,48.87 143.53,42.25 192.39,-14.7 l 164.36,-191.56 137.2,117.72 c 56.95,48.86 143.53,42.24 192.39,-14.71 48.87,-56.95 42.25,-143.52 -14.7,-192.39 l -137.2,-117.71 10.37,-12.08 c 0.74,-0.87 1.48,-1.73 2.22,-2.59 162.51,-194.65 139.47,-485.58 -53.82,-651.42 -195.01,-167.32 -489.15,-144.04 -655.73,50.11 z"
             id="path136"
             inkscape:connector-curvature="0" /><path
             d="m 15201.86,10530.68 -195.45,227.81 c -68.86,80.24 -190.7,89.56 -270.95,20.7 -80.25,-68.85 -89.57,-190.7 -20.71,-270.95 l 344.27,-401.24 c 48.86,-56.95 42.25,-143.53 -14.7,-192.39 -56.95,-48.87 -143.53,-42.25 -192.39,14.7 l -157.7,183.8 -134.61,-115.5 c -56.95,-48.86 -143.52,-42.25 -192.39,14.71 -48.86,56.95 -42.25,143.52 14.7,192.39 l 134.61,115.49 -8.88,10.36 c -167.32,195.01 -144.04,489.14 50.11,655.73 195.01,167.32 489.15,144.03 655.73,-50.12 l 195.46,-227.8 c 68.85,-80.25 190.7,-89.56 270.95,-20.71 80.25,68.86 89.56,190.7 20.71,270.95 l -350.94,409.01 c -48.86,56.95 -42.25,143.53 14.7,192.39 56.95,48.87 143.53,42.25 192.39,-14.7 l 164.36,-191.56 137.2,117.72 c 56.95,48.86 143.53,42.24 192.39,-14.71 48.87,-56.95 42.25,-143.52 -14.7,-192.39 l -137.2,-117.71 10.37,-12.08 c 0.74,-0.87 1.48,-1.73 2.22,-2.59 162.51,-194.65 139.47,-485.58 -53.82,-651.42 -195.01,-167.32 -489.15,-144.04 -655.73,50.11 z"
             id="path138"
             inkscape:connector-curvature="0" /></g></g></g></g></svg>