<?xml version="1.0" encoding="UTF-8" standalone="no"?>
<!-- Creator: CorelDRAW 2017 -->

<svg
   xmlns:dc="http://purl.org/dc/elements/1.1/"
   xmlns:cc="http://creativecommons.org/ns#"
   xmlns:rdf="http://www.w3.org/1999/02/22-rdf-syntax-ns#"
   xmlns:svg="http://www.w3.org/2000/svg"
   xmlns="http://www.w3.org/2000/svg"
   xmlns:sodipodi="http://sodipodi.sourceforge.net/DTD/sodipodi-0.dtd"
   xmlns:inkscape="http://www.inkscape.org/namespaces/inkscape"
   xml:space="preserve"
   width="179"
   height="179"
   version="1.1"
   style="clip-rule:evenodd;fill-rule:evenodd;image-rendering:optimizeQuality;shape-rendering:geometricPrecision;text-rendering:geometricPrecision"
   viewBox="0 0 4736.0418 4736.0416"
   id="svg164"
   sodipodi:docname="icon-tour-time.svg"
   inkscape:version="0.92.1 r15371"><metadata
     id="metadata170"><rdf:RDF><cc:Work
         rdf:about=""><dc:format>image/svg+xml</dc:format><dc:type
           rdf:resource="http://purl.org/dc/dcmitype/StillImage" /><dc:title></dc:title></cc:Work></rdf:RDF></metadata><defs
     id="defs168" /><sodipodi:namedview
     pagecolor="#ffffff"
     bordercolor="#666666"
     borderopacity="1"
     objecttolerance="10"
     gridtolerance="10"
     guidetolerance="10"
     inkscape:pageopacity="0"
     inkscape:pageshadow="2"
     inkscape:window-width="1920"
     inkscape:window-height="1027"
     id="namedview166"
     showgrid="false"
     units="px"
     inkscape:zoom="0.29734127"
     inkscape:cx="561.25984"
     inkscape:cy="396.85039"
     inkscape:window-x="-8"
     inkscape:window-y="-8"
     inkscape:window-maximized="1"
     inkscape:current-layer="svg164" /><g
     id="g162"
     transform="matrix(0.99888253,0,0,0.99888253,-12465.385,-8120.2467)"><metadata
       id="CorelCorpID_0Corel-Layer" /><g
       id="g160"><path
         d="m 14850,8129.33 c -1309.35,0 -2370.67,1061.32 -2370.67,2370.67 0,1309.35 1061.32,2370.67 2370.67,2370.67 1309.35,0 2370.67,-1061.47 2370.67,-2370.67 0,-1309.2 -1061.32,-2370.67 -2370.67,-2370.67 z m 2.17,752.59 c 80.5,0 145.75,65.25 145.75,145.75 h 0.25 v 1476.92 l 916.7,768.69 -0.36,0.51 c 39.66,28.18 65.53,74.49 65.53,126.84 0,85.87 -69.61,155.48 -155.47,155.48 -33.52,0 -64.56,-10.61 -89.95,-28.64 l -0.36,0.51 -11.41,-9.76 -0.04,-0.03 -1011.79,-865.28 -4.59,-1625.24 c 0,-80.5 65.25,-145.75 145.74,-145.75 z m -2.17,3687.82 c -1143.1,0 -2069.74,-926.63 -2069.74,-2069.74 0,-1143.1 926.64,-2069.74 2069.74,-2069.74 1143.11,0 2069.74,926.64 2069.74,2069.74 0,1143.11 -926.63,2069.74 -2069.74,2069.74 z"
         id="path156"
         inkscape:connector-curvature="0" /><path
         d="m 14850,8129.33 c -1309.35,0 -2370.67,1061.32 -2370.67,2370.67 0,1309.35 1061.32,2370.67 2370.67,2370.67 1309.35,0 2370.67,-1061.47 2370.67,-2370.67 0,-1309.2 -1061.32,-2370.67 -2370.67,-2370.67 z m 2.17,752.59 c 80.5,0 145.75,65.25 145.75,145.75 h 0.25 v 1476.92 l 916.7,768.69 -0.36,0.51 c 39.66,28.18 65.53,74.49 65.53,126.84 0,85.87 -69.61,155.48 -155.47,155.48 -33.52,0 -64.56,-10.61 -89.95,-28.64 l -0.36,0.51 -11.41,-9.76 -0.04,-0.03 -1011.79,-865.28 -4.59,-1625.24 c 0,-80.5 65.25,-145.75 145.74,-145.75 z m -2.17,3687.82 c -1143.1,0 -2069.74,-926.63 -2069.74,-2069.74 0,-1143.1 926.64,-2069.74 2069.74,-2069.74 1143.11,0 2069.74,926.64 2069.74,2069.74 0,1143.11 -926.63,2069.74 -2069.74,2069.74 z"
         id="path158"
         inkscape:connector-curvature="0" /></g></g></svg>