<!-- Generator: Adobe Illustrator 21.1.0, SVG Export Plug-In  -->
<svg version="1.1"
	 xmlns="http://www.w3.org/2000/svg" xmlns:xlink="http://www.w3.org/1999/xlink" xmlns:a="http://ns.adobe.com/AdobeSVGViewerExtensions/3.0/"
	 x="0px" y="0px" width="595.3px" height="595.3px" viewBox="0 0 595.3 595.3" style="enable-background:new 0 0 595.3 595.3;"
	 xml:space="preserve">
<defs>
</defs>
<g>
	<g>
		<path d="M508.1,87.2C451.9,31,377.1,0,297.6,0S143.4,31,87.2,87.2C31,143.4,0,218.1,0,297.6c0,79.5,31,154.3,87.2,210.5
			c56.2,56.2,131,87.2,210.5,87.2c79.5,0,154.2-31,210.5-87.2c56.2-56.2,87.2-131,87.2-210.5C595.3,218.1,564.3,143.4,508.1,87.2
			L508.1,87.2z M494.9,495c-52.7,52.7-122.8,81.7-197.3,81.7c-74.5,0-144.6-29-197.3-81.7c-52.7-52.7-81.7-122.8-81.7-197.3
			c0-74.5,29-144.6,81.7-197.3s122.8-81.7,197.3-81.7c74.5,0,144.6,29,197.3,81.7c52.7,52.7,81.7,122.8,81.7,197.3
			C576.7,372.2,547.6,442.3,494.9,495z"/>
		<path d="M500,133.7c-3.2-4-9.1-4.6-13.1-1.4c-4,3.2-4.6,9.1-1.4,13.1c34.8,42.9,53.9,96.9,53.9,152.3c0,64.6-25.2,125.3-70.8,171
			c-45.7,45.7-106.4,70.8-171,70.8c-59.6,0-116.9-21.9-161.2-61.6c-3.8-3.4-9.7-3.1-13.1,0.7c-3.4,3.8-3.1,9.7,0.7,13.1
			c47.8,42.8,109.4,66.3,173.6,66.3c69.6,0,135-27.1,184.2-76.3c49.2-49.2,76.3-114.6,76.3-184.2C558.1,238.1,537.4,179.8,500,133.7
			L500,133.7L500,133.7z"/>
		<path d="M55.8,297.6c0-133.3,108.5-241.8,241.8-241.8c59.6,0,116.8,21.9,161.2,61.6c3.8,3.4,9.7,3.1,13.1-0.7
			c3.4-3.8,3.1-9.7-0.7-13.1c-47.8-42.8-109.4-66.3-173.6-66.3c-69.6,0-135,27.1-184.1,76.3c-49.2,49.2-76.3,114.6-76.3,184.1
			c0,59.6,20.6,117.8,58.1,164c1.8,2.3,4.5,3.4,7.2,3.4c2.1,0,4.1-0.7,5.9-2.1c4-3.2,4.6-9.1,1.4-13.1C75,407,55.8,353,55.8,297.6
			L55.8,297.6L55.8,297.6z"/>
	</g>
	<g>
		<path d="M346.9,204.2c8.6,0,19.5,1.9,30.4,7.8l20.2-48.7c-14.4-7.8-38.5-14.4-61.1-14.4c-59.6,0-88,34.7-88,77.5v12.1h-28v52.2h28
			v155.7h77.1V290.6h39.7l8.6-52.2h-48.3v-8.2C325.4,210.8,332.1,204.2,346.9,204.2L346.9,204.2z"/>
	</g>
</g>
</svg>
