<?xml version="1.0" encoding="UTF-8" standalone="no"?>
<!-- Generator: Adobe Illustrator 21.1.0, SVG Export Plug-In  -->

<svg
   xmlns:dc="http://purl.org/dc/elements/1.1/"
   xmlns:cc="http://creativecommons.org/ns#"
   xmlns:rdf="http://www.w3.org/1999/02/22-rdf-syntax-ns#"
   xmlns:svg="http://www.w3.org/2000/svg"
   xmlns="http://www.w3.org/2000/svg"
   xmlns:sodipodi="http://sodipodi.sourceforge.net/DTD/sodipodi-0.dtd"
   xmlns:inkscape="http://www.inkscape.org/namespaces/inkscape"
   version="1.1"
   x="0px"
   y="0px"
   width="100"
   height="100"
   viewBox="0 0 100 100"
   xml:space="preserve"
   id="svg57"
   sodipodi:docname="icon-mail.svg"
   inkscape:version="0.92.1 r15371"><metadata
     id="metadata61"><rdf:RDF><cc:Work
         rdf:about=""><dc:format>image/svg+xml</dc:format><dc:type
           rdf:resource="http://purl.org/dc/dcmitype/StillImage" /><dc:title></dc:title></cc:Work></rdf:RDF></metadata><sodipodi:namedview
     pagecolor="#ffffff"
     bordercolor="#666666"
     borderopacity="1"
     objecttolerance="10"
     gridtolerance="10"
     guidetolerance="10"
     inkscape:pageopacity="0"
     inkscape:pageshadow="2"
     inkscape:window-width="1920"
     inkscape:window-height="1027"
     id="namedview59"
     showgrid="false"
     inkscape:zoom="1.4412901"
     inkscape:cx="297.64999"
     inkscape:cy="297.64999"
     inkscape:window-x="-8"
     inkscape:window-y="-8"
     inkscape:window-maximized="1"
     inkscape:current-layer="svg57" /><defs
     id="defs10" /><g
     id="g55"
     transform="matrix(0.16795432,0,0,0.16798253,0,1.2207031e-5)"><g
       id="g18"><path
         d="M 508.1,87.2 C 451.9,31 377.1,0 297.6,0 218.1,0 143.4,31 87.2,87.2 31,143.4 0,218.1 0,297.6 c 0,79.5 31,154.3 87.2,210.5 56.2,56.2 131,87.2 210.5,87.2 79.5,0 154.2,-31 210.5,-87.2 56.2,-56.2 87.2,-131 87.2,-210.5 C 595.3,218.1 564.3,143.4 508.1,87.2 Z M 494.9,495 C 442.2,547.7 372.1,576.7 297.6,576.7 223.1,576.7 153,547.7 100.3,495 47.6,442.3 18.6,372.2 18.6,297.7 c 0,-74.5 29,-144.6 81.7,-197.3 52.7,-52.7 122.8,-81.7 197.3,-81.7 74.5,0 144.6,29 197.3,81.7 52.7,52.7 81.7,122.8 81.7,197.3 0.1,74.5 -29,144.6 -81.7,197.3 z"
         id="path12"
         inkscape:connector-curvature="0" /><path
         d="m 500,133.7 c -3.2,-4 -9.1,-4.6 -13.1,-1.4 -4,3.2 -4.6,9.1 -1.4,13.1 34.8,42.9 53.9,96.9 53.9,152.3 0,64.6 -25.2,125.3 -70.8,171 -45.7,45.7 -106.4,70.8 -171,70.8 -59.6,0 -116.9,-21.9 -161.2,-61.6 -3.8,-3.4 -9.7,-3.1 -13.1,0.7 -3.4,3.8 -3.1,9.7 0.7,13.1 47.8,42.8 109.4,66.3 173.6,66.3 69.6,0 135,-27.1 184.2,-76.3 49.2,-49.2 76.3,-114.6 76.3,-184.2 0,-59.4 -20.7,-117.7 -58.1,-163.8 z"
         id="path14"
         inkscape:connector-curvature="0" /><path
         d="m 55.8,297.6 c 0,-133.3 108.5,-241.8 241.8,-241.8 59.6,0 116.8,21.9 161.2,61.6 3.8,3.4 9.7,3.1 13.1,-0.7 3.4,-3.8 3.1,-9.7 -0.7,-13.1 C 423.4,60.8 361.8,37.3 297.6,37.3 c -69.6,0 -135,27.1 -184.1,76.3 -49.2,49.2 -76.3,114.6 -76.3,184.1 0,59.6 20.6,117.8 58.1,164 1.8,2.3 4.5,3.4 7.2,3.4 2.1,0 4.1,-0.7 5.9,-2.1 4,-3.2 4.6,-9.1 1.4,-13.1 C 75,407 55.8,353 55.8,297.6 Z"
         id="path16"
         inkscape:connector-curvature="0" /></g><g
       id="_2858536795120_1_" /><g
       id="_2858536794672_1_" /><g
       id="_2858536793712_1_" /><g
       id="_2858536793072_1_" /><g
       id="_2858536794192_1_" /><g
       id="_2858536794160_1_" /><g
       id="_2858536793424_1_" /><g
       id="_2858536794416_1_" /><g
       id="_2858536792464_1_" /><g
       id="_2858536791408_1_" /><g
       id="_2858536791632_1_" /><g
       id="_2858536791952_1_" /><g
       id="_2858536792304_1_" /><g
       id="_2858536790448_1_" /><g
       id="_2858536791120_1_" /><g
       id="_2858536788688_1_" /><g
       id="_2858536789584_1_" /><g
       id="_2858536790032_1_" /><g
       id="_2858536789232_1_" /><g
       id="_2858536789360_1_" /><g
       id="_2858536788400_1_" /><g
       id="_2894114495808_1_" /><g
       id="_2858776115488_1_" /><g
       id="_2858725527088_1_" /><g
       id="_2893703848224_1_" /><g
       id="_2893703855872_1_" /><g
       id="_2858726162736_1_" /><g
       id="_2858726156528_1_" /><g
       id="_2858726155216_1_" /><g
       id="_2858726140960_1_" /><g
       id="mail_1_"><g
         id="g52"><path
           d="m 437.1,188 h -279 c -11,0 -19.9,8.9 -19.9,19.9 v 179.4 c 0,11 8.9,19.9 19.9,19.9 h 279 c 11,0 19.9,-8.9 19.9,-19.9 V 207.9 C 457.1,197 448.1,188 437.1,188 Z M 419.2,208 297.6,327.5 177,208 Z M 158.1,387.3 V 218 l 95.5,95.5 -75,73.8 z m 49.7,0 60.6,-59.1 15.7,15.7 c 7.8,7.8 20.4,7.8 28.2,0 l 15.3,-15.3 60.6,58.6 H 207.8 Z m 229.3,0 h -19.3 l -75,-73.8 94.3,-94.3 z"
           id="path50"
           inkscape:connector-curvature="0" /></g></g></g></svg>