<?xml version="1.0" encoding="UTF-8" standalone="no"?>
<!-- Generator: Adobe Illustrator 21.1.0, SVG Export Plug-In  -->

<svg
   xmlns:dc="http://purl.org/dc/elements/1.1/"
   xmlns:cc="http://creativecommons.org/ns#"
   xmlns:rdf="http://www.w3.org/1999/02/22-rdf-syntax-ns#"
   xmlns:svg="http://www.w3.org/2000/svg"
   xmlns="http://www.w3.org/2000/svg"
   xmlns:sodipodi="http://sodipodi.sourceforge.net/DTD/sodipodi-0.dtd"
   xmlns:inkscape="http://www.inkscape.org/namespaces/inkscape"
   version="1.1"
   x="0px"
   y="0px"
   width="100"
   height="100"
   viewBox="0 0 100 100"
   xml:space="preserve"
   id="svg79"
   sodipodi:docname="icon-social-fb.svg"
   inkscape:version="0.92.1 r15371"><metadata
     id="metadata83"><rdf:RDF><cc:Work
         rdf:about=""><dc:format>image/svg+xml</dc:format><dc:type
           rdf:resource="http://purl.org/dc/dcmitype/StillImage" /><dc:title></dc:title></cc:Work></rdf:RDF></metadata><sodipodi:namedview
     pagecolor="#ffffff"
     bordercolor="#666666"
     borderopacity="1"
     objecttolerance="10"
     gridtolerance="10"
     guidetolerance="10"
     inkscape:pageopacity="0"
     inkscape:pageshadow="2"
     inkscape:window-width="1920"
     inkscape:window-height="1027"
     id="namedview81"
     showgrid="false"
     inkscape:zoom="0.39643878"
     inkscape:cx="297.64999"
     inkscape:cy="297.64999"
     inkscape:window-x="-8"
     inkscape:window-y="-8"
     inkscape:window-maximized="1"
     inkscape:current-layer="svg79" /><defs
     id="defs63" /><g
     id="g77"
     transform="matrix(0.16795432,0,0,0.16798253,0,6.7220703e-4)"><g
       id="g71"><path
         d="M 508.1,87.2 C 451.9,31 377.1,0 297.6,0 218.1,0 143.4,31 87.2,87.2 31,143.4 0,218.1 0,297.6 c 0,79.5 31,154.3 87.2,210.5 56.2,56.2 131,87.2 210.5,87.2 79.5,0 154.2,-31 210.5,-87.2 56.2,-56.2 87.2,-131 87.2,-210.5 C 595.3,218.1 564.3,143.4 508.1,87.2 Z M 494.9,495 C 442.2,547.7 372.1,576.7 297.6,576.7 223.1,576.7 153,547.7 100.3,495 47.6,442.3 18.6,372.2 18.6,297.7 c 0,-74.5 29,-144.6 81.7,-197.3 52.7,-52.7 122.8,-81.7 197.3,-81.7 74.5,0 144.6,29 197.3,81.7 52.7,52.7 81.7,122.8 81.7,197.3 0.1,74.5 -29,144.6 -81.7,197.3 z"
         id="path65"
         inkscape:connector-curvature="0" /><path
         d="m 500,133.7 c -3.2,-4 -9.1,-4.6 -13.1,-1.4 -4,3.2 -4.6,9.1 -1.4,13.1 34.8,42.9 53.9,96.9 53.9,152.3 0,64.6 -25.2,125.3 -70.8,171 -45.7,45.7 -106.4,70.8 -171,70.8 -59.6,0 -116.9,-21.9 -161.2,-61.6 -3.8,-3.4 -9.7,-3.1 -13.1,0.7 -3.4,3.8 -3.1,9.7 0.7,13.1 47.8,42.8 109.4,66.3 173.6,66.3 69.6,0 135,-27.1 184.2,-76.3 49.2,-49.2 76.3,-114.6 76.3,-184.2 0,-59.4 -20.7,-117.7 -58.1,-163.8 z"
         id="path67"
         inkscape:connector-curvature="0" /><path
         d="m 55.8,297.6 c 0,-133.3 108.5,-241.8 241.8,-241.8 59.6,0 116.8,21.9 161.2,61.6 3.8,3.4 9.7,3.1 13.1,-0.7 3.4,-3.8 3.1,-9.7 -0.7,-13.1 C 423.4,60.8 361.8,37.3 297.6,37.3 c -69.6,0 -135,27.1 -184.1,76.3 -49.2,49.2 -76.3,114.6 -76.3,184.1 0,59.6 20.6,117.8 58.1,164 1.8,2.3 4.5,3.4 7.2,3.4 2.1,0 4.1,-0.7 5.9,-2.1 4,-3.2 4.6,-9.1 1.4,-13.1 C 75,407 55.8,353 55.8,297.6 Z"
         id="path69"
         inkscape:connector-curvature="0" /></g><g
       id="g75"><path
         d="m 346.9,204.2 c 8.6,0 19.5,1.9 30.4,7.8 l 20.2,-48.7 c -14.4,-7.8 -38.5,-14.4 -61.1,-14.4 -59.6,0 -88,34.7 -88,77.5 v 12.1 h -28 v 52.2 h 28 v 155.7 h 77.1 V 290.6 h 39.7 l 8.6,-52.2 h -48.3 v -8.2 c -0.1,-19.4 6.6,-26 21.4,-26 z"
         id="path73"
         inkscape:connector-curvature="0" /></g></g></svg>