<?xml version="1.0" encoding="UTF-8" standalone="no"?>
<svg
   xmlns:dc="http://purl.org/dc/elements/1.1/"
   xmlns:cc="http://creativecommons.org/ns#"
   xmlns:rdf="http://www.w3.org/1999/02/22-rdf-syntax-ns#"
   xmlns:svg="http://www.w3.org/2000/svg"
   xmlns="http://www.w3.org/2000/svg"
   xmlns:sodipodi="http://sodipodi.sourceforge.net/DTD/sodipodi-0.dtd"
   xmlns:inkscape="http://www.inkscape.org/namespaces/inkscape"
   xml:space="preserve"
   width="150"
   height="100"
   version="1.1"
   style="clip-rule:evenodd;fill-rule:evenodd;image-rendering:optimizeQuality;shape-rendering:geometricPrecision;text-rendering:geometricPrecision"
   viewBox="0 0 3968.75 2645.8333"
   id="svg89"
   sodipodi:docname="icon-tour-lvl.svg"
   inkscape:version="0.92.1 r15371"><metadata
     id="metadata95"><rdf:RDF><cc:Work
         rdf:about=""><dc:format>image/svg+xml</dc:format><dc:type
           rdf:resource="http://purl.org/dc/dcmitype/StillImage" /><dc:title></dc:title></cc:Work></rdf:RDF></metadata><defs
     id="defs93" /><sodipodi:namedview
     pagecolor="#ffffff"
     bordercolor="#666666"
     borderopacity="1"
     objecttolerance="10"
     gridtolerance="10"
     guidetolerance="10"
     inkscape:pageopacity="0"
     inkscape:pageshadow="2"
     inkscape:window-width="1920"
     inkscape:window-height="1027"
     id="namedview91"
     showgrid="false"
     units="px"
     inkscape:zoom="0.29734127"
     inkscape:cx="561.25984"
     inkscape:cy="396.85039"
     inkscape:window-x="-8"
     inkscape:window-y="-8"
     inkscape:window-maximized="1"
     inkscape:current-layer="svg89" /><g
     id="g87"
     transform="matrix(0.98755095,0,0,0.98752024,-12680.757,-9046.0415)"><metadata
       id="CorelCorpID_0Corel-Layer" /><g
       id="g49" /><g
       id="_2894108934128" /><g
       id="_2894108933968" /><g
       id="_2894108983888" /><g
       id="_2894108984496" /><g
       id="_2894108985392" /><g
       id="_2894108985648" /><g
       id="_2894108984208" /><g
       id="_2894108982864" /><g
       id="_2894108982672" /><g
       id="_2894108982960" /><g
       id="_2894108983344" /><g
       id="_2894108979856" /><g
       id="_2894108980176" /><g
       id="_2894108979760" /><g
       id="_2894108981072" /><g
       id="_2894108979728" /><g
       id="_2894108980560" /><g
       id="_2894108977968" /><g
       id="_2894108978704" /><g
       id="_2894108978352" /><g
       id="_2894108978160" /><g
       id="_2894108977904" /><g
       id="_2894108978096" /><g
       id="_2894108976112" /><g
       id="_2894108976784" /><g
       id="_2894108976368" /><g
       id="_2894108976560" /><g
       id="_2894108974832" /><g
       id="_2894108971824" /><g
       id="_2894108972240"><g
         id="g84"><g
           id="g82"><path
             d="m 13063.88,10946.42 c -123.24,0 -223.27,99.96 -223.27,223.27 v 446.56 c 0,123.28 100.03,223.38 223.28,223.38 123.26,0 223.29,-100.09 223.29,-223.38 l -0.01,-446.56 c 0,-123.31 -100.06,-223.27 -223.29,-223.27 z m 893.07,-446.53 c -123.26,0 -223.25,99.97 -223.25,223.25 v 893.08 c 0,123.28 100.03,223.25 223.25,223.25 123.22,0 223.28,-99.97 223.28,-223.25 l -0.01,-893.08 c 0,-123.28 -100.03,-223.25 -223.27,-223.25 z m 893.05,-446.53 c -123.25,0 -223.25,100.02 -223.25,223.28 v 1339.62 c 0,123.28 100.03,223.25 223.25,223.25 123.18,0 223.28,-99.97 223.28,-223.25 V 10276.6 c 0,-123.24 -100.1,-223.24 -223.28,-223.24 z m 893.05,-446.52 c -123.16,0 -223.25,100.02 -223.25,223.24 v 1786.14 c 0,123.28 100.09,223.39 223.25,223.39 123.19,0 223.29,-100.09 223.29,-223.39 V 9830.08 c 0,-123.25 -100.07,-223.24 -223.29,-223.24 z m 893.09,-446.48 c -123.18,0 -223.28,99.94 -223.28,223.15 v 2232.68 c 0,123.28 100.09,223.38 223.28,223.38 123.2,0 223.25,-100.09 223.25,-223.38 V 9383.55 c 0,-123.25 -100.03,-223.19 -223.25,-223.19 z"
             id="path80"
             inkscape:connector-curvature="0" /></g></g></g></g></svg>