<?xml version="1.0" encoding="UTF-8" standalone="no"?>
<svg
   xmlns:dc="http://purl.org/dc/elements/1.1/"
   xmlns:cc="http://creativecommons.org/ns#"
   xmlns:rdf="http://www.w3.org/1999/02/22-rdf-syntax-ns#"
   xmlns:svg="http://www.w3.org/2000/svg"
   xmlns="http://www.w3.org/2000/svg"
   xmlns:sodipodi="http://sodipodi.sourceforge.net/DTD/sodipodi-0.dtd"
   xmlns:inkscape="http://www.inkscape.org/namespaces/inkscape"
   viewBox="0 0 287.00001 300.00001"
   version="1.1"
   id="svg16"
   sodipodi:docname="icon-tour-climb.svg"
   width="287"
   height="300"
   inkscape:version="0.92.1 r15371">
  <metadata
     id="metadata22">
    <rdf:RDF>
      <cc:Work
         rdf:about="">
        <dc:format>image/svg+xml</dc:format>
        <dc:type
           rdf:resource="http://purl.org/dc/dcmitype/StillImage" />
        <dc:title></dc:title>
      </cc:Work>
    </rdf:RDF>
  </metadata>
  <defs
     id="defs20" />
  <sodipodi:namedview
     pagecolor="#ffffff"
     bordercolor="#666666"
     borderopacity="1"
     objecttolerance="10"
     gridtolerance="10"
     guidetolerance="10"
     inkscape:pageopacity="0"
     inkscape:pageshadow="2"
     inkscape:window-width="1920"
     inkscape:window-height="1027"
     id="namedview18"
     showgrid="false"
     inkscape:zoom="2.8486718"
     inkscape:cx="97.062777"
     inkscape:cy="149.27448"
     inkscape:window-x="-8"
     inkscape:window-y="-8"
     inkscape:window-maximized="1"
     inkscape:current-layer="svg16" />
  <path
     d="m 79.583453,176.54787 41.584377,21.39891 11.45196,-27.73074 -13.98463,-7.19638 1.1425,-3.78993 -5.01941,-0.9054 C 103.82661,156.35117 96.940653,147.39877 95.856078,141.34882 L 86.873876,91.238065 107.65358,139.24519 a 12.483602,12.450496 0 0 0 9.23887,7.3169 l 49.07853,8.85579 c 6.76711,1.22214 13.27656,-3.25406 14.50694,-10.0351 1.22739,-6.76609 -3.27669,-13.24334 -10.06178,-14.46847 l -42.49219,-7.66751 -18.81728,-43.474147 24.99916,31.946977 6.60533,-21.902913 C 143.67227,79.998754 138.0916,69.645918 128.24753,66.692661 L 96.461283,57.157573 A 18.505692,18.456615 0 0 0 85.236028,57.329888 L 85.864203,55.67945 C 90.035723,44.721022 84.51098,32.463758 73.522414,28.303301 L 66.778273,25.749455 51.405466,68.215605 A 5.9941264,5.9782299 0 0 1 43.6906,71.792384 l -22.103965,-8.153581 -3.38755,8.899614 -4.949499,-1.874546 A 5.0963057,5.0827903 0 0 0 6.6772196,73.611152 L 0.33155496,90.282863 A 5.0963057,5.0827903 0 0 0 3.2866733,96.8378 l 4.9494985,1.874547 -2.5596377,6.723273 c -4.1715205,10.95843 1.3532224,23.21569 12.3417879,27.37615 l 13.739952,5.20231 c 7.905615,2.9941 16.485345,0.98011 22.230798,-4.46724 l -6.322694,20.96564 a 14.925395,14.885812 0 0 0 -1.681791,11.33892 l 13.896746,54.98637 -6.345665,62.3461 c -0.894825,8.78806 6.013101,16.45059 14.9214,16.45059 7.593026,0 14.101477,-5.73719 14.884448,-13.43259 l 6.611316,-64.95872 a 14.949363,14.909717 0 0 0 -0.377504,-5.16048 z m 81.317187,40.2659 -18.59558,45.02896 c 3.28769,5.7093 10.09574,8.75319 16.78196,7.00514 8.00349,-2.09168 12.7912,-10.25821 10.69295,-18.24047 z"
     id="path10"
     inkscape:connector-curvature="0"
     style="stroke-width:0.99736303" />
  <ellipse
     cx="127.7282"
     cy="27.480572"
     id="circle12"
     rx="27.553806"
     ry="27.480734"
     style="stroke-width:0.99736303" />
  <path
     d="m 185.48435,125.90124 9.78714,-23.69777 c 2.10124,-5.085783 -0.33057,-10.907634 -5.43087,-13.003302 -5.1003,-2.095667 -10.93763,0.330686 -13.03787,5.416464 l -9.72622,23.551358 5.47381,0.98807 c 4.97246,0.89644 9.4396,3.25008 12.93401,6.74518 z m -17.27831,41.67131 c -2.87422,0 -2.94813,-0.13546 -20.19148,-3.24708 L 97.665701,286.24271 c -2.10124,5.08677 0.330566,10.90763 5.430869,13.0033 5.1003,2.09666 10.93763,-0.33069 13.03787,-5.41647 l 52.14251,-126.25997 c -0.025,0 -0.0479,0.003 -0.0709,0.003 z m 116.49198,7.25018 a 3.3126487,3.3038635 0 0 0 -3.70713,1.22712 l -14.02358,19.5911 a 73.789074,73.593385 0 0 1 -13.89974,14.65772 l -24.4349,19.53433 a 91.443884,91.201374 0 0 0 -16.74001,17.49245 l -2.9681,4.06882 a 54.193813,54.050091 0 0 1 -18.17213,15.81213 l -17.60288,9.43449 -39.34732,16.75936 a 3.3136473,3.3048595 0 0 0 1.30129,6.34278 h 132.32519 c 10.8088,0 19.57129,-8.73925 19.57129,-19.51939 V 177.97021 c 0,-1.43728 -0.93078,-2.70923 -2.30198,-3.14748 z M 55.409207,21.958528 C 45.70795,20.486382 35.957758,25.890893 32.333518,35.41104 l -6.491473,17.052198 16.343532,6.029028 z"
     id="path14"
     inkscape:connector-curvature="0"
     style="stroke-width:0.99736303" />
</svg>
