<?xml version="1.0" encoding="UTF-8"?>
<!DOCTYPE svg PUBLIC "-//W3C//DTD SVG 1.1//EN" "http://www.w3.org/Graphics/SVG/1.1/DTD/svg11.dtd">
<!-- Creator: CorelDRAW 2017 -->
<svg xmlns="http://www.w3.org/2000/svg" xml:space="preserve" width="297mm" height="210mm" version="1.1" style="shape-rendering:geometricPrecision; text-rendering:geometricPrecision; image-rendering:optimizeQuality; fill-rule:evenodd; clip-rule:evenodd"
viewBox="0 0 29700 21000"
 xmlns:xlink="http://www.w3.org/1999/xlink">
 <g>
  <metadata id="CorelCorpID_0Corel-Layer"/>
  <g id="_2894523837632">
  </g>
  <g id="_2894523836576">
  </g>
  <g id="_2894523836352">
  </g>
  <g id="_2894523837504">
  </g>
  <g id="_2894523837728">
  </g>
  <g id="_2894523834368">
  </g>
  <g id="_2894523835040">
  </g>
  <g id="_2894523834176">
  </g>
  <g id="_2894523834656">
  </g>
  <g id="_2894523835968">
  </g>
  <g id="_2894523835904">
  </g>
  <g id="_2894523898272">
  </g>
  <g id="_2894523897664">
  </g>
  <g id="_2894523899200">
  </g>
  <g id="_2894523898656">
  </g>
  <g id="_2894523897312">
   <g>
    <g>
     <path d="M14856.62 8682.41l-1467.52 210.52c-77.32,11.55 -147.76,49.99 -198.85,109.53 -51.08,59.54 -78.37,135 -78.04,213.19l5.53 526.09c-78.66,-37.53 -154.11,-85.78 -224,-145.76 -169.13,-145.11 -282,-334.83 -317.29,-532.91 -33.7,-187.71 7.82,-361.82 115.92,-487.8 230.99,-269.22 696.89,-250 1039.46,43.93 56.95,48.86 143.53,42.25 192.39,-14.71l0 0c48.86,-56.95 42.25,-143.52 -14.7,-192.39 -456.47,-391.65 -1095.53,-397.64 -1424.25,-14.52 -162.88,189.84 -225.77,442.99 -177.69,713.46 46.49,260.11 191.02,505.47 408.47,692.04 122.53,105.13 259.99,184.13 405,235.13l6.82 659.04c2.14,165.13 74.57,321.66 199.69,429.01l1858.66 1594.74c286.48,245.81 719.36,212.72 965.16,-73.76l1092.03 -1272.76c245.81,-286.48 212.72,-719.35 -73.76,-965.15l-1858.66 -1594.74c-125.11,-107.36 -290.83,-155.16 -454.37,-132.18zm2135.35 1934.01c172.58,148.07 192.42,407.8 44.35,580.38l-1092.78 1273.62c-148.07,172.58 -407.8,192.42 -580.37,44.35l-1858.66 -1594.74c-65.58,-56.27 -104.14,-138.79 -105.08,-224.99l-6.12 -597.01c22.69,1.49 45.38,2.98 68.07,4.47 274.64,6.43 515.29,-94.2 678.17,-284.04l0 0c48.87,-56.95 42.25,-143.53 -14.7,-192.39 -56.95,-48.86 -143.53,-42.25 -192.39,14.7 -108.83,126.85 -273.87,193.48 -464.52,188.7 -25.9,-1.24 -51.8,-2.49 -77.82,-5.34l-6.35 -610.69c-0.37,-15.3 6.05,-26.27 11.97,-33.17 5.93,-6.91 15.8,-14.92 30.97,-16.88l1467.51 -210.52c85.35,-12.17 172.77,13.4 238.35,69.67l1858.66 1594.74 0.74 -0.86z"/>
     <path d="M14856.62 8682.41l-1467.52 210.52c-77.32,11.55 -147.76,49.99 -198.85,109.53 -51.08,59.54 -78.37,135 -78.04,213.19l5.53 526.09c-78.66,-37.53 -154.11,-85.78 -224,-145.76 -169.13,-145.11 -282,-334.83 -317.29,-532.91 -33.7,-187.71 7.82,-361.82 115.92,-487.8 230.99,-269.22 696.89,-250 1039.46,43.93 56.95,48.86 143.53,42.25 192.39,-14.71l0 0c48.86,-56.95 42.25,-143.52 -14.7,-192.39 -456.47,-391.65 -1095.53,-397.64 -1424.25,-14.52 -162.88,189.84 -225.77,442.99 -177.69,713.46 46.49,260.11 191.02,505.47 408.47,692.04 122.53,105.13 259.99,184.13 405,235.13l6.82 659.04c2.14,165.13 74.57,321.66 199.69,429.01l1858.66 1594.74c286.48,245.81 719.36,212.72 965.16,-73.76l1092.03 -1272.76c245.81,-286.48 212.72,-719.35 -73.76,-965.15l-1858.66 -1594.74c-125.11,-107.36 -290.83,-155.16 -454.37,-132.18zm2135.35 1934.01c172.58,148.07 192.42,407.8 44.35,580.38l-1092.78 1273.62c-148.07,172.58 -407.8,192.42 -580.37,44.35l-1858.66 -1594.74c-65.58,-56.27 -104.14,-138.79 -105.08,-224.99l-6.12 -597.01c22.69,1.49 45.38,2.98 68.07,4.47 274.64,6.43 515.29,-94.2 678.17,-284.04l0 0c48.87,-56.95 42.25,-143.53 -14.7,-192.39 -56.95,-48.86 -143.53,-42.25 -192.39,14.7 -108.83,126.85 -273.87,193.48 -464.52,188.7 -25.9,-1.24 -51.8,-2.49 -77.82,-5.34l-6.35 -610.69c-0.37,-15.3 6.05,-26.27 11.97,-33.17 5.93,-6.91 15.8,-14.92 30.97,-16.88l1467.51 -210.52c85.35,-12.17 172.77,13.4 238.35,69.67l1858.66 1594.74 0.74 -0.86z"/>
    </g>
    <g>
     <path d="M15201.86 10530.68l-195.45 227.81c-68.86,80.24 -190.7,89.56 -270.95,20.7 -80.25,-68.85 -89.57,-190.7 -20.71,-270.95l344.27 -401.24c48.86,-56.95 42.25,-143.53 -14.7,-192.39 -56.95,-48.87 -143.53,-42.25 -192.39,14.7l-157.7 183.8 -134.61 -115.5c-56.95,-48.86 -143.52,-42.25 -192.39,14.71 -48.86,56.95 -42.25,143.52 14.7,192.39l134.61 115.49 -8.88 10.36c-167.32,195.01 -144.04,489.14 50.11,655.73 195.01,167.32 489.15,144.03 655.73,-50.12l195.46 -227.8c68.85,-80.25 190.7,-89.56 270.95,-20.71 80.25,68.86 89.56,190.7 20.71,270.95l-350.94 409.01c-48.86,56.95 -42.25,143.53 14.7,192.39 56.95,48.87 143.53,42.25 192.39,-14.7l164.36 -191.56 137.2 117.72c56.95,48.86 143.53,42.24 192.39,-14.71 48.87,-56.95 42.25,-143.52 -14.7,-192.39l-137.2 -117.71 10.37 -12.08c0.74,-0.87 1.48,-1.73 2.22,-2.59 162.51,-194.65 139.47,-485.58 -53.82,-651.42 -195.01,-167.32 -489.15,-144.04 -655.73,50.11z"/>
     <path d="M15201.86 10530.68l-195.45 227.81c-68.86,80.24 -190.7,89.56 -270.95,20.7 -80.25,-68.85 -89.57,-190.7 -20.71,-270.95l344.27 -401.24c48.86,-56.95 42.25,-143.53 -14.7,-192.39 -56.95,-48.87 -143.53,-42.25 -192.39,14.7l-157.7 183.8 -134.61 -115.5c-56.95,-48.86 -143.52,-42.25 -192.39,14.71 -48.86,56.95 -42.25,143.52 14.7,192.39l134.61 115.49 -8.88 10.36c-167.32,195.01 -144.04,489.14 50.11,655.73 195.01,167.32 489.15,144.03 655.73,-50.12l195.46 -227.8c68.85,-80.25 190.7,-89.56 270.95,-20.71 80.25,68.86 89.56,190.7 20.71,270.95l-350.94 409.01c-48.86,56.95 -42.25,143.53 14.7,192.39 56.95,48.87 143.53,42.25 192.39,-14.7l164.36 -191.56 137.2 117.72c56.95,48.86 143.53,42.24 192.39,-14.71 48.87,-56.95 42.25,-143.52 -14.7,-192.39l-137.2 -117.71 10.37 -12.08c0.74,-0.87 1.48,-1.73 2.22,-2.59 162.51,-194.65 139.47,-485.58 -53.82,-651.42 -195.01,-167.32 -489.15,-144.04 -655.73,50.11z"/>
    </g>
   </g>
  </g>
 </g>
</svg>
