<?xml version="1.0" encoding="UTF-8"?>
<!DOCTYPE svg PUBLIC "-//W3C//DTD SVG 1.1//EN" "http://www.w3.org/Graphics/SVG/1.1/DTD/svg11.dtd">
<!-- Creator: CorelDRAW 2017 -->
<svg xmlns="http://www.w3.org/2000/svg" xml:space="preserve" width="297mm" height="210mm" version="1.1" style="shape-rendering:geometricPrecision; text-rendering:geometricPrecision; image-rendering:optimizeQuality; fill-rule:evenodd; clip-rule:evenodd"
viewBox="0 0 29700 21000"
 xmlns:xlink="http://www.w3.org/1999/xlink">
 <g>
  <metadata id="CorelCorpID_0Corel-Layer"/>
  <g>
   <path d="M14850 8129.33c-1309.35,0 -2370.67,1061.32 -2370.67,2370.67 0,1309.35 1061.32,2370.67 2370.67,2370.67 1309.35,0 2370.67,-1061.47 2370.67,-2370.67 0,-1309.2 -1061.32,-2370.67 -2370.67,-2370.67zm2.17 752.59c80.5,0 145.75,65.25 145.75,145.75l0.25 0 0 1476.92 916.7 768.69 -0.36 0.51c39.66,28.18 65.53,74.49 65.53,126.84 0,85.87 -69.61,155.48 -155.47,155.48 -33.52,0 -64.56,-10.61 -89.95,-28.64l-0.36 0.51 -11.41 -9.76 -0.04 -0.03 -1011.79 -865.28 -4.59 -1625.24c0,-80.5 65.25,-145.75 145.74,-145.75zm-2.17 3687.82c-1143.1,0 -2069.74,-926.63 -2069.74,-2069.74 0,-1143.1 926.64,-2069.74 2069.74,-2069.74 1143.11,0 2069.74,926.64 2069.74,2069.74 0,1143.11 -926.63,2069.74 -2069.74,2069.74z"/>
   <path d="M14850 8129.33c-1309.35,0 -2370.67,1061.32 -2370.67,2370.67 0,1309.35 1061.32,2370.67 2370.67,2370.67 1309.35,0 2370.67,-1061.47 2370.67,-2370.67 0,-1309.2 -1061.32,-2370.67 -2370.67,-2370.67zm2.17 752.59c80.5,0 145.75,65.25 145.75,145.75l0.25 0 0 1476.92 916.7 768.69 -0.36 0.51c39.66,28.18 65.53,74.49 65.53,126.84 0,85.87 -69.61,155.48 -155.47,155.48 -33.52,0 -64.56,-10.61 -89.95,-28.64l-0.36 0.51 -11.41 -9.76 -0.04 -0.03 -1011.79 -865.28 -4.59 -1625.24c0,-80.5 65.25,-145.75 145.74,-145.75zm-2.17 3687.82c-1143.1,0 -2069.74,-926.63 -2069.74,-2069.74 0,-1143.1 926.64,-2069.74 2069.74,-2069.74 1143.11,0 2069.74,926.64 2069.74,2069.74 0,1143.11 -926.63,2069.74 -2069.74,2069.74z"/>
  </g>
 </g>
</svg>
