<?xml version="1.0" encoding="UTF-8" standalone="no"?>
<svg
   xmlns:dc="http://purl.org/dc/elements/1.1/"
   xmlns:cc="http://creativecommons.org/ns#"
   xmlns:rdf="http://www.w3.org/1999/02/22-rdf-syntax-ns#"
   xmlns:svg="http://www.w3.org/2000/svg"
   xmlns="http://www.w3.org/2000/svg"
   xmlns:sodipodi="http://sodipodi.sourceforge.net/DTD/sodipodi-0.dtd"
   xmlns:inkscape="http://www.inkscape.org/namespaces/inkscape"
   xml:space="preserve"
   width="150"
   height="100"
   version="1.1"
   style="clip-rule:evenodd;fill-rule:evenodd;image-rendering:optimizeQuality;shape-rendering:geometricPrecision;text-rendering:geometricPrecision"
   viewBox="0 0 3968.75 2645.8333"
   id="svg89"
   sodipodi:docname="icon-tour-lvl--40.svg"
   inkscape:version="0.92.1 r15371"><metadata
     id="metadata95"><rdf:RDF><cc:Work
         rdf:about=""><dc:format>image/svg+xml</dc:format><dc:type
           rdf:resource="http://purl.org/dc/dcmitype/StillImage" /><dc:title></dc:title></cc:Work></rdf:RDF></metadata><defs
     id="defs93" /><sodipodi:namedview
     pagecolor="#ffffff"
     bordercolor="#666666"
     borderopacity="1"
     objecttolerance="10"
     gridtolerance="10"
     guidetolerance="10"
     inkscape:pageopacity="0"
     inkscape:pageshadow="2"
     inkscape:window-width="1920"
     inkscape:window-height="1027"
     id="namedview91"
     showgrid="false"
     units="px"
     inkscape:zoom="4.7574603"
     inkscape:cx="134.76944"
     inkscape:cy="20.871479"
     inkscape:window-x="-8"
     inkscape:window-y="-8"
     inkscape:window-maximized="1"
     inkscape:current-layer="_2894108972240"
     fit-margin-top="0"
     fit-margin-left="0"
     fit-margin-right="0"
     fit-margin-bottom="0" /><g
     id="g49"
     transform="matrix(0.98755095,0,0,0.98752024,-12680.757,-9046.0409)" /><g
     id="_2894108934128"
     transform="matrix(0.98755095,0,0,0.98752024,-12680.757,-9046.0409)" /><g
     id="_2894108933968"
     transform="matrix(0.98755095,0,0,0.98752024,-12680.757,-9046.0409)" /><g
     id="_2894108983888"
     transform="matrix(0.98755095,0,0,0.98752024,-12680.757,-9046.0409)" /><g
     id="_2894108984496"
     transform="matrix(0.98755095,0,0,0.98752024,-12680.757,-9046.0409)" /><g
     id="_2894108985392"
     transform="matrix(0.98755095,0,0,0.98752024,-12680.757,-9046.0409)" /><g
     id="_2894108985648"
     transform="matrix(0.98755095,0,0,0.98752024,-12680.757,-9046.0409)" /><g
     id="_2894108984208"
     transform="matrix(0.98755095,0,0,0.98752024,-12680.757,-9046.0409)" /><g
     id="_2894108982864"
     transform="matrix(0.98755095,0,0,0.98752024,-12680.757,-9046.0409)" /><g
     id="_2894108982672"
     transform="matrix(0.98755095,0,0,0.98752024,-12680.757,-9046.0409)" /><g
     id="_2894108982960"
     transform="matrix(0.98755095,0,0,0.98752024,-12680.757,-9046.0409)" /><g
     id="_2894108983344"
     transform="matrix(0.98755095,0,0,0.98752024,-12680.757,-9046.0409)" /><g
     id="_2894108979856"
     transform="matrix(0.98755095,0,0,0.98752024,-12680.757,-9046.0409)" /><g
     id="_2894108980176"
     transform="matrix(0.98755095,0,0,0.98752024,-12680.757,-9046.0409)" /><g
     id="_2894108979760"
     transform="matrix(0.98755095,0,0,0.98752024,-12680.757,-9046.0409)" /><g
     id="_2894108981072"
     transform="matrix(0.98755095,0,0,0.98752024,-12680.757,-9046.0409)" /><g
     id="_2894108979728"
     transform="matrix(0.98755095,0,0,0.98752024,-12680.757,-9046.0409)" /><g
     id="_2894108980560"
     transform="matrix(0.98755095,0,0,0.98752024,-12680.757,-9046.0409)" /><g
     id="_2894108977968"
     transform="matrix(0.98755095,0,0,0.98752024,-12680.757,-9046.0409)" /><g
     id="_2894108978704"
     transform="matrix(0.98755095,0,0,0.98752024,-12680.757,-9046.0409)" /><g
     id="_2894108978352"
     transform="matrix(0.98755095,0,0,0.98752024,-12680.757,-9046.0409)" /><g
     id="_2894108978160"
     transform="matrix(0.98755095,0,0,0.98752024,-12680.757,-9046.0409)" /><g
     id="_2894108977904"
     transform="matrix(0.98755095,0,0,0.98752024,-12680.757,-9046.0409)" /><g
     id="_2894108978096"
     transform="matrix(0.98755095,0,0,0.98752024,-12680.757,-9046.0409)" /><g
     id="_2894108976112"
     transform="matrix(0.98755095,0,0,0.98752024,-12680.757,-9046.0409)" /><g
     id="_2894108976784"
     transform="matrix(0.98755095,0,0,0.98752024,-12680.757,-9046.0409)" /><g
     id="_2894108976368"
     transform="matrix(0.98755095,0,0,0.98752024,-12680.757,-9046.0409)" /><g
     id="_2894108976560"
     transform="matrix(0.98755095,0,0,0.98752024,-12680.757,-9046.0409)" /><g
     id="_2894108974832"
     transform="matrix(0.98755095,0,0,0.98752024,-12680.757,-9046.0409)" /><g
     id="_2894108971824"
     transform="matrix(0.98755095,0,0,0.98752024,-12680.757,-9046.0409)" /><g
     id="_2894108972240"
     transform="matrix(0.98755095,0,0,0.98752024,-12680.757,-9046.0409)"><g
       id="g84"><g
         id="g82"><path
           inkscape:connector-curvature="0"
           id="path80"
           d="m 13063.88,10946.42 c -123.24,0 -223.27,99.96 -223.27,223.27 v 446.56 c 0,123.28 100.03,223.38 223.28,223.38 123.26,0 223.29,-100.09 223.29,-223.38 l -0.01,-446.56 c 0,-123.31 -100.06,-223.27 -223.29,-223.27 z m 893.07,-446.53 c -123.26,0 -223.25,99.97 -223.25,223.25 v 893.08 c 0,123.28 100.03,223.25 223.25,223.25 123.22,0 223.28,-99.97 223.28,-223.25 l -0.01,-893.08 c 0,-123.28 -100.03,-223.25 -223.27,-223.25 z"
           sodipodi:nodetypes="ssssccsssssccs" /></g></g></g></svg>