<?xml version="1.0" encoding="UTF-8" standalone="no"?>
<!-- Creator: CorelDRAW 2017 -->

<svg
   xmlns:dc="http://purl.org/dc/elements/1.1/"
   xmlns:cc="http://creativecommons.org/ns#"
   xmlns:rdf="http://www.w3.org/1999/02/22-rdf-syntax-ns#"
   xmlns:svg="http://www.w3.org/2000/svg"
   xmlns="http://www.w3.org/2000/svg"
   xmlns:sodipodi="http://sodipodi.sourceforge.net/DTD/sodipodi-0.dtd"
   xmlns:inkscape="http://www.inkscape.org/namespaces/inkscape"
   xml:space="preserve"
   width="220"
   height="242"
   version="1.1"
   style="clip-rule:evenodd;fill-rule:evenodd;image-rendering:optimizeQuality;shape-rendering:geometricPrecision;text-rendering:geometricPrecision"
   viewBox="0 0 5820.8335 6402.9165"
   id="svg106"
   sodipodi:docname="icon-tour-path.svg"
   inkscape:version="0.92.1 r15371"><metadata
     id="metadata112"><rdf:RDF><cc:Work
         rdf:about=""><dc:format>image/svg+xml</dc:format><dc:type
           rdf:resource="http://purl.org/dc/dcmitype/StillImage" /><dc:title></dc:title></cc:Work></rdf:RDF></metadata><defs
     id="defs110" /><sodipodi:namedview
     pagecolor="#ffffff"
     bordercolor="#666666"
     borderopacity="1"
     objecttolerance="10"
     gridtolerance="10"
     guidetolerance="10"
     inkscape:pageopacity="0"
     inkscape:pageshadow="2"
     inkscape:window-width="1920"
     inkscape:window-height="1027"
     id="namedview108"
     showgrid="false"
     units="px"
     inkscape:zoom="0.29734127"
     inkscape:cx="561.25984"
     inkscape:cy="396.85039"
     inkscape:window-x="-8"
     inkscape:window-y="-8"
     inkscape:window-maximized="1"
     inkscape:current-layer="svg106" /><g
     id="g104"
     transform="matrix(0.99802881,0,0,0.9970331,-11910.306,-7267.3852)"><metadata
       id="CorelCorpID_0Corel-Layer" /><g
       id="g102"><path
         d="m 12806.72,11808.86 c 0,-71.58 58.02,-129.59 129.59,-129.59 h 30.91 c 71.58,0 129.59,58.01 129.59,129.59 0,71.58 -58.01,129.59 -129.59,129.59 h -30.91 c -71.57,0 -129.59,-58.02 -129.59,-129.59 z m 2807.89,-2727.73 c -175.78,59.39 -293.91,223.65 -293.91,408.77 0,237.84 193.49,431.32 431.32,431.32 h 1173.3 c 237.83,0 431.31,-193.49 431.31,-431.31 0,-185.1 -118.09,-349.37 -293.87,-408.77 -67.77,-22.91 -141.34,13.49 -164.25,81.3 -22.91,67.8 13.49,141.34 81.3,164.25 70.38,23.77 117.65,89.37 117.65,163.22 0,94.91 -77.22,172.13 -172.14,172.13 h -1173.3 c -94.92,0 -172.14,-77.22 -172.14,-172.13 0,-73.85 47.3,-139.47 117.68,-163.24 67.8,-22.91 104.21,-96.44 81.3,-164.25 -22.9,-67.81 -96.45,-104.17 -164.25,-81.29 z m -1938.75,3789.79 c -67.82,-22.97 -141.34,13.49 -164.25,81.3 -22.91,67.8 13.49,141.32 81.3,164.23 70.38,23.77 117.66,89.36 117.66,163.21 0,94.93 -77.2,172.15 -172.12,172.15 l -1173.32,-0.01 c -94.92,0 -172.14,-77.22 -172.14,-172.15 0,-73.84 47.3,-139.43 117.7,-163.22 67.8,-22.91 104.2,-96.44 81.29,-164.25 -22.91,-67.8 -96.43,-104.16 -164.24,-81.29 -175.8,59.39 -293.91,223.67 -293.91,408.76 0,237.84 193.49,431.33 431.31,431.33 h 1173.33 c 237.82,0 431.29,-193.49 431.29,-431.33 -0.01,-185.09 -118.13,-349.35 -293.9,-408.73 z m -1080.12,-103.08 c -230.91,-453.82 -374.02,-772.52 -374.02,-959 0,-402.54 327.51,-730.04 730.07,-730.04 402.54,0 730.04,327.5 730.04,730.04 0,186.61 -143.09,505.28 -373.99,958.98 0,0 -82.58,163.01 -86.71,171.68 -33.32,69.86 -95.33,199.88 -269.36,199.88 -174.02,0 -236.05,-130 -269.37,-199.87 -4.1,-8.66 -86.66,-171.67 -86.66,-171.67 z m -114.84,-959 c 0,161.79 242.34,638.05 345.82,841.43 0,0 110.15,220.68 117.57,229.49 4.59,6.59 11.58,3.01 14.99,0.01 7.41,-8.81 19.63,-34.47 27.93,-51.86 4.95,-10.38 89.66,-177.65 89.66,-177.65 103.48,-203.33 345.8,-679.49 345.8,-841.43 0,-259.64 -211.23,-470.87 -470.87,-470.87 -259.66,0.02 -470.9,211.25 -470.9,470.88 z M 17766.16,7418.6 v 928.86 c 0,71.57 -58.01,129.59 -129.59,129.59 h -1168.32 v 597.3 h 102.63 c 71.58,0 129.59,58.01 129.59,129.59 0,71.57 -58.01,129.59 -129.59,129.59 l -464.43,-0.01 c -71.57,0 -129.58,-58.01 -129.58,-129.59 0,-71.57 58.01,-129.59 129.58,-129.59 l 102.63,0.01 v -724.14 c -0.02,-0.92 -0.03,-1.83 -0.03,-2.75 0,-0.92 0,-1.85 0.03,-2.75 v -923.36 c -0.02,-0.92 -0.03,-1.83 -0.03,-2.75 0,-71.57 58.01,-129.59 129.59,-129.59 h 1297.93 c 71.58,0 129.59,58.01 129.59,129.59 z m -259.17,129.59 h -1038.74 v 669.68 h 1038.74 z m -799.25,2822.24 h -3715.48 c -440.71,0 -799.25,-358.56 -799.25,-799.29 0,-440.73 358.54,-799.27 799.25,-799.27 h 2612.83 c 71.58,0 129.59,-58.01 129.59,-129.58 0,-71.58 -58.01,-129.59 -129.59,-129.59 h -2612.83 c -583.62,0 -1058.43,474.83 -1058.43,1058.45 0,583.63 474.81,1058.46 1058.43,1058.46 l 3715.48,-0.01 c 440.7,0 799.25,358.55 799.25,799.28 0,440.72 -358.55,799.27 -799.25,799.27 H 14094.9 c -71.57,0 -129.59,58.01 -129.59,129.59 0,71.57 58.01,129.59 129.59,129.59 l 2612.84,-0.01 c 583.62,0 1058.42,-474.82 1058.42,-1058.44 0,-583.62 -474.79,-1058.45 -1058.42,-1058.45 z"
         id="path98"
         inkscape:connector-curvature="0" /><path
         d="m 12806.72,11808.86 c 0,-71.58 58.02,-129.59 129.59,-129.59 h 30.91 c 71.58,0 129.59,58.01 129.59,129.59 0,71.58 -58.01,129.59 -129.59,129.59 h -30.91 c -71.57,0 -129.59,-58.02 -129.59,-129.59 z m 2807.89,-2727.73 c -175.78,59.39 -293.91,223.65 -293.91,408.77 0,237.84 193.49,431.32 431.32,431.32 h 1173.3 c 237.83,0 431.31,-193.49 431.31,-431.31 0,-185.1 -118.09,-349.37 -293.87,-408.77 -67.77,-22.91 -141.34,13.49 -164.25,81.3 -22.91,67.8 13.49,141.34 81.3,164.25 70.38,23.77 117.65,89.37 117.65,163.22 0,94.91 -77.22,172.13 -172.14,172.13 h -1173.3 c -94.92,0 -172.14,-77.22 -172.14,-172.13 0,-73.85 47.3,-139.47 117.68,-163.24 67.8,-22.91 104.21,-96.44 81.3,-164.25 -22.9,-67.81 -96.45,-104.17 -164.25,-81.29 z m -1938.75,3789.79 c -67.82,-22.97 -141.34,13.49 -164.25,81.3 -22.91,67.8 13.49,141.32 81.3,164.23 70.38,23.77 117.66,89.36 117.66,163.21 0,94.93 -77.2,172.15 -172.12,172.15 l -1173.32,-0.01 c -94.92,0 -172.14,-77.22 -172.14,-172.15 0,-73.84 47.3,-139.43 117.7,-163.22 67.8,-22.91 104.2,-96.44 81.29,-164.25 -22.91,-67.8 -96.43,-104.16 -164.24,-81.29 -175.8,59.39 -293.91,223.67 -293.91,408.76 0,237.84 193.49,431.33 431.31,431.33 h 1173.33 c 237.82,0 431.29,-193.49 431.29,-431.33 -0.01,-185.09 -118.13,-349.35 -293.9,-408.73 z m -1080.12,-103.08 c -230.91,-453.82 -374.02,-772.52 -374.02,-959 0,-402.54 327.51,-730.04 730.07,-730.04 402.54,0 730.04,327.5 730.04,730.04 0,186.61 -143.09,505.28 -373.99,958.98 0,0 -82.58,163.01 -86.71,171.68 -33.32,69.86 -95.33,199.88 -269.36,199.88 -174.02,0 -236.05,-130 -269.37,-199.87 -4.1,-8.66 -86.66,-171.67 -86.66,-171.67 z m -114.84,-959 c 0,161.79 242.34,638.05 345.82,841.43 0,0 110.15,220.68 117.57,229.49 4.59,6.59 11.58,3.01 14.99,0.01 7.41,-8.81 19.63,-34.47 27.93,-51.86 4.95,-10.38 89.66,-177.65 89.66,-177.65 103.48,-203.33 345.8,-679.49 345.8,-841.43 0,-259.64 -211.23,-470.87 -470.87,-470.87 -259.66,0.02 -470.9,211.25 -470.9,470.88 z M 17766.16,7418.6 v 928.86 c 0,71.57 -58.01,129.59 -129.59,129.59 h -1168.32 v 597.3 h 102.63 c 71.58,0 129.59,58.01 129.59,129.59 0,71.57 -58.01,129.59 -129.59,129.59 l -464.43,-0.01 c -71.57,0 -129.58,-58.01 -129.58,-129.59 0,-71.57 58.01,-129.59 129.58,-129.59 l 102.63,0.01 v -724.14 c -0.02,-0.92 -0.03,-1.83 -0.03,-2.75 0,-0.92 0,-1.85 0.03,-2.75 v -923.36 c -0.02,-0.92 -0.03,-1.83 -0.03,-2.75 0,-71.57 58.01,-129.59 129.59,-129.59 h 1297.93 c 71.58,0 129.59,58.01 129.59,129.59 z m -259.17,129.59 h -1038.74 v 669.68 h 1038.74 z m -799.25,2822.24 h -3715.48 c -440.71,0 -799.25,-358.56 -799.25,-799.29 0,-440.73 358.54,-799.27 799.25,-799.27 h 2612.83 c 71.58,0 129.59,-58.01 129.59,-129.58 0,-71.58 -58.01,-129.59 -129.59,-129.59 h -2612.83 c -583.62,0 -1058.43,474.83 -1058.43,1058.45 0,583.63 474.81,1058.46 1058.43,1058.46 l 3715.48,-0.01 c 440.7,0 799.25,358.55 799.25,799.28 0,440.72 -358.55,799.27 -799.25,799.27 H 14094.9 c -71.57,0 -129.59,58.01 -129.59,129.59 0,71.57 58.01,129.59 129.59,129.59 l 2612.84,-0.01 c 583.62,0 1058.42,-474.82 1058.42,-1058.44 0,-583.62 -474.79,-1058.45 -1058.42,-1058.45 z"
         id="path100"
         inkscape:connector-curvature="0" /></g></g></svg>