<?xml version="1.0" encoding="UTF-8"?>
<!DOCTYPE svg PUBLIC "-//W3C//DTD SVG 1.1//EN" "http://www.w3.org/Graphics/SVG/1.1/DTD/svg11.dtd">
<!-- Creator: CorelDRAW 2017 -->
<svg xmlns="http://www.w3.org/2000/svg" xml:space="preserve" width="297mm" height="210mm" version="1.1" style="shape-rendering:geometricPrecision; text-rendering:geometricPrecision; image-rendering:optimizeQuality; fill-rule:evenodd; clip-rule:evenodd"
viewBox="0 0 29700 21000"
 xmlns:xlink="http://www.w3.org/1999/xlink">
 <g>
  <metadata id="CorelCorpID_0Corel-Layer"/>
  <g>
   <g>
    <path d="M22274.61 3075.54c-1983.04,-1983.25 -4620.03,-3075.54 -7424.61,-3075.54 -2804.58,0 -5441.16,1092.29 -7424.46,3075.54 -1983.25,1983.3 -3075.54,4619.88 -3075.54,7424.46 0,2804.99 1092.29,5441.72 3075.54,7424.82 1983.1,1983.1 4619.88,3075.18 7424.46,3075.18 2804.79,0 5441.57,-1092.09 7424.61,-3075.18 1983.1,-1983.1 3075.39,-4619.82 3075.39,-7424.82 0,-2804.58 -1092.29,-5441.36 -3075.39,-7424.46l0 0zm-464.04 14385.24c-1859.08,1859.13 -4331.02,2882.92 -6960.57,2882.92 -2629.35,0 -5101.29,-1023.8 -6960.42,-2882.92 -1859.33,-1859.08 -2883.28,-4331.23 -2883.28,-6960.78 0,-2629.14 1023.95,-5101.09 2883.28,-6960.42 1859.33,-1859.33 4331.28,-2883.28 6960.42,-2883.28 2629.35,0 5101.29,1023.95 6960.57,2883.28 1859.13,1859.13 2883.13,4331.08 2883.13,6960.42 0,2629.76 -1024,5101.7 -2883.13,6960.78l0 0zm0 0z"/>
    <path d="M21988.22 4715.59c-114.13,-140.84 -320.84,-162.42 -461.63,-48.09 -140.79,114.18 -162.22,320.84 -48.04,461.42 1226.87,1512.24 1902.55,3419.61 1902.55,5371.07 0,2279.07 -887.37,4421.57 -2498.56,6032.75 -1611.19,1611.19 -3753.68,2498.35 -6032.55,2498.35 -2102.45,0 -4122.36,-771.24 -5687.3,-2171.92 -135.2,-120.94 -342.48,-109.36 -463.42,25.63 -120.74,134.99 -109.36,342.48 25.63,463.22 1685.69,1508.67 3860.84,2339.38 6125.1,2339.38 2454.11,0 4761.43,-955.51 6496.59,-2690.61 1735.1,-1735.16 2690.81,-4042.48 2690.81,-6496.79 0,-2101.48 -727.76,-4155.63 -2049.18,-5784.41l0 0zm0 0z"/>
    <path d="M6318.64 10500c0,-4704.16 3827.2,-8531.36 8531.36,-8531.36 2102.45,0 4122.15,771.45 5687.25,2172.18 134.99,120.94 342.48,109.31 463.27,-25.63 120.94,-134.99 109.31,-342.48 -25.63,-463.27 -1685.48,-1508.6 -3860.83,-2339.31 -6124.88,-2339.31 -2453.9,0 -4761.02,955.66 -6496.38,2691.02 -1735.36,1735.31 -2691.02,4042.43 -2691.02,6496.38 0,2101.63 727.77,4155.99 2049.13,5784.61 64.91,80.08 159.45,121.56 254.96,121.56 72.7,0 145.81,-24.05 206.67,-73.52 140.58,-114.13 162.22,-320.79 48.09,-461.42 -1227.09,-1512.25 -1902.82,-3419.83 -1902.82,-5371.24l0 0zm0 0z"/>
   </g>
   <g>
    <path d="M17607.72 5235.88l-5495.04 0c-1393.29,0 -2526.81,1133.56 -2526.81,2526.86l0 5494.99c0,1393.35 1133.51,2526.86 2526.81,2526.86l5495.04 -0.01c1393.29,0 2526.76,-1133.51 2526.76,-2526.86l0 -5494.99c0,-1393.29 -1133.46,-2526.85 -2526.76,-2526.85zm1861.49 8021.79c0,1026.41 -835.07,1861.54 -1861.49,1861.54l-5495.04 0c-1026.36,0 -1861.33,-835.13 -1861.33,-1861.54l0 -5494.94c0,-1026.36 835.02,-1861.33 1861.33,-1861.33l5495.04 0c1026.41,0 1861.49,835.02 1861.49,1861.33l0 5494.94z"/>
    <path d="M17808.34 7163.75c-223.43,0 -405.23,181.75 -405.23,405.08 0,223.33 181.8,405.03 405.23,405.03 223.33,0 405.03,-181.7 405.03,-405.03 0,-223.33 -181.7,-405.08 -405.03,-405.08z"/>
    <path d="M14860.1 7924.69c-1425.59,0 -2585.41,1159.81 -2585.41,2585.41 0,1425.7 1159.81,2585.61 2585.41,2585.61 1425.7,0 2585.61,-1159.92 2585.61,-2585.61 0,-1425.59 -1159.91,-2585.41 -2585.61,-2585.41zm0 4505.75c-1058.81,0 -1920.19,-861.48 -1920.19,-1920.34 0,-1058.61 861.38,-1919.83 1920.19,-1919.83 1058.71,0 1919.98,861.22 1919.98,1919.83 0.05,1058.86 -861.27,1920.34 -1919.98,1920.34z"/>
   </g>
  </g>
  <g id="_2858539722448">
  </g>
  <g id="_2858539722480">
  </g>
  <g id="_2858539721680">
  </g>
  <g id="_2858539789168">
  </g>
  <g id="_2858539790128">
  </g>
  <g id="_2858539789904">
  </g>
  <g id="_2858539788656">
  </g>
  <g id="_2858539788784">
  </g>
  <g id="_2858539787504">
  </g>
  <g id="_2858539788336">
  </g>
  <g id="_2858539786640">
  </g>
  <g id="_2858539786992">
  </g>
  <g id="_2858539786800">
  </g>
  <g id="_2858539788528">
  </g>
  <g id="_2858539785840">
  </g>
  <g id="_2858539785104">
  </g>
  <g id="_2858539785200">
  </g>
  <g id="_2858539785360">
  </g>
  <g id="_2858539785904">
  </g>
  <g id="_2858539783280">
  </g>
  <g id="_2858539782960">
  </g>
  <g id="_2858539783472">
  </g>
  <g id="_2858539783888">
  </g>
  <g id="_2858539784400">
  </g>
  <g id="_2858539781360">
  </g>
  <g id="_2858539781040">
  </g>
  <g id="_2858539780592">
  </g>
  <g id="_2858539781808">
  </g>
  <g id="_2858539782416">
  </g>
  <g id="_2858539782032">
  </g>
 </g>
</svg>
