<?xml version="1.0" encoding="UTF-8" standalone="no"?>
<!-- Generator: Adobe Illustrator 21.1.0, SVG Export Plug-In  -->

<svg
   xmlns:dc="http://purl.org/dc/elements/1.1/"
   xmlns:cc="http://creativecommons.org/ns#"
   xmlns:rdf="http://www.w3.org/1999/02/22-rdf-syntax-ns#"
   xmlns:svg="http://www.w3.org/2000/svg"
   xmlns="http://www.w3.org/2000/svg"
   xmlns:sodipodi="http://sodipodi.sourceforge.net/DTD/sodipodi-0.dtd"
   xmlns:inkscape="http://www.inkscape.org/namespaces/inkscape"
   version="1.1"
   x="0px"
   y="0px"
   width="100"
   height="100"
   viewBox="0 0 100 100"
   xml:space="preserve"
   id="svg137"
   sodipodi:docname="icon-social-insta.svg"
   inkscape:version="0.92.1 r15371"><metadata
     id="metadata141"><rdf:RDF><cc:Work
         rdf:about=""><dc:format>image/svg+xml</dc:format><dc:type
           rdf:resource="http://purl.org/dc/dcmitype/StillImage" /><dc:title></dc:title></cc:Work></rdf:RDF></metadata><sodipodi:namedview
     pagecolor="#ffffff"
     bordercolor="#666666"
     borderopacity="1"
     objecttolerance="10"
     gridtolerance="10"
     guidetolerance="10"
     inkscape:pageopacity="0"
     inkscape:pageshadow="2"
     inkscape:window-width="1920"
     inkscape:window-height="1027"
     id="namedview139"
     showgrid="false"
     inkscape:zoom="0.39643878"
     inkscape:cx="297.64999"
     inkscape:cy="297.64999"
     inkscape:window-x="-8"
     inkscape:window-y="-8"
     inkscape:window-maximized="1"
     inkscape:current-layer="svg137" /><defs
     id="defs85" /><g
     id="g135"
     transform="matrix(0.16795432,0,0,0.16798253,0,1.2207031e-5)"><g
       id="g103"><g
         id="g93"><path
           d="M 508.1,87.2 C 451.9,31 377.1,0 297.6,0 218.1,0 143.4,31 87.2,87.2 31,143.4 0,218.1 0,297.6 c 0,79.5 31,154.3 87.2,210.5 56.2,56.2 131,87.2 210.5,87.2 79.5,0 154.2,-31 210.5,-87.2 56.2,-56.2 87.2,-131 87.2,-210.5 C 595.3,218.1 564.3,143.4 508.1,87.2 Z M 494.9,495 C 442.2,547.7 372.1,576.7 297.6,576.7 223.1,576.7 153,547.7 100.3,495 47.6,442.3 18.6,372.2 18.6,297.7 c 0,-74.5 29,-144.6 81.7,-197.3 52.7,-52.7 122.8,-81.7 197.3,-81.7 74.5,0 144.6,29 197.3,81.7 52.7,52.7 81.7,122.8 81.7,197.3 0.1,74.5 -29,144.6 -81.7,197.3 z"
           id="path87"
           inkscape:connector-curvature="0" /><path
           d="m 500,133.7 c -3.2,-4 -9.1,-4.6 -13.1,-1.4 -4,3.2 -4.6,9.1 -1.4,13.1 34.8,42.9 53.9,96.9 53.9,152.3 0,64.6 -25.2,125.3 -70.8,171 -45.7,45.7 -106.4,70.8 -171,70.8 -59.6,0 -116.9,-21.9 -161.2,-61.6 -3.8,-3.4 -9.7,-3.1 -13.1,0.7 -3.4,3.8 -3.1,9.7 0.7,13.1 47.8,42.8 109.4,66.3 173.6,66.3 69.6,0 135,-27.1 184.2,-76.3 49.2,-49.2 76.3,-114.6 76.3,-184.2 0,-59.4 -20.7,-117.7 -58.1,-163.8 z"
           id="path89"
           inkscape:connector-curvature="0" /><path
           d="m 55.8,297.6 c 0,-133.3 108.5,-241.8 241.8,-241.8 59.6,0 116.8,21.9 161.2,61.6 3.8,3.4 9.7,3.1 13.1,-0.7 3.4,-3.8 3.1,-9.7 -0.7,-13.1 C 423.4,60.8 361.8,37.3 297.6,37.3 c -69.6,0 -135,27.1 -184.1,76.3 -49.2,49.2 -76.3,114.6 -76.3,184.1 0,59.6 20.6,117.8 58.1,164 1.8,2.3 4.5,3.4 7.2,3.4 2.1,0 4.1,-0.7 5.9,-2.1 4,-3.2 4.6,-9.1 1.4,-13.1 C 75,407 55.8,353 55.8,297.6 Z"
           id="path91"
           inkscape:connector-curvature="0" /></g><g
         id="g101"><path
           d="M 375.8,148.4 H 220 c -39.5,0 -71.6,32.1 -71.6,71.6 v 155.8 c 0,39.5 32.1,71.6 71.6,71.6 h 155.8 c 39.5,0 71.6,-32.1 71.6,-71.6 V 220 c 0,-39.4 -32.1,-71.6 -71.6,-71.6 z m 52.8,227.4 c 0,29.1 -23.7,52.8 -52.8,52.8 H 220 c -29.1,0 -52.8,-23.7 -52.8,-52.8 V 220 c 0,-29.1 23.7,-52.8 52.8,-52.8 h 155.8 c 29.1,0 52.8,23.7 52.8,52.8 z"
           id="path95"
           inkscape:connector-curvature="0" /><path
           d="m 381.5,203.1 c -6.3,0 -11.5,5.2 -11.5,11.5 0,6.3 5.2,11.5 11.5,11.5 6.3,0 11.5,-5.2 11.5,-11.5 0,-6.4 -5.2,-11.5 -11.5,-11.5 z"
           id="path97"
           inkscape:connector-curvature="0" /><path
           d="m 297.9,224.6 c -40.4,0 -73.3,32.9 -73.3,73.3 0,40.4 32.9,73.3 73.3,73.3 40.4,0 73.3,-32.9 73.3,-73.3 0,-40.4 -32.9,-73.3 -73.3,-73.3 z m 0,127.8 c -30,0 -54.4,-24.4 -54.4,-54.4 0,-30 24.4,-54.4 54.4,-54.4 30,0 54.4,24.4 54.4,54.4 0.1,29.9 -24.4,54.4 -54.4,54.4 z"
           id="path99"
           inkscape:connector-curvature="0" /></g></g><g
       id="_2858539722448_1_" /><g
       id="_2858539722480_1_" /><g
       id="_2858539721680_1_" /><g
       id="_2858539789168_1_" /><g
       id="_2858539790128_1_" /><g
       id="_2858539789904_1_" /><g
       id="_2858539788656_1_" /><g
       id="_2858539788784_1_" /><g
       id="_2858539787504_1_" /><g
       id="_2858539788336_1_" /><g
       id="_2858539786640_1_" /><g
       id="_2858539786992_1_" /><g
       id="_2858539786800_1_" /><g
       id="_2858539788528_1_" /><g
       id="_2858539785840_1_" /><g
       id="_2858539785104_1_" /><g
       id="_2858539785200_1_" /><g
       id="_2858539785360_1_" /><g
       id="_2858539785904_1_" /><g
       id="_2858539783280_1_" /><g
       id="_2858539782960_1_" /><g
       id="_2858539783472_1_" /><g
       id="_2858539783888_1_" /><g
       id="_2858539784400_1_" /><g
       id="_2858539781360_1_" /><g
       id="_2858539781040_1_" /><g
       id="_2858539780592_1_" /><g
       id="_2858539781808_1_" /><g
       id="_2858539782416_1_" /><g
       id="_2858539782032_1_" /></g></svg>