<?xml version="1.0" encoding="UTF-8"?>
<!DOCTYPE svg PUBLIC "-//W3C//DTD SVG 1.1//EN" "http://www.w3.org/Graphics/SVG/1.1/DTD/svg11.dtd">
<!-- Creator: CorelDRAW 2017 -->
<svg xmlns="http://www.w3.org/2000/svg" xml:space="preserve" width="297mm" height="210mm" version="1.1" style="shape-rendering:geometricPrecision; text-rendering:geometricPrecision; image-rendering:optimizeQuality; fill-rule:evenodd; clip-rule:evenodd"
viewBox="0 0 29700 21000"
 xmlns:xlink="http://www.w3.org/1999/xlink">
 <g>
  <metadata id="CorelCorpID_0Corel-Layer"/>
  <g>
  </g>
  <g id="_2894108934128">
  </g>
  <g id="_2894108933968">
  </g>
  <g id="_2894108983888">
  </g>
  <g id="_2894108984496">
  </g>
  <g id="_2894108985392">
  </g>
  <g id="_2894108985648">
  </g>
  <g id="_2894108984208">
  </g>
  <g id="_2894108982864">
  </g>
  <g id="_2894108982672">
  </g>
  <g id="_2894108982960">
  </g>
  <g id="_2894108983344">
  </g>
  <g id="_2894108979856">
  </g>
  <g id="_2894108980176">
  </g>
  <g id="_2894108979760">
  </g>
  <g id="_2894108981072">
  </g>
  <g id="_2894108979728">
  </g>
  <g id="_2894108980560">
  </g>
  <g id="_2894108977968">
  </g>
  <g id="_2894108978704">
  </g>
  <g id="_2894108978352">
  </g>
  <g id="_2894108978160">
  </g>
  <g id="_2894108977904">
  </g>
  <g id="_2894108978096">
  </g>
  <g id="_2894108976112">
  </g>
  <g id="_2894108976784">
  </g>
  <g id="_2894108976368">
  </g>
  <g id="_2894108976560">
  </g>
  <g id="_2894108974832">
  </g>
  <g id="_2894108971824">
  </g>
  <g id="_2894108972240">
   <g>
    <g>
     <path d="M13063.88 10946.42c-123.24,0 -223.27,99.96 -223.27,223.27l0 446.56c0,123.28 100.03,223.38 223.28,223.38 123.26,0 223.29,-100.09 223.29,-223.38l-0.01 -446.56c0,-123.31 -100.06,-223.27 -223.29,-223.27zm893.07 -446.53c-123.26,0 -223.25,99.97 -223.25,223.25l0 893.08c0,123.28 100.03,223.25 223.25,223.25 123.22,0 223.28,-99.97 223.28,-223.25l-0.01 -893.08c0,-123.28 -100.03,-223.25 -223.27,-223.25zm893.05 -446.53c-123.25,0 -223.25,100.02 -223.25,223.28l0 1339.62c0,123.28 100.03,223.25 223.25,223.25 123.18,0 223.28,-99.97 223.28,-223.25l0 -1339.66c0,-123.24 -100.1,-223.24 -223.28,-223.24zm893.05 -446.52c-123.16,0 -223.25,100.02 -223.25,223.24l0 1786.14c0,123.28 100.09,223.39 223.25,223.39 123.19,0 223.29,-100.09 223.29,-223.39l0 -1786.14c0,-123.25 -100.07,-223.24 -223.29,-223.24zm893.09 -446.48c-123.18,0 -223.28,99.94 -223.28,223.15l0 2232.68c0,123.28 100.09,223.38 223.28,223.38 123.2,0 223.25,-100.09 223.25,-223.38l0 -2232.64c0,-123.25 -100.03,-223.19 -223.25,-223.19z"/>
    </g>
   </g>
  </g>
 </g>
</svg>
