<?xml version="1.0" encoding="UTF-8"?>
<!DOCTYPE svg PUBLIC "-//W3C//DTD SVG 1.1//EN" "http://www.w3.org/Graphics/SVG/1.1/DTD/svg11.dtd">
<!-- Creator: CorelDRAW 2017 -->
<svg xmlns="http://www.w3.org/2000/svg" xml:space="preserve" width="297mm" height="210mm" version="1.1" style="shape-rendering:geometricPrecision; text-rendering:geometricPrecision; image-rendering:optimizeQuality; fill-rule:evenodd; clip-rule:evenodd"
viewBox="0 0 29700 21000"
 xmlns:xlink="http://www.w3.org/1999/xlink">
 <g>
  <metadata id="CorelCorpID_0Corel-Layer"/>
  <g>
   <path d="M21877.43 3075.54c-1983.04,-1983.25 -4620.03,-3075.54 -7424.61,-3075.54 -2804.58,0 -5441.16,1092.29 -7424.46,3075.54 -1983.25,1983.3 -3075.54,4619.88 -3075.54,7424.46 0,2804.99 1092.29,5441.72 3075.54,7424.82 1983.1,1983.1 4619.88,3075.18 7424.46,3075.18 2804.79,0 5441.57,-1092.09 7424.61,-3075.18 1983.1,-1983.1 3075.39,-4619.82 3075.39,-7424.82 0,-2804.58 -1092.29,-5441.36 -3075.39,-7424.46l0 0zm-464.04 14385.24c-1859.08,1859.13 -4331.02,2882.92 -6960.57,2882.92 -2629.35,0 -5101.29,-1023.8 -6960.42,-2882.92 -1859.33,-1859.08 -2883.28,-4331.23 -2883.28,-6960.78 0,-2629.14 1023.95,-5101.09 2883.28,-6960.42 1859.33,-1859.33 4331.28,-2883.28 6960.42,-2883.28 2629.35,0 5101.29,1023.95 6960.57,2883.28 1859.13,1859.13 2883.13,4331.08 2883.13,6960.42 0,2629.76 -1024,5101.7 -2883.13,6960.78l0 0zm0 0z"/>
   <path d="M21591.04 4715.59c-114.13,-140.84 -320.84,-162.42 -461.63,-48.09 -140.79,114.18 -162.22,320.84 -48.04,461.42 1226.87,1512.24 1902.55,3419.61 1902.55,5371.07 0,2279.07 -887.37,4421.57 -2498.56,6032.75 -1611.19,1611.19 -3753.68,2498.35 -6032.55,2498.35 -2102.45,0 -4122.36,-771.24 -5687.3,-2171.92 -135.2,-120.94 -342.48,-109.36 -463.42,25.63 -120.74,134.99 -109.36,342.48 25.63,463.22 1685.69,1508.67 3860.84,2339.38 6125.1,2339.38 2454.11,0 4761.43,-955.51 6496.59,-2690.61 1735.1,-1735.16 2690.81,-4042.48 2690.81,-6496.79 0,-2101.48 -727.76,-4155.63 -2049.18,-5784.41l0 0zm0 0z"/>
   <path d="M5921.46 10500c0,-4704.16 3827.2,-8531.36 8531.36,-8531.36 2102.45,0 4122.15,771.45 5687.25,2172.18 134.99,120.94 342.48,109.31 463.27,-25.63 120.94,-134.99 109.31,-342.48 -25.63,-463.27 -1685.48,-1508.6 -3860.83,-2339.31 -6124.88,-2339.31 -2453.9,0 -4761.02,955.66 -6496.38,2691.02 -1735.36,1735.31 -2691.02,4042.43 -2691.02,6496.38 0,2101.63 727.77,4155.99 2049.13,5784.61 64.91,80.08 159.45,121.56 254.96,121.56 72.7,0 145.81,-24.05 206.67,-73.52 140.58,-114.13 162.22,-320.79 48.09,-461.42 -1227.09,-1512.25 -1902.82,-3419.83 -1902.82,-5371.24l0 0zm0 0z"/>
  </g>
  <g>
   <path d="M16189.24 7203.41c302.18,0 686.79,68.68 1071.39,274.72l714.26 -1716.97c-508.23,-274.72 -1359.84,-508.23 -2156.52,-508.23 -2101.57,0 -3104.29,1222.49 -3104.29,2733.42l0 425.81 -988.97 0 0 1840.6 988.97 0 0 5494.31 2719.69 0 0 -5494.31 1401.05 0 302.19 -1840.6 -1703.24 0 0 -288.45c0,-686.79 233.51,-920.3 755.47,-920.3z"/>
  </g>
 </g>
</svg>
