<?xml version="1.0" encoding="UTF-8"?>
<!DOCTYPE svg PUBLIC "-//W3C//DTD SVG 1.1//EN" "http://www.w3.org/Graphics/SVG/1.1/DTD/svg11.dtd">
<!-- Creator: CorelDRAW 2017 -->
<svg xmlns="http://www.w3.org/2000/svg" xml:space="preserve" width="297mm" height="210mm" version="1.1" style="shape-rendering:geometricPrecision; text-rendering:geometricPrecision; image-rendering:optimizeQuality; fill-rule:evenodd; clip-rule:evenodd"
viewBox="0 0 29700 21000"
 xmlns:xlink="http://www.w3.org/1999/xlink">
 <g>
  <metadata id="CorelCorpID_0Corel-Layer"/>
  <g>
   <path d="M12806.72 11808.86c0,-71.58 58.02,-129.59 129.59,-129.59l30.91 0c71.58,0 129.59,58.01 129.59,129.59 0,71.58 -58.01,129.59 -129.59,129.59l-30.91 0c-71.57,0 -129.59,-58.02 -129.59,-129.59zm2807.89 -2727.73c-175.78,59.39 -293.91,223.65 -293.91,408.77 0,237.84 193.49,431.32 431.32,431.32l1173.3 0c237.83,0 431.31,-193.49 431.31,-431.31 0,-185.1 -118.09,-349.37 -293.87,-408.77 -67.77,-22.91 -141.34,13.49 -164.25,81.3 -22.91,67.8 13.49,141.34 81.3,164.25 70.38,23.77 117.65,89.37 117.65,163.22 0,94.91 -77.22,172.13 -172.14,172.13l-1173.3 0c-94.92,0 -172.14,-77.22 -172.14,-172.13 0,-73.85 47.3,-139.47 117.68,-163.24 67.8,-22.91 104.21,-96.44 81.3,-164.25 -22.9,-67.81 -96.45,-104.17 -164.25,-81.29zm-1938.75 3789.79c-67.82,-22.97 -141.34,13.49 -164.25,81.3 -22.91,67.8 13.49,141.32 81.3,164.23 70.38,23.77 117.66,89.36 117.66,163.21 0,94.93 -77.2,172.15 -172.12,172.15l-1173.32 -0.01c-94.92,0 -172.14,-77.22 -172.14,-172.15 0,-73.84 47.3,-139.43 117.7,-163.22 67.8,-22.91 104.2,-96.44 81.29,-164.25 -22.91,-67.8 -96.43,-104.16 -164.24,-81.29 -175.8,59.39 -293.91,223.67 -293.91,408.76 0,237.84 193.49,431.33 431.31,431.33l1173.33 0c237.82,0 431.29,-193.49 431.29,-431.33 -0.01,-185.09 -118.13,-349.35 -293.9,-408.73zm-1080.12 -103.08c-230.91,-453.82 -374.02,-772.52 -374.02,-959 0,-402.54 327.51,-730.04 730.07,-730.04 402.54,0 730.04,327.5 730.04,730.04 0,186.61 -143.09,505.28 -373.99,958.98 0,0 -82.58,163.01 -86.71,171.68 -33.32,69.86 -95.33,199.88 -269.36,199.88 -174.02,0 -236.05,-130 -269.37,-199.87 -4.1,-8.66 -86.66,-171.67 -86.66,-171.67zm-114.84 -959c0,161.79 242.34,638.05 345.82,841.43 0,0 110.15,220.68 117.57,229.49 4.59,6.59 11.58,3.01 14.99,0.01 7.41,-8.81 19.63,-34.47 27.93,-51.86 4.95,-10.38 89.66,-177.65 89.66,-177.65 103.48,-203.33 345.8,-679.49 345.8,-841.43 0,-259.64 -211.23,-470.87 -470.87,-470.87 -259.66,0.02 -470.9,211.25 -470.9,470.88zm5285.26 -4390.24l0 928.86c0,71.57 -58.01,129.59 -129.59,129.59l-1168.32 0 0 597.3 102.63 0c71.58,0 129.59,58.01 129.59,129.59 0,71.57 -58.01,129.59 -129.59,129.59l-464.43 -0.01c-71.57,0 -129.58,-58.01 -129.58,-129.59 0,-71.57 58.01,-129.59 129.58,-129.59l102.63 0.01 0 -724.14c-0.02,-0.92 -0.03,-1.83 -0.03,-2.75 0,-0.92 0,-1.85 0.03,-2.75l0 -923.36c-0.02,-0.92 -0.03,-1.83 -0.03,-2.75 0,-71.57 58.01,-129.59 129.59,-129.59l1297.93 0c71.58,0 129.59,58.01 129.59,129.59zm-259.17 129.59l-1038.74 0 0 669.68 1038.74 0 0 -669.68zm-799.25 2822.24l-3715.48 0c-440.71,0 -799.25,-358.56 -799.25,-799.29 0,-440.73 358.54,-799.27 799.25,-799.27l2612.83 0c71.58,0 129.59,-58.01 129.59,-129.58 0,-71.58 -58.01,-129.59 -129.59,-129.59l-2612.83 0c-583.62,0 -1058.43,474.83 -1058.43,1058.45 0,583.63 474.81,1058.46 1058.43,1058.46l3715.48 -0.01c440.7,0 799.25,358.55 799.25,799.28 0,440.72 -358.55,799.27 -799.25,799.27l-2612.84 0c-71.57,0 -129.59,58.01 -129.59,129.59 0,71.57 58.01,129.59 129.59,129.59l2612.84 -0.01c583.62,0 1058.42,-474.82 1058.42,-1058.44 0,-583.62 -474.79,-1058.45 -1058.42,-1058.45z"/>
   <path d="M12806.72 11808.86c0,-71.58 58.02,-129.59 129.59,-129.59l30.91 0c71.58,0 129.59,58.01 129.59,129.59 0,71.58 -58.01,129.59 -129.59,129.59l-30.91 0c-71.57,0 -129.59,-58.02 -129.59,-129.59zm2807.89 -2727.73c-175.78,59.39 -293.91,223.65 -293.91,408.77 0,237.84 193.49,431.32 431.32,431.32l1173.3 0c237.83,0 431.31,-193.49 431.31,-431.31 0,-185.1 -118.09,-349.37 -293.87,-408.77 -67.77,-22.91 -141.34,13.49 -164.25,81.3 -22.91,67.8 13.49,141.34 81.3,164.25 70.38,23.77 117.65,89.37 117.65,163.22 0,94.91 -77.22,172.13 -172.14,172.13l-1173.3 0c-94.92,0 -172.14,-77.22 -172.14,-172.13 0,-73.85 47.3,-139.47 117.68,-163.24 67.8,-22.91 104.21,-96.44 81.3,-164.25 -22.9,-67.81 -96.45,-104.17 -164.25,-81.29zm-1938.75 3789.79c-67.82,-22.97 -141.34,13.49 -164.25,81.3 -22.91,67.8 13.49,141.32 81.3,164.23 70.38,23.77 117.66,89.36 117.66,163.21 0,94.93 -77.2,172.15 -172.12,172.15l-1173.32 -0.01c-94.92,0 -172.14,-77.22 -172.14,-172.15 0,-73.84 47.3,-139.43 117.7,-163.22 67.8,-22.91 104.2,-96.44 81.29,-164.25 -22.91,-67.8 -96.43,-104.16 -164.24,-81.29 -175.8,59.39 -293.91,223.67 -293.91,408.76 0,237.84 193.49,431.33 431.31,431.33l1173.33 0c237.82,0 431.29,-193.49 431.29,-431.33 -0.01,-185.09 -118.13,-349.35 -293.9,-408.73zm-1080.12 -103.08c-230.91,-453.82 -374.02,-772.52 -374.02,-959 0,-402.54 327.51,-730.04 730.07,-730.04 402.54,0 730.04,327.5 730.04,730.04 0,186.61 -143.09,505.28 -373.99,958.98 0,0 -82.58,163.01 -86.71,171.68 -33.32,69.86 -95.33,199.88 -269.36,199.88 -174.02,0 -236.05,-130 -269.37,-199.87 -4.1,-8.66 -86.66,-171.67 -86.66,-171.67zm-114.84 -959c0,161.79 242.34,638.05 345.82,841.43 0,0 110.15,220.68 117.57,229.49 4.59,6.59 11.58,3.01 14.99,0.01 7.41,-8.81 19.63,-34.47 27.93,-51.86 4.95,-10.38 89.66,-177.65 89.66,-177.65 103.48,-203.33 345.8,-679.49 345.8,-841.43 0,-259.64 -211.23,-470.87 -470.87,-470.87 -259.66,0.02 -470.9,211.25 -470.9,470.88zm5285.26 -4390.24l0 928.86c0,71.57 -58.01,129.59 -129.59,129.59l-1168.32 0 0 597.3 102.63 0c71.58,0 129.59,58.01 129.59,129.59 0,71.57 -58.01,129.59 -129.59,129.59l-464.43 -0.01c-71.57,0 -129.58,-58.01 -129.58,-129.59 0,-71.57 58.01,-129.59 129.58,-129.59l102.63 0.01 0 -724.14c-0.02,-0.92 -0.03,-1.83 -0.03,-2.75 0,-0.92 0,-1.85 0.03,-2.75l0 -923.36c-0.02,-0.92 -0.03,-1.83 -0.03,-2.75 0,-71.57 58.01,-129.59 129.59,-129.59l1297.93 0c71.58,0 129.59,58.01 129.59,129.59zm-259.17 129.59l-1038.74 0 0 669.68 1038.74 0 0 -669.68zm-799.25 2822.24l-3715.48 0c-440.71,0 -799.25,-358.56 -799.25,-799.29 0,-440.73 358.54,-799.27 799.25,-799.27l2612.83 0c71.58,0 129.59,-58.01 129.59,-129.58 0,-71.58 -58.01,-129.59 -129.59,-129.59l-2612.83 0c-583.62,0 -1058.43,474.83 -1058.43,1058.45 0,583.63 474.81,1058.46 1058.43,1058.46l3715.48 -0.01c440.7,0 799.25,358.55 799.25,799.28 0,440.72 -358.55,799.27 -799.25,799.27l-2612.84 0c-71.57,0 -129.59,58.01 -129.59,129.59 0,71.57 58.01,129.59 129.59,129.59l2612.84 -0.01c583.62,0 1058.42,-474.82 1058.42,-1058.44 0,-583.62 -474.79,-1058.45 -1058.42,-1058.45z"/>
  </g>
 </g>
</svg>
