<!-- Generator: Adobe Illustrator 21.1.0, SVG Export Plug-In  -->
<svg version="1.1"
	 xmlns="http://www.w3.org/2000/svg" xmlns:xlink="http://www.w3.org/1999/xlink" xmlns:a="http://ns.adobe.com/AdobeSVGViewerExtensions/3.0/"
	 x="0px" y="0px" width="595.3px" height="595.3px" viewBox="0 0 595.3 595.3" style="enable-background:new 0 0 595.3 595.3;"
	 xml:space="preserve">
<defs>
</defs>
<g>
	<g>
		<path d="M508.1,87.2C451.9,31,377.1,0,297.6,0S143.4,31,87.2,87.2C31,143.4,0,218.1,0,297.6c0,79.5,31,154.3,87.2,210.5
			c56.2,56.2,131,87.2,210.5,87.2c79.5,0,154.2-31,210.5-87.2c56.2-56.2,87.2-131,87.2-210.5C595.3,218.1,564.3,143.4,508.1,87.2
			L508.1,87.2z M494.9,495c-52.7,52.7-122.8,81.7-197.3,81.7c-74.5,0-144.6-29-197.3-81.7c-52.7-52.7-81.7-122.8-81.7-197.3
			c0-74.5,29-144.6,81.7-197.3s122.8-81.7,197.3-81.7c74.5,0,144.6,29,197.3,81.7c52.7,52.7,81.7,122.8,81.7,197.3
			C576.7,372.2,547.6,442.3,494.9,495z"/>
		<path d="M500,133.7c-3.2-4-9.1-4.6-13.1-1.4c-4,3.2-4.6,9.1-1.4,13.1c34.8,42.9,53.9,96.9,53.9,152.3c0,64.6-25.2,125.3-70.8,171
			c-45.7,45.7-106.4,70.8-171,70.8c-59.6,0-116.9-21.9-161.2-61.6c-3.8-3.4-9.7-3.1-13.1,0.7c-3.4,3.8-3.1,9.7,0.7,13.1
			c47.8,42.8,109.4,66.3,173.6,66.3c69.6,0,135-27.1,184.2-76.3c49.2-49.2,76.3-114.6,76.3-184.2C558.1,238.1,537.4,179.8,500,133.7
			L500,133.7L500,133.7z"/>
		<path d="M55.8,297.6c0-133.3,108.5-241.8,241.8-241.8c59.6,0,116.8,21.9,161.2,61.6c3.8,3.4,9.7,3.1,13.1-0.7
			c3.4-3.8,3.1-9.7-0.7-13.1c-47.8-42.8-109.4-66.3-173.6-66.3c-69.6,0-135,27.1-184.1,76.3c-49.2,49.2-76.3,114.6-76.3,184.1
			c0,59.6,20.6,117.8,58.1,164c1.8,2.3,4.5,3.4,7.2,3.4c2.1,0,4.1-0.7,5.9-2.1c4-3.2,4.6-9.1,1.4-13.1C75,407,55.8,353,55.8,297.6
			L55.8,297.6L55.8,297.6z"/>
	</g>
	<g id="_2858536795120_1_">
	</g>
	<g id="_2858536794672_1_">
	</g>
	<g id="_2858536793712_1_">
	</g>
	<g id="_2858536793072_1_">
	</g>
	<g id="_2858536794192_1_">
	</g>
	<g id="_2858536794160_1_">
	</g>
	<g id="_2858536793424_1_">
	</g>
	<g id="_2858536794416_1_">
	</g>
	<g id="_2858536792464_1_">
	</g>
	<g id="_2858536791408_1_">
	</g>
	<g id="_2858536791632_1_">
	</g>
	<g id="_2858536791952_1_">
	</g>
	<g id="_2858536792304_1_">
	</g>
	<g id="_2858536790448_1_">
	</g>
	<g id="_2858536791120_1_">
	</g>
	<g id="_2858536788688_1_">
	</g>
	<g id="_2858536789584_1_">
	</g>
	<g id="_2858536790032_1_">
	</g>
	<g id="_2858536789232_1_">
	</g>
	<g id="_2858536789360_1_">
	</g>
	<g id="_2858536788400_1_">
	</g>
	<g id="_2894114495808_1_">
	</g>
	<g id="_2858776115488_1_">
	</g>
	<g id="_2858725527088_1_">
	</g>
	<g id="_2893703848224_1_">
	</g>
	<g id="_2893703855872_1_">
	</g>
	<g id="_2858726162736_1_">
	</g>
	<g id="_2858726156528_1_">
	</g>
	<g id="_2858726155216_1_">
	</g>
	<g id="_2858726140960_1_">
	</g>
	<g id="mail_1_">
		<g>
			<path d="M437.1,188h-279c-11,0-19.9,8.9-19.9,19.9v179.4c0,11,8.9,19.9,19.9,19.9l279,0c11,0,19.9-8.9,19.9-19.9l0-179.4
				C457.1,197,448.1,188,437.1,188L437.1,188z M419.2,208L297.6,327.5L177,208L419.2,208L419.2,208z M158.1,387.3V218l95.5,95.5
				l-75,73.8H158.1z M207.8,387.3l60.6-59.1l15.7,15.7c7.8,7.8,20.4,7.8,28.2,0l15.3-15.3l60.6,58.6H207.8L207.8,387.3z
				 M437.1,387.3h-19.3l-75-73.8l94.3-94.3V387.3z"/>
		</g>
	</g>
</g>
</svg>
